<?xml version="1.0" standalone="no"?>
<!DOCTYPE svg PUBLIC "-//W3C//DTD SVG 1.1//EN" "http://www.w3.org/Graphics/SVG/1.1/DTD/svg11.dtd" >
<svg xmlns="http://www.w3.org/2000/svg">
<metadata></metadata>
<defs>
<font id="artely_inks_personal_useRg" horiz-adv-x="1871" >
<font-face units-per-em="2048" ascent="1536" descent="-512" />
<missing-glyph horiz-adv-x="430" />
<glyph unicode="&#xfb01;" horiz-adv-x="802" d="M-563 -582q-12 45 2 91.5t31 87.5q63 141 147 258.5t172 226.5q104 135 209.5 268t216.5 266q-4 27 -16 35q-12 10 -26.5 10.5t-25.5 14.5q-14 14 -17 41.5t1 44.5q6 23 23.5 26t38.5 7q12 2 25 4t34.5 5t54.5 8t82 11q12 14 27.5 34t45.5 52.5t78 85t128 133.5 l26.5 26.5t30.5 19.5q16 4 31.5 -2.5t28 -18.5t19.5 -27.5t7 -29.5q2 -16 -1 -25.5t-13 -19.5q-14 -14 -27.5 -26.5t-26.5 -27.5q-35 -37 -67.5 -72.5t-65.5 -74.5q113 4 186.5 19.5t122 30.5t75 23.5t44.5 0.5q29 -12 27 -42t-22.5 -60.5t-52.5 -56.5t-62 -28l-449 -39 q-33 -39 -64.5 -76.5t-62.5 -76.5q-10 -104 -38.5 -203.5t-73.5 -191.5q-88 -184 -194.5 -351.5t-238.5 -304.5q-27 -29 -59.5 -58.5t-67 -53t-70.5 -37t-69 -9.5q-35 4 -64.5 25t-39.5 57zM-435 -536q9 -4 66 49q72 66 134.5 143.5t115.5 160.5t101.5 168t91.5 167 q18 33 33.5 66.5t31.5 68.5l-123 -152q-61 -78 -122.5 -153.5t-120.5 -153.5q-53 -74 -108.5 -149.5t-90.5 -161.5q-18 -49 -9 -53zM320.5 82q3.5 43 17.5 82q29 88 87 162.5t118 144.5q29 35 58.5 68.5t62.5 64.5q14 14 29.5 28.5t35.5 16.5q35 0 55.5 -26.5t24.5 -55.5 q0 -16 -5 -25.5t-16 -21.5q-68 -72 -131 -141.5t-118 -147.5q-39 -53 -55.5 -92t-10.5 -55t36 -4t83 61q29 27 64.5 63t107.5 107q14 14 27.5 29.5t31.5 24.5q33 12 60.5 -9.5t21.5 -56.5q-4 -20 -17.5 -33.5l-27.5 -27.5l-59 -62l-57.5 -57.5t-59.5 -57.5 q-61 -59 -111.5 -89.5t-105.5 -32.5q-39 -2 -74 13t-53 50q-23 37 -19.5 80z" />
<glyph unicode="&#xfb02;" horiz-adv-x="1011" d="M-563 -582q-12 45 2 91.5t31 87.5q63 141 147 258.5t172 226.5q104 135 209.5 268t216.5 266q-4 27 -16 35q-6 4 -25.5 5t-42 2t-41 3.5t-24.5 8.5q-14 14 -17.5 41.5t0.5 44.5q6 23 23.5 25.5t38.5 6.5q25 4 102.5 12.5t175.5 22.5q12 14 27.5 34t45.5 52.5t78 85 t128 133.5l26.5 26.5t30.5 19.5q16 4 31.5 -2.5t28 -18.5t19.5 -27.5t7 -29.5q2 -16 -1 -25.5t-13 -19.5q-14 -14 -27.5 -26.5t-26.5 -27.5q-35 -37 -67.5 -72.5t-65.5 -74.5q23 4 45.5 7t32.5 -1q16 -6 20.5 -26.5t0.5 -44t-17.5 -43t-29.5 -21.5l-183 -23 q-33 -39 -64.5 -76.5t-62.5 -76.5q-10 -104 -38.5 -203.5t-73.5 -191.5q-88 -184 -194.5 -351.5t-238.5 -304.5q-27 -29 -59.5 -58.5t-67 -53t-70.5 -37t-69 -9.5q-35 4 -64.5 25t-39.5 57zM-435 -536q9 -4 66 49q72 66 134.5 143.5t115.5 160.5t101.5 168t91.5 167 q18 33 33.5 66.5t31.5 68.5l-123 -152q-61 -78 -122.5 -153.5t-120.5 -153.5q-53 -74 -108.5 -149.5t-90.5 -161.5q-18 -49 -9 -53zM427 149.5q3 47.5 19 98.5q29 86 77 178t105.5 180t119 167t116.5 140q59 66 125 128.5t144 105.5q27 14 64.5 28.5t75.5 18.5t71.5 -7 t56.5 -48q25 -37 19.5 -79t-25 -82t-46 -76t-46.5 -62q-59 -72 -124 -134.5t-135 -121.5q-45 -37 -95 -74t-100 -72t-100.5 -64.5t-95.5 -49.5q-16 -20 -28.5 -40t-22.5 -38q-37 -70 -30.5 -117t32.5 -57q20 -8 58 6t87.5 46t108 81t121.5 112q12 14 25.5 27.5t31.5 20.5 q33 10 57.5 -11.5t18.5 -54.5q-4 -18 -16.5 -32.5t-24.5 -26.5q-104 -109 -186 -170.5t-145.5 -90t-110.5 -30.5t-80 6q-45 12 -72.5 40t-40 67.5t-9.5 87zM772 528q29 20 57.5 39.5t57.5 42.5q84 66 161.5 136.5t147.5 152.5q29 35 54.5 68.5t41.5 74.5q6 16 -3 17.5 t-24.5 -4.5t-34 -16.5t-28.5 -18.5q-80 -59 -148.5 -128t-127.5 -147q-41 -53 -80 -106t-74 -111z" />
<glyph horiz-adv-x="0" />
<glyph unicode="&#xd;" horiz-adv-x="430" />
<glyph horiz-adv-x="0" />
<glyph horiz-adv-x="0" />
<glyph unicode=" "  horiz-adv-x="430" />
<glyph unicode="&#x09;" horiz-adv-x="430" />
<glyph unicode="&#xa0;" horiz-adv-x="430" />
<glyph unicode="!" horiz-adv-x="561" d="M-29 37q0 16 9.5 28.5t19.5 22.5q20 20 48 37.5t58 7.5q31 -10 47.5 -39.5t12.5 -62.5q-2 -12 -12.5 -24.5t-24.5 -25t-28.5 -20.5t-22.5 -10q-41 -10 -74 19.5t-33 66.5zM184 332q-10 18 2.5 35.5t22.5 33.5q61 90 119.5 175.5t119 162t126 145t139.5 128.5 q20 16 41.5 16t39 -10t29 -29.5t15.5 -42.5q2 -20 -19.5 -36.5t-34.5 -28.5q-143 -119 -262 -269.5t-219 -292.5q-10 -16 -21.5 -28t-31.5 -8t-37.5 17t-28.5 32z" />
<glyph unicode="&#x22;" horiz-adv-x="503" d="M219 625q-8 23 6.5 44t26.5 40q63 98 154 180q23 23 40 33t37 -2q39 -20 58 -56l26 25q23 23 40.5 32t39.5 -1q50 -23 66 -78q6 -27 -10.5 -42.5t-32.5 -31.5q-41 -37 -66.5 -61.5t-43 -41t-29 -26.5t-19.5 -21l-31.5 -31.5t-40.5 -11.5q-18 4 -35.5 16.5t-23.5 33.5 q-4 12 0 26q-10 -8 -17.5 -16t-15.5 -17q-16 -16 -30.5 -31.5t-38.5 -11.5q-20 4 -37 16.5t-23 33.5z" />
<glyph unicode="#" horiz-adv-x="1026" d="M-17 218q1 22 13 38q10 12 29.5 12t35.5 2q41 2 67 3t41 2t23.5 1h14.5q16 29 34.5 54.5t37.5 50.5h-70q-20 0 -33.5 11t-19.5 28.5t-3 36t15 32.5q10 12 29.5 12.5t35.5 2.5q41 2 67 4t41 3t24.5 1h15.5l18 20q35 41 74 79t80 75q18 18 36.5 14t35.5 -14q39 -29 45 -74 q2 -18 -17.5 -33.5t-29.5 -25.5l-37 -33q27 0 51.5 1t48.5 1q10 6 32.5 27.5t47.5 48.5t48.5 51.5t37.5 36.5q18 18 35.5 14t34.5 -14q39 -29 45 -74q4 -18 -15.5 -33.5t-31.5 -25.5l-33 -29q16 0 33.5 -1t33.5 -1q25 -2 36 -18.5t12.5 -38t-5 -43t-18.5 -33.5 q-14 -14 -36.5 -12t-39.5 2h-153l-70 -88h51.5t50.5 -2q25 -2 36 -18.5t12 -38t-5 -44t-16 -34.5q-14 -12 -36.5 -11.5t-41.5 2.5h-156l-88 -129q-14 -18 -25 -21t-34 5q-16 6 -30.5 18.5t-20.5 28.5q-8 16 6 34.5t23 33.5l18 30q-35 0 -72 1t-73 1l-91 -131 q-20 -35 -57 -16q-16 6 -31.5 18.5t-21.5 28.5t7 34.5t21 33.5l21 32q-23 0 -45.5 -1t-44.5 -1q-35 0 -49 35q-6 16 -5 38zM379 285q33 0 65.5 1t67.5 1q33 51 63 94h-120z" />
<glyph unicode="$" horiz-adv-x="1906" d="M35 813q70 37 137.5 67.5t144.5 53.5q4 0 8.5 20.5t8.5 45t8 48t8 31.5q23 35 68 53.5t78 34.5q88 35 179 61.5t183 51.5q94 23 188.5 39t190.5 24q33 4 80 8.5t95 3.5t92 -12.5t71 -37.5q2 -4 -2 -29t-6 -33l-6 -98q0 -4 4 -4q78 -23 152.5 -58.5t123.5 -103.5v-2 q-16 4 -36.5 -3t-41 -20.5t-38 -28t-27.5 -26.5q31 -16 50 -47t27.5 -66.5t6.5 -72.5t-13 -68q-16 43 -49.5 66.5t-74.5 35t-85 14.5t-83 5q-45 4 -94.5 2t-92.5 14q-16 6 -22 25.5t-7 43t2 46.5t5 37q-184 -14 -363.5 -56t-351.5 -102q-8 -2 -8 -6q2 -10 8 -33.5t10 -50.5 t6 -49.5t-6 -28.5q-23 -18 -58.5 -21t-64.5 -7q-39 -6 -78.5 -12.5t-78.5 -12.5q-35 -8 -67 -17.5t-62 -21.5q-14 -8 -28.5 -13t-29.5 -16q-8 -8 -18 -20t-17 -16q10 35 24.5 67.5t27.5 63.5q2 6 13 25.5t21.5 41t18.5 39t6 21.5q-25 35 -58.5 67.5t-78.5 36.5zM86 -133h47 q4 -41 7 -83t12 -83q4 41 10 83t14 83h37l25 -166q4 41 9 83t9 83h43l-43 -223h-43q-6 37 -11 73.5t-9 73.5q-4 -37 -11.5 -73.5t-13.5 -73.5h-43zM90 819q68 -37 109 -108q2 -2 -4.5 -15.5t-14.5 -29t-15 -28.5t-9 -20q-25 -45 -41 -94q51 27 104 39t108.5 20.5t110 15.5 t107.5 24q-18 18 -47 25t-62 8t-65.5 -2t-55.5 -5v131t4 131q-59 -16 -116.5 -39.5t-112.5 -52.5zM305 -133h45q4 -41 8 -83t11 -83q4 41 10 83t14 83h39l23 -166q4 41 9 83t9 83h43l-43 -223h-41q-8 37 -13 73.5t-9 73.5q-4 -37 -10.5 -73.5t-12.5 -73.5h-45zM342 709 q8 0 22.5 6t29 15t27.5 18.5t23 13.5q37 16 75 29.5t77 27.5q78 23 155.5 43.5t159.5 38.5q78 16 155 31.5t157 21.5q72 8 154.5 11.5t152.5 -29.5q6 55 6 112.5t4 110.5q0 29 2 57.5t6 57.5q2 14 -6 22.5t-20.5 13.5t-26.5 7t-27 4q-119 18 -245.5 1t-245.5 -42 q-129 -27 -255 -60.5t-249 -86.5q-23 -12 -46.5 -24.5t-43.5 -29.5q-20 -16 -24.5 -49t-8.5 -55q-8 -66 -8 -132.5v-133.5zM367 825q0 23 15 38.5t36 19.5q6 2 15 -2t5 -15q-12 -8 -22 -8q-12 -4 -16.5 -16.5t1.5 -22.5q4 -4 8.5 -5t8.5 -3q20 -2 33.5 11.5t22.5 34t13.5 41 t8.5 34.5q-27 -27 -62 -35q-27 -4 -43 12q-16 8 -16 37q0 27 12 51q27 61 86 99q12 6 25.5 12t27.5 10q10 4 21.5 12.5t21.5 10.5q12 -1 6 -13q12 0 21 -2q16 -2 27.5 -15t13.5 -32q6 -43 -23.5 -83t-66.5 -62q-18 -12 -27.5 -31.5t-18.5 -39t-20.5 -38t-34.5 -28.5 q-23 -16 -53 -11q-12 4 -20 14.5t-6 24.5zM405.5 937q2.5 -15 22.5 -15q31 0 49.5 19.5t30.5 47t18.5 58.5t10.5 51q-29 -6 -52.5 -23.5t-44.5 -38.5q-6 -6 -15 -25.5t-15.5 -39t-4 -34.5zM522 -133h45q4 -41 9.5 -83t9.5 -83q4 41 10 83t14 83h39l25 -166q2 41 7 83t11 83 h41l-41 -223h-43q-8 37 -12 73.5t-10 73.5q-4 -37 -10.5 -73.5t-12.5 -73.5h-43zM530 950q14 4 29.5 19.5t26 35t14.5 40t0 34.5q-6 23 -33 23q-14 -37 -20.5 -75t-16.5 -77zM582 138q2 34 2 61q0 20 -1 38.5t1 38.5q0 49 26.5 67.5t73.5 18.5q37 0 54.5 -20t23.5 -50 t4 -63.5t-2 -60.5v-80q0 -47 -26.5 -66.5t-71.5 -17.5q-39 0 -56.5 20.5t-23.5 50t-4 63.5zM628 952.5q-5 20.5 6 46t31.5 46t43.5 22.5q12 0 16 -10q8 -12 2 -29q-6 -23 -27.5 -40t-44.5 -21q2 -12 10.5 -13.5t17.5 3t17.5 10.5t12.5 10q25 20 36 46t21 52q2 2 -1 9.5 t-8 15.5t-8 17t-1 16q10 27 34 22q12 0 17 -12q4 -10 2 -22.5t-2 -24.5q20 2 28.5 -1t-4.5 -28q-8 -16 -17 -33.5t-11 -36.5q0 -10 6 -10q20 0 34.5 20.5t26 46t22.5 51t25 34.5q8 2 17 -2q2 -4 2 -13q-4 -12 -10.5 -21t-1.5 -24q6 -12 13 -25.5t5 -27.5h2q20 25 32.5 60.5 t45.5 52.5q37 14 49 -21q10 -14 6 -25.5t-2 -27.5q8 2 14 10q16 12 18.5 35t8.5 41q4 4 11 5t12 -1q10 -2 8 -12v-2q10 10 24 16q10 6 17.5 2t11.5 -14q4 -12 1 -22.5t-8 -21.5t-10 -22.5t-3 -23.5q14 12 24 26.5t18.5 29.5t17.5 28.5t26 23.5q20 10 51 0q4 6 17 8.5 t9 -14.5q-4 -18 -14 -38.5t-10 -41.5q0 -14 8 -2q20 20 30.5 48t19.5 55.5t23.5 53t43.5 42.5q14 8 24 -8q12 -23 4 -48.5t-24 -41.5q-14 -18 -43 -44t-25 -53q4 -16 23 -12q14 6 21 19.5t16 25.5q4 2 12 2t8 -10l-4 -12q-16 -39 -53 -54q-25 -14 -43 15q-4 4 -4 10 q-10 -8 -16.5 -15.5t-18.5 -11.5q-10 -4 -16.5 0t-12.5 8q-4 -4 -12 -8t-16 -6q-31 -6 -43 21v2q-8 -10 -17.5 -17.5t-23.5 -11.5q-14 -8 -25 12q-6 12 -3 23.5t8 22t9 21.5t2 23q-18 -8 -25 -19t-11.5 -25.5t-6.5 -29t-8 -28.5q-6 -16 -24 -8q-8 2 -9 10q0 4 1 9t1 7 q-14 -4 -19 -4t-15 -10t-24.5 -18.5t-31.5 -8.5q-10 2 -16 8.5t-10 14.5q-16 -16 -40 -32.5t-50 -12.5q-16 2 -25 18q-25 -29 -51 -36q-29 -12 -33 20q-4 27 8.5 44t22.5 38q2 4 -3 5t-7 -3q-8 -20 -18.5 -44t-26 -45.5t-36 -34.5t-46.5 -11q-31 2 -36 22.5zM638 163 q-1 -38 1 -75q0 -16 9 -26.5t21.5 -14.5t24 1t15.5 24q2 12 2 27.5v29.5v147q0 16 -10.5 27.5t-22.5 16t-23.5 -2t-15.5 -22.5q-2 -14 -1 -29.5t1 -27.5q0 -37 -1 -75zM653 416q12 14 15.5 36.5t2.5 48t-4 49t-3 42.5v125q0 16 1 30.5t-12 28.5h76q-14 -12 -12 -32.5 t2 -36.5v-142q0 -16 -2 -49t10 -47q14 -23 37.5 -8.5t28.5 33.5q8 27 2.5 54t-9.5 54q-4 14 -10 38t-8 48.5t2 46t21 33.5q10 10 31.5 10t29.5 -16q6 -16 -2 -21.5t-18.5 -4.5t-17.5 8.5t1 15.5q-16 -8 -17 -28.5t6 -44t17 -46.5t15 -35q12 -37 17 -87t-22 -85 q-10 -14 -33.5 -19t-50 -5t-53 3t-41.5 3zM655 987q12 -2 28.5 15.5t18.5 27.5q4 8 -2 12.5t-12 -2.5q-10 -10 -18.5 -24.5t-14.5 -28.5zM715 -328q0 14 9 22.5t21.5 8.5t21.5 -8t9 -23q0 -16 -9 -23t-21.5 -7t-21.5 7t-9 23zM776 1124q-2 -8 4 -20h4q0 8 1 13t-1 13 q-6 0 -8 -6zM780 4q10 14 13.5 34.5t2.5 44t-4.5 46.5t-3.5 39v172q0 10 -8 22h58q29 -12 51 -50t35 -66q0 25 2 59.5t-13 56.5h74q-12 -10 -11 -24t1 -29v-246q0 -14 -1 -31.5t11 -27.5h-207zM797 -356l59 223h64l59 -223h-51l-15 51h-53l-10 -51h-53zM844 47 q0 -14 11 -23.5t25.5 -11.5t28 3.5t15.5 19.5q-4 63 -21.5 127.5t-58.5 116.5v-232zM865 506.5q-3 19.5 7 32.5q10 12 33 13t27 -22q0 -10 -7 -15t-15.5 -5t-14.5 4t-6 14q-12 -4 -12 -14t7 -20.5t17 -19.5t17 -11q14 -4 34.5 -4t30.5 10q20 20 16 40.5t-19 38t-35.5 32 t-31.5 24.5q-18 16 -30.5 42t-12.5 52.5t13.5 48t44.5 27.5q27 6 54.5 4t51.5 -2l-6 -10q0 -14 7 -29.5t13.5 -31t5.5 -29.5t-16 -27q-14 -10 -33.5 -9t-21.5 22q0 12 7 17t15.5 5t14.5 -5t4 -13q14 2 14 12t-8 21.5t-18.5 20.5t-18.5 11q-14 4 -32.5 1t-24.5 -19 q-12 -25 -4 -43.5t24.5 -32.5t37 -27.5t32.5 -27.5q14 -20 22.5 -47t4.5 -52.5t-20.5 -44t-47.5 -22.5q-27 -2 -53.5 -1t-54.5 1q8 4 5 19.5t-8.5 33.5t-8.5 37.5zM866 -266h41q-4 23 -9 46t-11 46zM874 1014q4 -12 16.5 -10t14.5 14q2 18 -10 43q-6 -8 -14.5 -22.5 t-6.5 -24.5zM991 1059l4 -15q10 -14 25 -6q16 4 23.5 21.5t3.5 34.5q-2 10 -9.5 16t-21.5 -4q-20 -14 -25 -47zM997 4q12 14 15.5 36.5t2.5 47.5t-4 48.5t-3 39.5v127q0 16 1 29.5t-12 29.5h76q-10 -10 -13 -30.5t-2 -42t3 -43t2 -35.5v-166h104q23 0 55.5 -3t55.5 13 q-4 -8 -7 -29.5t-14 -21.5h-260zM1006 -135q29 4 64.5 6t62.5 -14q31 -23 22.5 -58t-37.5 -49q14 -6 21.5 -19.5t10.5 -28.5t5 -30.5t8 -27.5h-51q-6 12 -8 27.5t-6 28.5t-12.5 22.5t-26.5 7.5v-86h-53v221zM1057 -196.5q2 -24.5 2 -34.5h12q18 0 26.5 10t6.5 22.5 t-11.5 21.5t-27.5 7q-10 -2 -8 -26.5zM1065 416q10 12 11 25.5t1 27.5v248q0 14 -1 30.5t-11 28.5h127q25 -25 25.5 -59.5t-9.5 -67.5q-4 -8 -15 -29.5t-20.5 -45t-11.5 -45t10 -27.5q-6 12 4.5 13t21.5 -4t14 -14.5t-17 -17.5q-25 -10 -35 9.5t-8 35.5q0 16 6 32.5t8 31 t-4 22.5t-28 6v-155q16 0 41.5 -3t44.5 11q-6 -14 -8.5 -26.5t-6.5 -26.5h-139zM1098 362h78q-12 -29 2 -65.5t26 -60.5q12 29 22.5 62.5t0.5 63.5h80q-23 -12 -27 -38.5t-10 -47.5q-6 -20 -23.5 -47.5t-17.5 -48.5q0 -23 -3 -56.5t13 -51.5h-76q18 18 14.5 53.5t-3.5 58.5 q-12 23 -21.5 46.5t-17.5 45.5q-10 23 -14.5 46.5t-22.5 39.5zM1133 662q20 0 45.5 2t27.5 32q0 16 -7 23.5t-18.5 10.5t-24.5 3h-23v-71zM1192 -133h53v-223h-53v223zM1245 1092q-4 -10 1 -27.5t22 -3.5q12 12 21 33t11 39q-2 8 -4 13t-12 1q-16 -8 -25.5 -23.5 t-13.5 -31.5zM1274 -328q0 14 9 22.5t21.5 8.5t21.5 -8t9 -23q0 -16 -9 -23t-21.5 -7t-21.5 7t-9 23zM1294 813q-8 -6 4 -8q27 -10 57.5 -13.5t62.5 -3.5h62.5t59.5 -2t57.5 -5t57.5 -13q29 -8 51.5 -23.5t48.5 -27.5q0 61 -21.5 106t-80.5 68q35 31 69.5 58.5t75.5 43.5 q-49 47 -110.5 77t-126.5 46q-2 -57 -3.5 -112.5t-5.5 -112.5l-2 2v-6q-27 -2 -64.5 -4t-74.5 -9.5t-68.5 -21.5t-48.5 -39zM1364 -133h57l68 -152q-4 39 -4 77v75h47v-223h-51q-20 39 -37 78.5t-35 76.5q2 -39 2 -77.5v-77.5h-47v223zM1393 1157q16 20 31.5 40t19.5 46h-2 q-37 -37 -49 -86zM1562.5 -268q-8.5 37 14.5 80q12 29 40 43t62 14h10.5t17.5 -2t16.5 -4t7.5 -4l-9 -41q-27 12 -48 8t-36.5 -18.5t-20.5 -37t3 -46.5q16 -47 61 -41q10 2 8.5 21.5t-1.5 27.5h-27v41h76v-121q-41 -16 -79 -9t-62.5 29.5t-33 59.5z" />
<glyph unicode="%" horiz-adv-x="993" d="M-193 -106q0 27 19 45q12 14 25.5 26t25.5 23q31 27 58.5 52.5t58.5 51.5q82 72 168 140.5t176 134.5q-45 12 -81 45.5t-48 79.5q-8 37 1 75.5t28.5 74.5t48 67.5t59.5 56.5q39 35 87 59.5t97 26.5q84 4 136 -57q23 -27 37 -55.5t10 -63.5q-4 -39 -19 -72 q53 33 104.5 61.5t100.5 57.5q12 6 26.5 13t28.5 3q33 -10 45.5 -40.5t4.5 -63.5q-4 -12 -15.5 -19.5t-21.5 -13.5q-127 -63 -241 -141t-224 -156q47 -12 84 -51q53 -76 38.5 -145.5t-69.5 -137.5q-41 -51 -100.5 -94t-124.5 -53q-37 -6 -72 3t-63.5 29.5t-48 50.5t-23.5 66 q-2 12 -1 24.5t3 25.5q-41 -31 -79 -65t-75 -69l-47 -45q-10 -10 -20 -15t-23 -3q-29 4 -48 21.5t-26 46.5zM234.5 -11.5q-3.5 -23.5 15.5 -41.5q18 -18 42.5 -16.5t50.5 15t48.5 32t36.5 30.5q12 12 31.5 35t35 49.5t21.5 52t-10 41.5q-20 16 -45 14.5t-50.5 -14t-49 -30 t-39.5 -33.5t-37 -39t-34 -47.5t-16.5 -48zM319 528q-2 -25 7.5 -38t24 -16t31.5 1t34 12q53 20 100 64.5t68 93.5q10 18 15 42t-11 40q-18 16 -43 13t-50.5 -15t-49 -29.5t-39.5 -31.5v2q-33 -35 -57.5 -67t-29.5 -71z" />
<glyph unicode="&#x26;" horiz-adv-x="1011" d="M2 -23q-10 51 5.5 101.5t39.5 95.5q47 86 122 154.5t155 124.5q-10 78 12 157q16 61 51 117.5t86 95.5q45 35 102.5 46.5t104.5 -23.5q37 -27 50 -62.5t10 -73.5t-18 -77t-38 -70q-43 -59 -100.5 -106t-116.5 -88q4 -16 16.5 -34t22.5 -30q8 20 20.5 45t28.5 37 q12 8 53 21.5t88 28t90 25.5t60 15q12 4 23.5 5t21.5 -5t16 -15t11 -20q20 -45 -3 -86q-6 -10 -41.5 -21t-78.5 -21.5t-82 -17.5t-51 -9q-16 -18 -26.5 -38t-27.5 -36q35 -20 61.5 -33.5t51.5 -23.5q27 -10 37 -21.5t10 -38.5q-2 -25 -13.5 -47t-33.5 -35q-20 -10 -42 0.5 t-38 20.5q-29 16 -56.5 35.5t-54.5 42.5q-16 -23 -34.5 -42.5t-34.5 -39.5q-35 -39 -73 -74t-83 -63q-41 -29 -90 -44.5t-100 -1.5q-45 14 -74 48t-39 81zM119 16.5q-4 -24.5 12 -39.5q23 -23 60.5 -10t72.5 39q35 25 64.5 55.5t58.5 65.5q29 31 55 72q-44 51 -71 104 q-35 -25 -67 -52.5t-60 -55.5q-31 -31 -58.5 -64t-45 -61.5t-21.5 -53zM438 532l56 43q10 8 34.5 32t46 50.5t32.5 51t-7 36.5q-16 10 -39.5 -6t-40.5 -32q-43 -45 -63 -103q-12 -33 -19 -72z" />
<glyph unicode="'" horiz-adv-x="0" d="M106 813q4 12 11.5 23.5t13.5 21.5q55 82 97 130t87 83q23 16 45.5 25.5t49.5 -6.5q23 -12 35 -34.5t8 -47.5q-4 -29 -19.5 -42.5t-36.5 -29.5q-45 -37 -73.5 -61.5t-48 -41t-32 -26.5t-22.5 -21q-16 -14 -30.5 -28.5t-36.5 -7.5q-20 4 -37 22.5t-11 40.5z" />
<glyph unicode="(" horiz-adv-x="710" d="M65.5 -108.5q-2.5 49.5 2.5 90.5q10 104 49 203.5t96 188.5t129 169t150 147q43 37 125.5 99.5t174 126t172 111.5t117.5 58q20 6 36 -4t27 -28.5t15 -39t2 -34.5q-4 -16 -20.5 -24.5t-28.5 -14.5q-166 -98 -311.5 -197.5t-270.5 -222.5q-74 -74 -139 -156.5t-112 -177.5 q-45 -90 -61.5 -190t11.5 -197q12 -49 37 -88q8 -16 10.5 -25.5t-4.5 -25.5q-6 -14 -20 -28.5t-30.5 -22.5t-34 -8t-31.5 16q-31 37 -50.5 82t-28.5 94t-11.5 98.5z" />
<glyph unicode=")" horiz-adv-x="739" d="M-440 -309q4 16 19 24.5t30 16.5q172 98 315.5 197.5t265.5 222.5q74 74 138.5 155.5t111.5 175.5q63 127 66.5 249t-51.5 226q-16 25 -6 52q6 14 19 28.5t30.5 22.5t35 7t31.5 -15q31 -35 50.5 -81t28.5 -95.5t11 -98.5t-2 -90q-10 -106 -49 -204.5t-96 -187.5 t-130 -169t-151 -147q-127 -111 -256 -198t-262 -161q-18 -12 -35.5 -21.5t-34 -12.5t-32 3.5t-29.5 26.5q-24 35 -18 74z" />
<glyph unicode="*" horiz-adv-x="907" d="M269 659.5q-1 16.5 4.5 32t11.5 25.5q10 10 23.5 11t27.5 1q41 4 81 4h81q-4 10 -8.5 26.5t-20.5 76.5q-4 10 -7 26.5t5 26.5q16 23 46.5 24.5t53.5 -8.5q12 -6 15.5 -20.5t7.5 -26.5l20 -70q6 6 12.5 11.5l19.5 16.5t33.5 28.5t53.5 46.5q12 10 28.5 25.5t35.5 19.5 q37 4 61.5 -29t22.5 -65q-2 -16 -15.5 -27.5t-25.5 -21.5l-74 -62q16 -2 30.5 -2h30.5t36 -1t30 -13q23 -25 18.5 -63t-26.5 -60q-12 -10 -27.5 -9t-32.5 1q-37 4 -72.5 6t-70.5 2q4 -10 10 -27.5t29 -70.5q4 -10 4 -18.5t-6 -18.5q-14 -20 -40 -31.5t-50 -1.5 q-10 4 -13.5 10t-7.5 17q-8 14 -16 34.5t-29 69.5l-129 -111q-12 -10 -25.5 -23t-27.5 -20q-14 -6 -29.5 0.5t-27 17.5t-18.5 26.5t-7 27.5q0 16 12 26.5t23 20.5l82 82q-53 4 -78 3t-37 5q-14 6 -20.5 19.5t-7.5 30z" />
<glyph unicode="+" horiz-adv-x="901" d="M46 294q-5 34 5 56q8 16 20.5 18.5t26.5 4.5q98 16 151.5 23t96.5 12q12 23 30.5 52t67.5 101q10 12 19.5 28.5t25.5 24.5q29 14 57 -9t32 -50q4 -14 -5.5 -26.5t-17.5 -22.5q-10 -14 -21.5 -31.5t-29.5 -48.5l110 10q16 2 39 5t39 -7q16 -8 23.5 -24.5t7.5 -35t-5 -37 t-13 -28.5q-10 -12 -28 -13t-32 -3q-10 0 -22.5 -1t-36 -2t-64.5 -5t-108 -11q-57 -88 -97 -176q-4 -10 -10 -18t-16 -12q-27 -10 -54.5 3t-37.5 40q-4 12 2 24t10 23l53 106q-12 0 -32.5 -2t-86.5 -8q-16 -2 -33.5 -4t-31.5 2q-29 8 -34 42z" />
<glyph unicode="," horiz-adv-x="528" d="M-139 -156q0 12 7 23.5t15 21.5q61 84 108.5 131.5t94.5 83.5q12 10 24.5 19.5t28.5 11.5q20 2 35.5 -7t26 -24.5t14.5 -35t0 -35.5q-6 -23 -26.5 -36t-36.5 -26q-12 -10 -25.5 -21t-34 -28.5t-48.5 -44.5t-67 -70q-16 -16 -31.5 -25t-37.5 1q-20 6 -34.5 22.5 t-12.5 38.5z" />
<glyph unicode="-" horiz-adv-x="704" d="M145.5 288.5q-2.5 24.5 10.5 43.5q10 20 35.5 23t46.5 7q63 12 125.5 21.5t125.5 13.5q16 2 33 5.5t33 -1.5q12 -4 19.5 -11t13.5 -17q29 -54 -8 -101q-10 -14 -37 -14q-6 0 -17.5 -1t-41 -4t-87 -7t-157.5 -10q-23 -2 -41.5 -3.5t-34.5 15.5q-16 16 -18.5 40.5z" />
<glyph unicode="." horiz-adv-x="483" d="M20 -14q-37 55 11 102q20 20 49 37.5t57 7.5q31 -10 48.5 -39.5t13.5 -62.5q-2 -12 -13.5 -25.5t-25 -25t-28.5 -19.5t-23 -10q-23 -6 -48.5 5t-40.5 30z" />
<glyph unicode="/" horiz-adv-x="866" d="M-158 -202.5q4 14.5 15 28.5q35 57 79 108.5t87 100.5q135 152 277 291t296 274q121 104 227.5 192.5t216.5 157.5q14 10 29.5 19.5t32.5 5.5q16 -2 30.5 -13.5t23.5 -26.5t12 -32t-1 -29q-4 -16 -18 -26t-29 -21q-143 -94 -269 -203.5t-249 -220.5 q-174 -160 -327.5 -310t-276.5 -318q-12 -16 -23.5 -33.5t-31.5 -26.5q-31 -10 -60.5 5.5t-40.5 46.5q-4 16 0 30.5z" />
<glyph unicode="0" d="M35 813q70 37 137.5 67.5t144.5 53.5q4 0 8.5 20.5t8.5 45t8 48t8 31.5q23 35 68 53.5t78 34.5q88 35 179 61.5t183 51.5q94 23 188.5 39t190.5 24q33 4 80 8.5t95 3.5t92 -12.5t71 -37.5q2 -4 -2 -29t-6 -33l-6 -98q0 -4 4 -4q78 -23 152.5 -58.5t123.5 -103.5v-2 q-16 4 -36.5 -3t-41 -20.5t-38 -28t-27.5 -26.5q31 -16 50 -47t27.5 -66.5t6.5 -72.5t-13 -68q-16 43 -49.5 66.5t-74.5 35t-85 14.5t-83 5q-45 4 -94.5 2t-92.5 14q-16 6 -22 25.5t-7 43t2 46.5t5 37q-184 -14 -363.5 -56t-351.5 -102q-8 -2 -8 -6q2 -10 8 -33.5t10 -50.5 t6 -49.5t-6 -28.5q-23 -18 -58.5 -21t-64.5 -7q-39 -6 -78.5 -12.5t-78.5 -12.5q-35 -8 -67 -17.5t-62 -21.5q-14 -8 -28.5 -13t-29.5 -16q-8 -8 -18 -20t-17 -16q10 35 24.5 67.5t27.5 63.5q2 6 13 25.5t21.5 41t18.5 39t6 21.5q-25 35 -58.5 67.5t-78.5 36.5zM86 -133h47 q4 -41 7 -83t12 -83q4 41 10 83t14 83h37l25 -166q4 41 9 83t9 83h43l-43 -223h-43q-6 37 -11 73.5t-9 73.5q-4 -37 -11.5 -73.5t-13.5 -73.5h-43zM90 819q68 -37 109 -108q2 -2 -4.5 -15.5t-14.5 -29t-15 -28.5t-9 -20q-25 -45 -41 -94q51 27 104 39t108.5 20.5t110 15.5 t107.5 24q-18 18 -47 25t-62 8t-65.5 -2t-55.5 -5v131t4 131q-59 -16 -116.5 -39.5t-112.5 -52.5zM305 -133h45q4 -41 8 -83t11 -83q4 41 10 83t14 83h39l23 -166q4 41 9 83t9 83h43l-43 -223h-41q-8 37 -13 73.5t-9 73.5q-4 -37 -10.5 -73.5t-12.5 -73.5h-45zM342 709 q8 0 22.5 6t29 15t27.5 18.5t23 13.5q37 16 75 29.5t77 27.5q78 23 155.5 43.5t159.5 38.5q78 16 155 31.5t157 21.5q72 8 154.5 11.5t152.5 -29.5q6 55 6 112.5t4 110.5q0 29 2 57.5t6 57.5q2 14 -6 22.5t-20.5 13.5t-26.5 7t-27 4q-119 18 -245.5 1t-245.5 -42 q-129 -27 -255 -60.5t-249 -86.5q-23 -12 -46.5 -24.5t-43.5 -29.5q-20 -16 -24.5 -49t-8.5 -55q-8 -66 -8 -132.5v-133.5zM367 825q0 23 15 38.5t36 19.5q6 2 15 -2t5 -15q-12 -8 -22 -8q-12 -4 -16.5 -16.5t1.5 -22.5q4 -4 8.5 -5t8.5 -3q20 -2 33.5 11.5t22.5 34t13.5 41 t8.5 34.5q-27 -27 -62 -35q-27 -4 -43 12q-16 8 -16 37q0 27 12 51q27 61 86 99q12 6 25.5 12t27.5 10q10 4 21.5 12.5t21.5 10.5q12 -1 6 -13q12 0 21 -2q16 -2 27.5 -15t13.5 -32q6 -43 -23.5 -83t-66.5 -62q-18 -12 -27.5 -31.5t-18.5 -39t-20.5 -38t-34.5 -28.5 q-23 -16 -53 -11q-12 4 -20 14.5t-6 24.5zM405.5 937q2.5 -15 22.5 -15q31 0 49.5 19.5t30.5 47t18.5 58.5t10.5 51q-29 -6 -52.5 -23.5t-44.5 -38.5q-6 -6 -15 -25.5t-15.5 -39t-4 -34.5zM522 -133h45q4 -41 9.5 -83t9.5 -83q4 41 10 83t14 83h39l25 -166q2 41 7 83t11 83 h41l-41 -223h-43q-8 37 -12 73.5t-10 73.5q-4 -37 -10.5 -73.5t-12.5 -73.5h-43zM530 950q14 4 29.5 19.5t26 35t14.5 40t0 34.5q-6 23 -33 23q-14 -37 -20.5 -75t-16.5 -77zM582 138q2 34 2 61q0 20 -1 38.5t1 38.5q0 49 26.5 67.5t73.5 18.5q37 0 54.5 -20t23.5 -50 t4 -63.5t-2 -60.5v-80q0 -47 -26.5 -66.5t-71.5 -17.5q-39 0 -56.5 20.5t-23.5 50t-4 63.5zM628 952.5q-5 20.5 6 46t31.5 46t43.5 22.5q12 0 16 -10q8 -12 2 -29q-6 -23 -27.5 -40t-44.5 -21q2 -12 10.5 -13.5t17.5 3t17.5 10.5t12.5 10q25 20 36 46t21 52q2 2 -1 9.5 t-8 15.5t-8 17t-1 16q10 27 34 22q12 0 17 -12q4 -10 2 -22.5t-2 -24.5q20 2 28.5 -1t-4.5 -28q-8 -16 -17 -33.5t-11 -36.5q0 -10 6 -10q20 0 34.5 20.5t26 46t22.5 51t25 34.5q8 2 17 -2q2 -4 2 -13q-4 -12 -10.5 -21t-1.5 -24q6 -12 13 -25.5t5 -27.5h2q20 25 32.5 60.5 t45.5 52.5q37 14 49 -21q10 -14 6 -25.5t-2 -27.5q8 2 14 10q16 12 18.5 35t8.5 41q4 4 11 5t12 -1q10 -2 8 -12v-2q10 10 24 16q10 6 17.5 2t11.5 -14q4 -12 1 -22.5t-8 -21.5t-10 -22.5t-3 -23.5q14 12 24 26.5t18.5 29.5t17.5 28.5t26 23.5q20 10 51 0q4 6 17 8.5 t9 -14.5q-4 -18 -14 -38.5t-10 -41.5q0 -14 8 -2q20 20 30.5 48t19.5 55.5t23.5 53t43.5 42.5q14 8 24 -8q12 -23 4 -48.5t-24 -41.5q-14 -18 -43 -44t-25 -53q4 -16 23 -12q14 6 21 19.5t16 25.5q4 2 12 2t8 -10l-4 -12q-16 -39 -53 -54q-25 -14 -43 15q-4 4 -4 10 q-10 -8 -16.5 -15.5t-18.5 -11.5q-10 -4 -16.5 0t-12.5 8q-4 -4 -12 -8t-16 -6q-31 -6 -43 21v2q-8 -10 -17.5 -17.5t-23.5 -11.5q-14 -8 -25 12q-6 12 -3 23.5t8 22t9 21.5t2 23q-18 -8 -25 -19t-11.5 -25.5t-6.5 -29t-8 -28.5q-6 -16 -24 -8q-8 2 -9 10q0 4 1 9t1 7 q-14 -4 -19 -4t-15 -10t-24.5 -18.5t-31.5 -8.5q-10 2 -16 8.5t-10 14.5q-16 -16 -40 -32.5t-50 -12.5q-16 2 -25 18q-25 -29 -51 -36q-29 -12 -33 20q-4 27 8.5 44t22.5 38q2 4 -3 5t-7 -3q-8 -20 -18.5 -44t-26 -45.5t-36 -34.5t-46.5 -11q-31 2 -36 22.5zM638 163 q-1 -38 1 -75q0 -16 9 -26.5t21.5 -14.5t24 1t15.5 24q2 12 2 27.5v29.5v147q0 16 -10.5 27.5t-22.5 16t-23.5 -2t-15.5 -22.5q-2 -14 -1 -29.5t1 -27.5q0 -37 -1 -75zM653 416q12 14 15.5 36.5t2.5 48t-4 49t-3 42.5v125q0 16 1 30.5t-12 28.5h76q-14 -12 -12 -32.5 t2 -36.5v-142q0 -16 -2 -49t10 -47q14 -23 37.5 -8.5t28.5 33.5q8 27 2.5 54t-9.5 54q-4 14 -10 38t-8 48.5t2 46t21 33.5q10 10 31.5 10t29.5 -16q6 -16 -2 -21.5t-18.5 -4.5t-17.5 8.5t1 15.5q-16 -8 -17 -28.5t6 -44t17 -46.5t15 -35q12 -37 17 -87t-22 -85 q-10 -14 -33.5 -19t-50 -5t-53 3t-41.5 3zM655 987q12 -2 28.5 15.5t18.5 27.5q4 8 -2 12.5t-12 -2.5q-10 -10 -18.5 -24.5t-14.5 -28.5zM715 -328q0 14 9 22.5t21.5 8.5t21.5 -8t9 -23q0 -16 -9 -23t-21.5 -7t-21.5 7t-9 23zM776 1124q-2 -8 4 -20h4q0 8 1 13t-1 13 q-6 0 -8 -6zM780 4q10 14 13.5 34.5t2.5 44t-4.5 46.5t-3.5 39v172q0 10 -8 22h58q29 -12 51 -50t35 -66q0 25 2 59.5t-13 56.5h74q-12 -10 -11 -24t1 -29v-246q0 -14 -1 -31.5t11 -27.5h-207zM797 -356l59 223h64l59 -223h-51l-15 51h-53l-10 -51h-53zM844 47 q0 -14 11 -23.5t25.5 -11.5t28 3.5t15.5 19.5q-4 63 -21.5 127.5t-58.5 116.5v-232zM865 506.5q-3 19.5 7 32.5q10 12 33 13t27 -22q0 -10 -7 -15t-15.5 -5t-14.5 4t-6 14q-12 -4 -12 -14t7 -20.5t17 -19.5t17 -11q14 -4 34.5 -4t30.5 10q20 20 16 40.5t-19 38t-35.5 32 t-31.5 24.5q-18 16 -30.5 42t-12.5 52.5t13.5 48t44.5 27.5q27 6 54.5 4t51.5 -2l-6 -10q0 -14 7 -29.5t13.5 -31t5.5 -29.5t-16 -27q-14 -10 -33.5 -9t-21.5 22q0 12 7 17t15.5 5t14.5 -5t4 -13q14 2 14 12t-8 21.5t-18.5 20.5t-18.5 11q-14 4 -32.5 1t-24.5 -19 q-12 -25 -4 -43.5t24.5 -32.5t37 -27.5t32.5 -27.5q14 -20 22.5 -47t4.5 -52.5t-20.5 -44t-47.5 -22.5q-27 -2 -53.5 -1t-54.5 1q8 4 5 19.5t-8.5 33.5t-8.5 37.5zM866 -266h41q-4 23 -9 46t-11 46zM874 1014q4 -12 16.5 -10t14.5 14q2 18 -10 43q-6 -8 -14.5 -22.5 t-6.5 -24.5zM991 1059l4 -15q10 -14 25 -6q16 4 23.5 21.5t3.5 34.5q-2 10 -9.5 16t-21.5 -4q-20 -14 -25 -47zM997 4q12 14 15.5 36.5t2.5 47.5t-4 48.5t-3 39.5v127q0 16 1 29.5t-12 29.5h76q-10 -10 -13 -30.5t-2 -42t3 -43t2 -35.5v-166h104q23 0 55.5 -3t55.5 13 q-4 -8 -7 -29.5t-14 -21.5h-260zM1006 -135q29 4 64.5 6t62.5 -14q31 -23 22.5 -58t-37.5 -49q14 -6 21.5 -19.5t10.5 -28.5t5 -30.5t8 -27.5h-51q-6 12 -8 27.5t-6 28.5t-12.5 22.5t-26.5 7.5v-86h-53v221zM1057 -196.5q2 -24.5 2 -34.5h12q18 0 26.5 10t6.5 22.5 t-11.5 21.5t-27.5 7q-10 -2 -8 -26.5zM1065 416q10 12 11 25.5t1 27.5v248q0 14 -1 30.5t-11 28.5h127q25 -25 25.5 -59.5t-9.5 -67.5q-4 -8 -15 -29.5t-20.5 -45t-11.5 -45t10 -27.5q-6 12 4.5 13t21.5 -4t14 -14.5t-17 -17.5q-25 -10 -35 9.5t-8 35.5q0 16 6 32.5t8 31 t-4 22.5t-28 6v-155q16 0 41.5 -3t44.5 11q-6 -14 -8.5 -26.5t-6.5 -26.5h-139zM1098 362h78q-12 -29 2 -65.5t26 -60.5q12 29 22.5 62.5t0.5 63.5h80q-23 -12 -27 -38.5t-10 -47.5q-6 -20 -23.5 -47.5t-17.5 -48.5q0 -23 -3 -56.5t13 -51.5h-76q18 18 14.5 53.5t-3.5 58.5 q-12 23 -21.5 46.5t-17.5 45.5q-10 23 -14.5 46.5t-22.5 39.5zM1133 662q20 0 45.5 2t27.5 32q0 16 -7 23.5t-18.5 10.5t-24.5 3h-23v-71zM1192 -133h53v-223h-53v223zM1245 1092q-4 -10 1 -27.5t22 -3.5q12 12 21 33t11 39q-2 8 -4 13t-12 1q-16 -8 -25.5 -23.5 t-13.5 -31.5zM1274 -328q0 14 9 22.5t21.5 8.5t21.5 -8t9 -23q0 -16 -9 -23t-21.5 -7t-21.5 7t-9 23zM1294 813q-8 -6 4 -8q27 -10 57.5 -13.5t62.5 -3.5h62.5t59.5 -2t57.5 -5t57.5 -13q29 -8 51.5 -23.5t48.5 -27.5q0 61 -21.5 106t-80.5 68q35 31 69.5 58.5t75.5 43.5 q-49 47 -110.5 77t-126.5 46q-2 -57 -3.5 -112.5t-5.5 -112.5l-2 2v-6q-27 -2 -64.5 -4t-74.5 -9.5t-68.5 -21.5t-48.5 -39zM1364 -133h57l68 -152q-4 39 -4 77v75h47v-223h-51q-20 39 -37 78.5t-35 76.5q2 -39 2 -77.5v-77.5h-47v223zM1393 1157q16 20 31.5 40t19.5 46h-2 q-37 -37 -49 -86zM1562.5 -268q-8.5 37 14.5 80q12 29 40 43t62 14h10.5t17.5 -2t16.5 -4t7.5 -4l-9 -41q-27 12 -48 8t-36.5 -18.5t-20.5 -37t3 -46.5q16 -47 61 -41q10 2 8.5 21.5t-1.5 27.5h-27v41h76v-121q-41 -16 -79 -9t-62.5 29.5t-33 59.5z" />
<glyph unicode="1" d="M35 813q70 37 137.5 67.5t144.5 53.5q4 0 8.5 20.5t8.5 45t8 48t8 31.5q23 35 68 53.5t78 34.5q88 35 179 61.5t183 51.5q94 23 188.5 39t190.5 24q33 4 80 8.5t95 3.5t92 -12.5t71 -37.5q2 -4 -2 -29t-6 -33l-6 -98q0 -4 4 -4q78 -23 152.5 -58.5t123.5 -103.5v-2 q-16 4 -36.5 -3t-41 -20.5t-38 -28t-27.5 -26.5q31 -16 50 -47t27.5 -66.5t6.5 -72.5t-13 -68q-16 43 -49.5 66.5t-74.5 35t-85 14.5t-83 5q-45 4 -94.5 2t-92.5 14q-16 6 -22 25.5t-7 43t2 46.5t5 37q-184 -14 -363.5 -56t-351.5 -102q-8 -2 -8 -6q2 -10 8 -33.5t10 -50.5 t6 -49.5t-6 -28.5q-23 -18 -58.5 -21t-64.5 -7q-39 -6 -78.5 -12.5t-78.5 -12.5q-35 -8 -67 -17.5t-62 -21.5q-14 -8 -28.5 -13t-29.5 -16q-8 -8 -18 -20t-17 -16q10 35 24.5 67.5t27.5 63.5q2 6 13 25.5t21.5 41t18.5 39t6 21.5q-25 35 -58.5 67.5t-78.5 36.5zM86 -133h47 q4 -41 7 -83t12 -83q4 41 10 83t14 83h37l25 -166q4 41 9 83t9 83h43l-43 -223h-43q-6 37 -11 73.5t-9 73.5q-4 -37 -11.5 -73.5t-13.5 -73.5h-43zM90 819q68 -37 109 -108q2 -2 -4.5 -15.5t-14.5 -29t-15 -28.5t-9 -20q-25 -45 -41 -94q51 27 104 39t108.5 20.5t110 15.5 t107.5 24q-18 18 -47 25t-62 8t-65.5 -2t-55.5 -5v131t4 131q-59 -16 -116.5 -39.5t-112.5 -52.5zM305 -133h45q4 -41 8 -83t11 -83q4 41 10 83t14 83h39l23 -166q4 41 9 83t9 83h43l-43 -223h-41q-8 37 -13 73.5t-9 73.5q-4 -37 -10.5 -73.5t-12.5 -73.5h-45zM342 709 q8 0 22.5 6t29 15t27.5 18.5t23 13.5q37 16 75 29.5t77 27.5q78 23 155.5 43.5t159.5 38.5q78 16 155 31.5t157 21.5q72 8 154.5 11.5t152.5 -29.5q6 55 6 112.5t4 110.5q0 29 2 57.5t6 57.5q2 14 -6 22.5t-20.5 13.5t-26.5 7t-27 4q-119 18 -245.5 1t-245.5 -42 q-129 -27 -255 -60.5t-249 -86.5q-23 -12 -46.5 -24.5t-43.5 -29.5q-20 -16 -24.5 -49t-8.5 -55q-8 -66 -8 -132.5v-133.5zM367 825q0 23 15 38.5t36 19.5q6 2 15 -2t5 -15q-12 -8 -22 -8q-12 -4 -16.5 -16.5t1.5 -22.5q4 -4 8.5 -5t8.5 -3q20 -2 33.5 11.5t22.5 34t13.5 41 t8.5 34.5q-27 -27 -62 -35q-27 -4 -43 12q-16 8 -16 37q0 27 12 51q27 61 86 99q12 6 25.5 12t27.5 10q10 4 21.5 12.5t21.5 10.5q12 -1 6 -13q12 0 21 -2q16 -2 27.5 -15t13.5 -32q6 -43 -23.5 -83t-66.5 -62q-18 -12 -27.5 -31.5t-18.5 -39t-20.5 -38t-34.5 -28.5 q-23 -16 -53 -11q-12 4 -20 14.5t-6 24.5zM405.5 937q2.5 -15 22.5 -15q31 0 49.5 19.5t30.5 47t18.5 58.5t10.5 51q-29 -6 -52.5 -23.5t-44.5 -38.5q-6 -6 -15 -25.5t-15.5 -39t-4 -34.5zM522 -133h45q4 -41 9.5 -83t9.5 -83q4 41 10 83t14 83h39l25 -166q2 41 7 83t11 83 h41l-41 -223h-43q-8 37 -12 73.5t-10 73.5q-4 -37 -10.5 -73.5t-12.5 -73.5h-43zM530 950q14 4 29.5 19.5t26 35t14.5 40t0 34.5q-6 23 -33 23q-14 -37 -20.5 -75t-16.5 -77zM582 138q2 34 2 61q0 20 -1 38.5t1 38.5q0 49 26.5 67.5t73.5 18.5q37 0 54.5 -20t23.5 -50 t4 -63.5t-2 -60.5v-80q0 -47 -26.5 -66.5t-71.5 -17.5q-39 0 -56.5 20.5t-23.5 50t-4 63.5zM628 952.5q-5 20.5 6 46t31.5 46t43.5 22.5q12 0 16 -10q8 -12 2 -29q-6 -23 -27.5 -40t-44.5 -21q2 -12 10.5 -13.5t17.5 3t17.5 10.5t12.5 10q25 20 36 46t21 52q2 2 -1 9.5 t-8 15.5t-8 17t-1 16q10 27 34 22q12 0 17 -12q4 -10 2 -22.5t-2 -24.5q20 2 28.5 -1t-4.5 -28q-8 -16 -17 -33.5t-11 -36.5q0 -10 6 -10q20 0 34.5 20.5t26 46t22.5 51t25 34.5q8 2 17 -2q2 -4 2 -13q-4 -12 -10.5 -21t-1.5 -24q6 -12 13 -25.5t5 -27.5h2q20 25 32.5 60.5 t45.5 52.5q37 14 49 -21q10 -14 6 -25.5t-2 -27.5q8 2 14 10q16 12 18.5 35t8.5 41q4 4 11 5t12 -1q10 -2 8 -12v-2q10 10 24 16q10 6 17.5 2t11.5 -14q4 -12 1 -22.5t-8 -21.5t-10 -22.5t-3 -23.5q14 12 24 26.5t18.5 29.5t17.5 28.5t26 23.5q20 10 51 0q4 6 17 8.5 t9 -14.5q-4 -18 -14 -38.5t-10 -41.5q0 -14 8 -2q20 20 30.5 48t19.5 55.5t23.5 53t43.5 42.5q14 8 24 -8q12 -23 4 -48.5t-24 -41.5q-14 -18 -43 -44t-25 -53q4 -16 23 -12q14 6 21 19.5t16 25.5q4 2 12 2t8 -10l-4 -12q-16 -39 -53 -54q-25 -14 -43 15q-4 4 -4 10 q-10 -8 -16.5 -15.5t-18.5 -11.5q-10 -4 -16.5 0t-12.5 8q-4 -4 -12 -8t-16 -6q-31 -6 -43 21v2q-8 -10 -17.5 -17.5t-23.5 -11.5q-14 -8 -25 12q-6 12 -3 23.5t8 22t9 21.5t2 23q-18 -8 -25 -19t-11.5 -25.5t-6.5 -29t-8 -28.5q-6 -16 -24 -8q-8 2 -9 10q0 4 1 9t1 7 q-14 -4 -19 -4t-15 -10t-24.5 -18.5t-31.5 -8.5q-10 2 -16 8.5t-10 14.5q-16 -16 -40 -32.5t-50 -12.5q-16 2 -25 18q-25 -29 -51 -36q-29 -12 -33 20q-4 27 8.5 44t22.5 38q2 4 -3 5t-7 -3q-8 -20 -18.5 -44t-26 -45.5t-36 -34.5t-46.5 -11q-31 2 -36 22.5zM638 163 q-1 -38 1 -75q0 -16 9 -26.5t21.5 -14.5t24 1t15.5 24q2 12 2 27.5v29.5v147q0 16 -10.5 27.5t-22.5 16t-23.5 -2t-15.5 -22.5q-2 -14 -1 -29.5t1 -27.5q0 -37 -1 -75zM653 416q12 14 15.5 36.5t2.5 48t-4 49t-3 42.5v125q0 16 1 30.5t-12 28.5h76q-14 -12 -12 -32.5 t2 -36.5v-142q0 -16 -2 -49t10 -47q14 -23 37.5 -8.5t28.5 33.5q8 27 2.5 54t-9.5 54q-4 14 -10 38t-8 48.5t2 46t21 33.5q10 10 31.5 10t29.5 -16q6 -16 -2 -21.5t-18.5 -4.5t-17.5 8.5t1 15.5q-16 -8 -17 -28.5t6 -44t17 -46.5t15 -35q12 -37 17 -87t-22 -85 q-10 -14 -33.5 -19t-50 -5t-53 3t-41.5 3zM655 987q12 -2 28.5 15.5t18.5 27.5q4 8 -2 12.5t-12 -2.5q-10 -10 -18.5 -24.5t-14.5 -28.5zM715 -328q0 14 9 22.5t21.5 8.5t21.5 -8t9 -23q0 -16 -9 -23t-21.5 -7t-21.5 7t-9 23zM776 1124q-2 -8 4 -20h4q0 8 1 13t-1 13 q-6 0 -8 -6zM780 4q10 14 13.5 34.5t2.5 44t-4.5 46.5t-3.5 39v172q0 10 -8 22h58q29 -12 51 -50t35 -66q0 25 2 59.5t-13 56.5h74q-12 -10 -11 -24t1 -29v-246q0 -14 -1 -31.5t11 -27.5h-207zM797 -356l59 223h64l59 -223h-51l-15 51h-53l-10 -51h-53zM844 47 q0 -14 11 -23.5t25.5 -11.5t28 3.5t15.5 19.5q-4 63 -21.5 127.5t-58.5 116.5v-232zM865 506.5q-3 19.5 7 32.5q10 12 33 13t27 -22q0 -10 -7 -15t-15.5 -5t-14.5 4t-6 14q-12 -4 -12 -14t7 -20.5t17 -19.5t17 -11q14 -4 34.5 -4t30.5 10q20 20 16 40.5t-19 38t-35.5 32 t-31.5 24.5q-18 16 -30.5 42t-12.5 52.5t13.5 48t44.5 27.5q27 6 54.5 4t51.5 -2l-6 -10q0 -14 7 -29.5t13.5 -31t5.5 -29.5t-16 -27q-14 -10 -33.5 -9t-21.5 22q0 12 7 17t15.5 5t14.5 -5t4 -13q14 2 14 12t-8 21.5t-18.5 20.5t-18.5 11q-14 4 -32.5 1t-24.5 -19 q-12 -25 -4 -43.5t24.5 -32.5t37 -27.5t32.5 -27.5q14 -20 22.5 -47t4.5 -52.5t-20.5 -44t-47.5 -22.5q-27 -2 -53.5 -1t-54.5 1q8 4 5 19.5t-8.5 33.5t-8.5 37.5zM866 -266h41q-4 23 -9 46t-11 46zM874 1014q4 -12 16.5 -10t14.5 14q2 18 -10 43q-6 -8 -14.5 -22.5 t-6.5 -24.5zM991 1059l4 -15q10 -14 25 -6q16 4 23.5 21.5t3.5 34.5q-2 10 -9.5 16t-21.5 -4q-20 -14 -25 -47zM997 4q12 14 15.5 36.5t2.5 47.5t-4 48.5t-3 39.5v127q0 16 1 29.5t-12 29.5h76q-10 -10 -13 -30.5t-2 -42t3 -43t2 -35.5v-166h104q23 0 55.5 -3t55.5 13 q-4 -8 -7 -29.5t-14 -21.5h-260zM1006 -135q29 4 64.5 6t62.5 -14q31 -23 22.5 -58t-37.5 -49q14 -6 21.5 -19.5t10.5 -28.5t5 -30.5t8 -27.5h-51q-6 12 -8 27.5t-6 28.5t-12.5 22.5t-26.5 7.5v-86h-53v221zM1057 -196.5q2 -24.5 2 -34.5h12q18 0 26.5 10t6.5 22.5 t-11.5 21.5t-27.5 7q-10 -2 -8 -26.5zM1065 416q10 12 11 25.5t1 27.5v248q0 14 -1 30.5t-11 28.5h127q25 -25 25.5 -59.5t-9.5 -67.5q-4 -8 -15 -29.5t-20.5 -45t-11.5 -45t10 -27.5q-6 12 4.5 13t21.5 -4t14 -14.5t-17 -17.5q-25 -10 -35 9.5t-8 35.5q0 16 6 32.5t8 31 t-4 22.5t-28 6v-155q16 0 41.5 -3t44.5 11q-6 -14 -8.5 -26.5t-6.5 -26.5h-139zM1098 362h78q-12 -29 2 -65.5t26 -60.5q12 29 22.5 62.5t0.5 63.5h80q-23 -12 -27 -38.5t-10 -47.5q-6 -20 -23.5 -47.5t-17.5 -48.5q0 -23 -3 -56.5t13 -51.5h-76q18 18 14.5 53.5t-3.5 58.5 q-12 23 -21.5 46.5t-17.5 45.5q-10 23 -14.5 46.5t-22.5 39.5zM1133 662q20 0 45.5 2t27.5 32q0 16 -7 23.5t-18.5 10.5t-24.5 3h-23v-71zM1192 -133h53v-223h-53v223zM1245 1092q-4 -10 1 -27.5t22 -3.5q12 12 21 33t11 39q-2 8 -4 13t-12 1q-16 -8 -25.5 -23.5 t-13.5 -31.5zM1274 -328q0 14 9 22.5t21.5 8.5t21.5 -8t9 -23q0 -16 -9 -23t-21.5 -7t-21.5 7t-9 23zM1294 813q-8 -6 4 -8q27 -10 57.5 -13.5t62.5 -3.5h62.5t59.5 -2t57.5 -5t57.5 -13q29 -8 51.5 -23.5t48.5 -27.5q0 61 -21.5 106t-80.5 68q35 31 69.5 58.5t75.5 43.5 q-49 47 -110.5 77t-126.5 46q-2 -57 -3.5 -112.5t-5.5 -112.5l-2 2v-6q-27 -2 -64.5 -4t-74.5 -9.5t-68.5 -21.5t-48.5 -39zM1364 -133h57l68 -152q-4 39 -4 77v75h47v-223h-51q-20 39 -37 78.5t-35 76.5q2 -39 2 -77.5v-77.5h-47v223zM1393 1157q16 20 31.5 40t19.5 46h-2 q-37 -37 -49 -86zM1562.5 -268q-8.5 37 14.5 80q12 29 40 43t62 14h10.5t17.5 -2t16.5 -4t7.5 -4l-9 -41q-27 12 -48 8t-36.5 -18.5t-20.5 -37t3 -46.5q16 -47 61 -41q10 2 8.5 21.5t-1.5 27.5h-27v41h76v-121q-41 -16 -79 -9t-62.5 29.5t-33 59.5z" />
<glyph unicode="2" d="M35 813q70 37 137.5 67.5t144.5 53.5q4 0 8.5 20.5t8.5 45t8 48t8 31.5q23 35 68 53.5t78 34.5q88 35 179 61.5t183 51.5q94 23 188.5 39t190.5 24q33 4 80 8.5t95 3.5t92 -12.5t71 -37.5q2 -4 -2 -29t-6 -33l-6 -98q0 -4 4 -4q78 -23 152.5 -58.5t123.5 -103.5v-2 q-16 4 -36.5 -3t-41 -20.5t-38 -28t-27.5 -26.5q31 -16 50 -47t27.5 -66.5t6.5 -72.5t-13 -68q-16 43 -49.5 66.5t-74.5 35t-85 14.5t-83 5q-45 4 -94.5 2t-92.5 14q-16 6 -22 25.5t-7 43t2 46.5t5 37q-184 -14 -363.5 -56t-351.5 -102q-8 -2 -8 -6q2 -10 8 -33.5t10 -50.5 t6 -49.5t-6 -28.5q-23 -18 -58.5 -21t-64.5 -7q-39 -6 -78.5 -12.5t-78.5 -12.5q-35 -8 -67 -17.5t-62 -21.5q-14 -8 -28.5 -13t-29.5 -16q-8 -8 -18 -20t-17 -16q10 35 24.5 67.5t27.5 63.5q2 6 13 25.5t21.5 41t18.5 39t6 21.5q-25 35 -58.5 67.5t-78.5 36.5zM86 -133h47 q4 -41 7 -83t12 -83q4 41 10 83t14 83h37l25 -166q4 41 9 83t9 83h43l-43 -223h-43q-6 37 -11 73.5t-9 73.5q-4 -37 -11.5 -73.5t-13.5 -73.5h-43zM90 819q68 -37 109 -108q2 -2 -4.5 -15.5t-14.5 -29t-15 -28.5t-9 -20q-25 -45 -41 -94q51 27 104 39t108.5 20.5t110 15.5 t107.5 24q-18 18 -47 25t-62 8t-65.5 -2t-55.5 -5v131t4 131q-59 -16 -116.5 -39.5t-112.5 -52.5zM305 -133h45q4 -41 8 -83t11 -83q4 41 10 83t14 83h39l23 -166q4 41 9 83t9 83h43l-43 -223h-41q-8 37 -13 73.5t-9 73.5q-4 -37 -10.5 -73.5t-12.5 -73.5h-45zM342 709 q8 0 22.5 6t29 15t27.5 18.5t23 13.5q37 16 75 29.5t77 27.5q78 23 155.5 43.5t159.5 38.5q78 16 155 31.5t157 21.5q72 8 154.5 11.5t152.5 -29.5q6 55 6 112.5t4 110.5q0 29 2 57.5t6 57.5q2 14 -6 22.5t-20.5 13.5t-26.5 7t-27 4q-119 18 -245.5 1t-245.5 -42 q-129 -27 -255 -60.5t-249 -86.5q-23 -12 -46.5 -24.5t-43.5 -29.5q-20 -16 -24.5 -49t-8.5 -55q-8 -66 -8 -132.5v-133.5zM367 825q0 23 15 38.5t36 19.5q6 2 15 -2t5 -15q-12 -8 -22 -8q-12 -4 -16.5 -16.5t1.5 -22.5q4 -4 8.5 -5t8.5 -3q20 -2 33.5 11.5t22.5 34t13.5 41 t8.5 34.5q-27 -27 -62 -35q-27 -4 -43 12q-16 8 -16 37q0 27 12 51q27 61 86 99q12 6 25.5 12t27.5 10q10 4 21.5 12.5t21.5 10.5q12 -1 6 -13q12 0 21 -2q16 -2 27.5 -15t13.5 -32q6 -43 -23.5 -83t-66.5 -62q-18 -12 -27.5 -31.5t-18.5 -39t-20.5 -38t-34.5 -28.5 q-23 -16 -53 -11q-12 4 -20 14.5t-6 24.5zM405.5 937q2.5 -15 22.5 -15q31 0 49.5 19.5t30.5 47t18.5 58.5t10.5 51q-29 -6 -52.5 -23.5t-44.5 -38.5q-6 -6 -15 -25.5t-15.5 -39t-4 -34.5zM522 -133h45q4 -41 9.5 -83t9.5 -83q4 41 10 83t14 83h39l25 -166q2 41 7 83t11 83 h41l-41 -223h-43q-8 37 -12 73.5t-10 73.5q-4 -37 -10.5 -73.5t-12.5 -73.5h-43zM530 950q14 4 29.5 19.5t26 35t14.5 40t0 34.5q-6 23 -33 23q-14 -37 -20.5 -75t-16.5 -77zM582 138q2 34 2 61q0 20 -1 38.5t1 38.5q0 49 26.5 67.5t73.5 18.5q37 0 54.5 -20t23.5 -50 t4 -63.5t-2 -60.5v-80q0 -47 -26.5 -66.5t-71.5 -17.5q-39 0 -56.5 20.5t-23.5 50t-4 63.5zM628 952.5q-5 20.5 6 46t31.5 46t43.5 22.5q12 0 16 -10q8 -12 2 -29q-6 -23 -27.5 -40t-44.5 -21q2 -12 10.5 -13.5t17.5 3t17.5 10.5t12.5 10q25 20 36 46t21 52q2 2 -1 9.5 t-8 15.5t-8 17t-1 16q10 27 34 22q12 0 17 -12q4 -10 2 -22.5t-2 -24.5q20 2 28.5 -1t-4.5 -28q-8 -16 -17 -33.5t-11 -36.5q0 -10 6 -10q20 0 34.5 20.5t26 46t22.5 51t25 34.5q8 2 17 -2q2 -4 2 -13q-4 -12 -10.5 -21t-1.5 -24q6 -12 13 -25.5t5 -27.5h2q20 25 32.5 60.5 t45.5 52.5q37 14 49 -21q10 -14 6 -25.5t-2 -27.5q8 2 14 10q16 12 18.5 35t8.5 41q4 4 11 5t12 -1q10 -2 8 -12v-2q10 10 24 16q10 6 17.5 2t11.5 -14q4 -12 1 -22.5t-8 -21.5t-10 -22.5t-3 -23.5q14 12 24 26.5t18.5 29.5t17.5 28.5t26 23.5q20 10 51 0q4 6 17 8.5 t9 -14.5q-4 -18 -14 -38.5t-10 -41.5q0 -14 8 -2q20 20 30.5 48t19.5 55.5t23.5 53t43.5 42.5q14 8 24 -8q12 -23 4 -48.5t-24 -41.5q-14 -18 -43 -44t-25 -53q4 -16 23 -12q14 6 21 19.5t16 25.5q4 2 12 2t8 -10l-4 -12q-16 -39 -53 -54q-25 -14 -43 15q-4 4 -4 10 q-10 -8 -16.5 -15.5t-18.5 -11.5q-10 -4 -16.5 0t-12.5 8q-4 -4 -12 -8t-16 -6q-31 -6 -43 21v2q-8 -10 -17.5 -17.5t-23.5 -11.5q-14 -8 -25 12q-6 12 -3 23.5t8 22t9 21.5t2 23q-18 -8 -25 -19t-11.5 -25.5t-6.5 -29t-8 -28.5q-6 -16 -24 -8q-8 2 -9 10q0 4 1 9t1 7 q-14 -4 -19 -4t-15 -10t-24.5 -18.5t-31.5 -8.5q-10 2 -16 8.5t-10 14.5q-16 -16 -40 -32.5t-50 -12.5q-16 2 -25 18q-25 -29 -51 -36q-29 -12 -33 20q-4 27 8.5 44t22.5 38q2 4 -3 5t-7 -3q-8 -20 -18.5 -44t-26 -45.5t-36 -34.5t-46.5 -11q-31 2 -36 22.5zM638 163 q-1 -38 1 -75q0 -16 9 -26.5t21.5 -14.5t24 1t15.5 24q2 12 2 27.5v29.5v147q0 16 -10.5 27.5t-22.5 16t-23.5 -2t-15.5 -22.5q-2 -14 -1 -29.5t1 -27.5q0 -37 -1 -75zM653 416q12 14 15.5 36.5t2.5 48t-4 49t-3 42.5v125q0 16 1 30.5t-12 28.5h76q-14 -12 -12 -32.5 t2 -36.5v-142q0 -16 -2 -49t10 -47q14 -23 37.5 -8.5t28.5 33.5q8 27 2.5 54t-9.5 54q-4 14 -10 38t-8 48.5t2 46t21 33.5q10 10 31.5 10t29.5 -16q6 -16 -2 -21.5t-18.5 -4.5t-17.5 8.5t1 15.5q-16 -8 -17 -28.5t6 -44t17 -46.5t15 -35q12 -37 17 -87t-22 -85 q-10 -14 -33.5 -19t-50 -5t-53 3t-41.5 3zM655 987q12 -2 28.5 15.5t18.5 27.5q4 8 -2 12.5t-12 -2.5q-10 -10 -18.5 -24.5t-14.5 -28.5zM715 -328q0 14 9 22.5t21.5 8.5t21.5 -8t9 -23q0 -16 -9 -23t-21.5 -7t-21.5 7t-9 23zM776 1124q-2 -8 4 -20h4q0 8 1 13t-1 13 q-6 0 -8 -6zM780 4q10 14 13.5 34.5t2.5 44t-4.5 46.5t-3.5 39v172q0 10 -8 22h58q29 -12 51 -50t35 -66q0 25 2 59.5t-13 56.5h74q-12 -10 -11 -24t1 -29v-246q0 -14 -1 -31.5t11 -27.5h-207zM797 -356l59 223h64l59 -223h-51l-15 51h-53l-10 -51h-53zM844 47 q0 -14 11 -23.5t25.5 -11.5t28 3.5t15.5 19.5q-4 63 -21.5 127.5t-58.5 116.5v-232zM865 506.5q-3 19.5 7 32.5q10 12 33 13t27 -22q0 -10 -7 -15t-15.5 -5t-14.5 4t-6 14q-12 -4 -12 -14t7 -20.5t17 -19.5t17 -11q14 -4 34.5 -4t30.5 10q20 20 16 40.5t-19 38t-35.5 32 t-31.5 24.5q-18 16 -30.5 42t-12.5 52.5t13.5 48t44.5 27.5q27 6 54.5 4t51.5 -2l-6 -10q0 -14 7 -29.5t13.5 -31t5.5 -29.5t-16 -27q-14 -10 -33.5 -9t-21.5 22q0 12 7 17t15.5 5t14.5 -5t4 -13q14 2 14 12t-8 21.5t-18.5 20.5t-18.5 11q-14 4 -32.5 1t-24.5 -19 q-12 -25 -4 -43.5t24.5 -32.5t37 -27.5t32.5 -27.5q14 -20 22.5 -47t4.5 -52.5t-20.5 -44t-47.5 -22.5q-27 -2 -53.5 -1t-54.5 1q8 4 5 19.5t-8.5 33.5t-8.5 37.5zM866 -266h41q-4 23 -9 46t-11 46zM874 1014q4 -12 16.5 -10t14.5 14q2 18 -10 43q-6 -8 -14.5 -22.5 t-6.5 -24.5zM991 1059l4 -15q10 -14 25 -6q16 4 23.5 21.5t3.5 34.5q-2 10 -9.5 16t-21.5 -4q-20 -14 -25 -47zM997 4q12 14 15.5 36.5t2.5 47.5t-4 48.5t-3 39.5v127q0 16 1 29.5t-12 29.5h76q-10 -10 -13 -30.5t-2 -42t3 -43t2 -35.5v-166h104q23 0 55.5 -3t55.5 13 q-4 -8 -7 -29.5t-14 -21.5h-260zM1006 -135q29 4 64.5 6t62.5 -14q31 -23 22.5 -58t-37.5 -49q14 -6 21.5 -19.5t10.5 -28.5t5 -30.5t8 -27.5h-51q-6 12 -8 27.5t-6 28.5t-12.5 22.5t-26.5 7.5v-86h-53v221zM1057 -196.5q2 -24.5 2 -34.5h12q18 0 26.5 10t6.5 22.5 t-11.5 21.5t-27.5 7q-10 -2 -8 -26.5zM1065 416q10 12 11 25.5t1 27.5v248q0 14 -1 30.5t-11 28.5h127q25 -25 25.5 -59.5t-9.5 -67.5q-4 -8 -15 -29.5t-20.5 -45t-11.5 -45t10 -27.5q-6 12 4.5 13t21.5 -4t14 -14.5t-17 -17.5q-25 -10 -35 9.5t-8 35.5q0 16 6 32.5t8 31 t-4 22.5t-28 6v-155q16 0 41.5 -3t44.5 11q-6 -14 -8.5 -26.5t-6.5 -26.5h-139zM1098 362h78q-12 -29 2 -65.5t26 -60.5q12 29 22.5 62.5t0.5 63.5h80q-23 -12 -27 -38.5t-10 -47.5q-6 -20 -23.5 -47.5t-17.5 -48.5q0 -23 -3 -56.5t13 -51.5h-76q18 18 14.5 53.5t-3.5 58.5 q-12 23 -21.5 46.5t-17.5 45.5q-10 23 -14.5 46.5t-22.5 39.5zM1133 662q20 0 45.5 2t27.5 32q0 16 -7 23.5t-18.5 10.5t-24.5 3h-23v-71zM1192 -133h53v-223h-53v223zM1245 1092q-4 -10 1 -27.5t22 -3.5q12 12 21 33t11 39q-2 8 -4 13t-12 1q-16 -8 -25.5 -23.5 t-13.5 -31.5zM1274 -328q0 14 9 22.5t21.5 8.5t21.5 -8t9 -23q0 -16 -9 -23t-21.5 -7t-21.5 7t-9 23zM1294 813q-8 -6 4 -8q27 -10 57.5 -13.5t62.5 -3.5h62.5t59.5 -2t57.5 -5t57.5 -13q29 -8 51.5 -23.5t48.5 -27.5q0 61 -21.5 106t-80.5 68q35 31 69.5 58.5t75.5 43.5 q-49 47 -110.5 77t-126.5 46q-2 -57 -3.5 -112.5t-5.5 -112.5l-2 2v-6q-27 -2 -64.5 -4t-74.5 -9.5t-68.5 -21.5t-48.5 -39zM1364 -133h57l68 -152q-4 39 -4 77v75h47v-223h-51q-20 39 -37 78.5t-35 76.5q2 -39 2 -77.5v-77.5h-47v223zM1393 1157q16 20 31.5 40t19.5 46h-2 q-37 -37 -49 -86zM1562.5 -268q-8.5 37 14.5 80q12 29 40 43t62 14h10.5t17.5 -2t16.5 -4t7.5 -4l-9 -41q-27 12 -48 8t-36.5 -18.5t-20.5 -37t3 -46.5q16 -47 61 -41q10 2 8.5 21.5t-1.5 27.5h-27v41h76v-121q-41 -16 -79 -9t-62.5 29.5t-33 59.5z" />
<glyph unicode="3" d="M35 813q70 37 137.5 67.5t144.5 53.5q4 0 8.5 20.5t8.5 45t8 48t8 31.5q23 35 68 53.5t78 34.5q88 35 179 61.5t183 51.5q94 23 188.5 39t190.5 24q33 4 80 8.5t95 3.5t92 -12.5t71 -37.5q2 -4 -2 -29t-6 -33l-6 -98q0 -4 4 -4q78 -23 152.5 -58.5t123.5 -103.5v-2 q-16 4 -36.5 -3t-41 -20.5t-38 -28t-27.5 -26.5q31 -16 50 -47t27.5 -66.5t6.5 -72.5t-13 -68q-16 43 -49.5 66.5t-74.5 35t-85 14.5t-83 5q-45 4 -94.5 2t-92.5 14q-16 6 -22 25.5t-7 43t2 46.5t5 37q-184 -14 -363.5 -56t-351.5 -102q-8 -2 -8 -6q2 -10 8 -33.5t10 -50.5 t6 -49.5t-6 -28.5q-23 -18 -58.5 -21t-64.5 -7q-39 -6 -78.5 -12.5t-78.5 -12.5q-35 -8 -67 -17.5t-62 -21.5q-14 -8 -28.5 -13t-29.5 -16q-8 -8 -18 -20t-17 -16q10 35 24.5 67.5t27.5 63.5q2 6 13 25.5t21.5 41t18.5 39t6 21.5q-25 35 -58.5 67.5t-78.5 36.5zM86 -133h47 q4 -41 7 -83t12 -83q4 41 10 83t14 83h37l25 -166q4 41 9 83t9 83h43l-43 -223h-43q-6 37 -11 73.5t-9 73.5q-4 -37 -11.5 -73.5t-13.5 -73.5h-43zM90 819q68 -37 109 -108q2 -2 -4.5 -15.5t-14.5 -29t-15 -28.5t-9 -20q-25 -45 -41 -94q51 27 104 39t108.5 20.5t110 15.5 t107.5 24q-18 18 -47 25t-62 8t-65.5 -2t-55.5 -5v131t4 131q-59 -16 -116.5 -39.5t-112.5 -52.5zM305 -133h45q4 -41 8 -83t11 -83q4 41 10 83t14 83h39l23 -166q4 41 9 83t9 83h43l-43 -223h-41q-8 37 -13 73.5t-9 73.5q-4 -37 -10.5 -73.5t-12.5 -73.5h-45zM342 709 q8 0 22.5 6t29 15t27.5 18.5t23 13.5q37 16 75 29.5t77 27.5q78 23 155.5 43.5t159.5 38.5q78 16 155 31.5t157 21.5q72 8 154.5 11.5t152.5 -29.5q6 55 6 112.5t4 110.5q0 29 2 57.5t6 57.5q2 14 -6 22.5t-20.5 13.5t-26.5 7t-27 4q-119 18 -245.5 1t-245.5 -42 q-129 -27 -255 -60.5t-249 -86.5q-23 -12 -46.5 -24.5t-43.5 -29.5q-20 -16 -24.5 -49t-8.5 -55q-8 -66 -8 -132.5v-133.5zM367 825q0 23 15 38.5t36 19.5q6 2 15 -2t5 -15q-12 -8 -22 -8q-12 -4 -16.5 -16.5t1.5 -22.5q4 -4 8.5 -5t8.5 -3q20 -2 33.5 11.5t22.5 34t13.5 41 t8.5 34.5q-27 -27 -62 -35q-27 -4 -43 12q-16 8 -16 37q0 27 12 51q27 61 86 99q12 6 25.5 12t27.5 10q10 4 21.5 12.5t21.5 10.5q12 -1 6 -13q12 0 21 -2q16 -2 27.5 -15t13.5 -32q6 -43 -23.5 -83t-66.5 -62q-18 -12 -27.5 -31.5t-18.5 -39t-20.5 -38t-34.5 -28.5 q-23 -16 -53 -11q-12 4 -20 14.5t-6 24.5zM405.5 937q2.5 -15 22.5 -15q31 0 49.5 19.5t30.5 47t18.5 58.5t10.5 51q-29 -6 -52.5 -23.5t-44.5 -38.5q-6 -6 -15 -25.5t-15.5 -39t-4 -34.5zM522 -133h45q4 -41 9.5 -83t9.5 -83q4 41 10 83t14 83h39l25 -166q2 41 7 83t11 83 h41l-41 -223h-43q-8 37 -12 73.5t-10 73.5q-4 -37 -10.5 -73.5t-12.5 -73.5h-43zM530 950q14 4 29.5 19.5t26 35t14.5 40t0 34.5q-6 23 -33 23q-14 -37 -20.5 -75t-16.5 -77zM582 138q2 34 2 61q0 20 -1 38.5t1 38.5q0 49 26.5 67.5t73.5 18.5q37 0 54.5 -20t23.5 -50 t4 -63.5t-2 -60.5v-80q0 -47 -26.5 -66.5t-71.5 -17.5q-39 0 -56.5 20.5t-23.5 50t-4 63.5zM628 952.5q-5 20.5 6 46t31.5 46t43.5 22.5q12 0 16 -10q8 -12 2 -29q-6 -23 -27.5 -40t-44.5 -21q2 -12 10.5 -13.5t17.5 3t17.5 10.5t12.5 10q25 20 36 46t21 52q2 2 -1 9.5 t-8 15.5t-8 17t-1 16q10 27 34 22q12 0 17 -12q4 -10 2 -22.5t-2 -24.5q20 2 28.5 -1t-4.5 -28q-8 -16 -17 -33.5t-11 -36.5q0 -10 6 -10q20 0 34.5 20.5t26 46t22.5 51t25 34.5q8 2 17 -2q2 -4 2 -13q-4 -12 -10.5 -21t-1.5 -24q6 -12 13 -25.5t5 -27.5h2q20 25 32.5 60.5 t45.5 52.5q37 14 49 -21q10 -14 6 -25.5t-2 -27.5q8 2 14 10q16 12 18.5 35t8.5 41q4 4 11 5t12 -1q10 -2 8 -12v-2q10 10 24 16q10 6 17.5 2t11.5 -14q4 -12 1 -22.5t-8 -21.5t-10 -22.5t-3 -23.5q14 12 24 26.5t18.5 29.5t17.5 28.5t26 23.5q20 10 51 0q4 6 17 8.5 t9 -14.5q-4 -18 -14 -38.5t-10 -41.5q0 -14 8 -2q20 20 30.5 48t19.5 55.5t23.5 53t43.5 42.5q14 8 24 -8q12 -23 4 -48.5t-24 -41.5q-14 -18 -43 -44t-25 -53q4 -16 23 -12q14 6 21 19.5t16 25.5q4 2 12 2t8 -10l-4 -12q-16 -39 -53 -54q-25 -14 -43 15q-4 4 -4 10 q-10 -8 -16.5 -15.5t-18.5 -11.5q-10 -4 -16.5 0t-12.5 8q-4 -4 -12 -8t-16 -6q-31 -6 -43 21v2q-8 -10 -17.5 -17.5t-23.5 -11.5q-14 -8 -25 12q-6 12 -3 23.5t8 22t9 21.5t2 23q-18 -8 -25 -19t-11.5 -25.5t-6.5 -29t-8 -28.5q-6 -16 -24 -8q-8 2 -9 10q0 4 1 9t1 7 q-14 -4 -19 -4t-15 -10t-24.5 -18.5t-31.5 -8.5q-10 2 -16 8.5t-10 14.5q-16 -16 -40 -32.5t-50 -12.5q-16 2 -25 18q-25 -29 -51 -36q-29 -12 -33 20q-4 27 8.5 44t22.5 38q2 4 -3 5t-7 -3q-8 -20 -18.5 -44t-26 -45.5t-36 -34.5t-46.5 -11q-31 2 -36 22.5zM638 163 q-1 -38 1 -75q0 -16 9 -26.5t21.5 -14.5t24 1t15.5 24q2 12 2 27.5v29.5v147q0 16 -10.5 27.5t-22.5 16t-23.5 -2t-15.5 -22.5q-2 -14 -1 -29.5t1 -27.5q0 -37 -1 -75zM653 416q12 14 15.5 36.5t2.5 48t-4 49t-3 42.5v125q0 16 1 30.5t-12 28.5h76q-14 -12 -12 -32.5 t2 -36.5v-142q0 -16 -2 -49t10 -47q14 -23 37.5 -8.5t28.5 33.5q8 27 2.5 54t-9.5 54q-4 14 -10 38t-8 48.5t2 46t21 33.5q10 10 31.5 10t29.5 -16q6 -16 -2 -21.5t-18.5 -4.5t-17.5 8.5t1 15.5q-16 -8 -17 -28.5t6 -44t17 -46.5t15 -35q12 -37 17 -87t-22 -85 q-10 -14 -33.5 -19t-50 -5t-53 3t-41.5 3zM655 987q12 -2 28.5 15.5t18.5 27.5q4 8 -2 12.5t-12 -2.5q-10 -10 -18.5 -24.5t-14.5 -28.5zM715 -328q0 14 9 22.5t21.5 8.5t21.5 -8t9 -23q0 -16 -9 -23t-21.5 -7t-21.5 7t-9 23zM776 1124q-2 -8 4 -20h4q0 8 1 13t-1 13 q-6 0 -8 -6zM780 4q10 14 13.5 34.5t2.5 44t-4.5 46.5t-3.5 39v172q0 10 -8 22h58q29 -12 51 -50t35 -66q0 25 2 59.5t-13 56.5h74q-12 -10 -11 -24t1 -29v-246q0 -14 -1 -31.5t11 -27.5h-207zM797 -356l59 223h64l59 -223h-51l-15 51h-53l-10 -51h-53zM844 47 q0 -14 11 -23.5t25.5 -11.5t28 3.5t15.5 19.5q-4 63 -21.5 127.5t-58.5 116.5v-232zM865 506.5q-3 19.5 7 32.5q10 12 33 13t27 -22q0 -10 -7 -15t-15.5 -5t-14.5 4t-6 14q-12 -4 -12 -14t7 -20.5t17 -19.5t17 -11q14 -4 34.5 -4t30.5 10q20 20 16 40.5t-19 38t-35.5 32 t-31.5 24.5q-18 16 -30.5 42t-12.5 52.5t13.5 48t44.5 27.5q27 6 54.5 4t51.5 -2l-6 -10q0 -14 7 -29.5t13.5 -31t5.5 -29.5t-16 -27q-14 -10 -33.5 -9t-21.5 22q0 12 7 17t15.5 5t14.5 -5t4 -13q14 2 14 12t-8 21.5t-18.5 20.5t-18.5 11q-14 4 -32.5 1t-24.5 -19 q-12 -25 -4 -43.5t24.5 -32.5t37 -27.5t32.5 -27.5q14 -20 22.5 -47t4.5 -52.5t-20.5 -44t-47.5 -22.5q-27 -2 -53.5 -1t-54.5 1q8 4 5 19.5t-8.5 33.5t-8.5 37.5zM866 -266h41q-4 23 -9 46t-11 46zM874 1014q4 -12 16.5 -10t14.5 14q2 18 -10 43q-6 -8 -14.5 -22.5 t-6.5 -24.5zM991 1059l4 -15q10 -14 25 -6q16 4 23.5 21.5t3.5 34.5q-2 10 -9.5 16t-21.5 -4q-20 -14 -25 -47zM997 4q12 14 15.5 36.5t2.5 47.5t-4 48.5t-3 39.5v127q0 16 1 29.5t-12 29.5h76q-10 -10 -13 -30.5t-2 -42t3 -43t2 -35.5v-166h104q23 0 55.5 -3t55.5 13 q-4 -8 -7 -29.5t-14 -21.5h-260zM1006 -135q29 4 64.5 6t62.5 -14q31 -23 22.5 -58t-37.5 -49q14 -6 21.5 -19.5t10.5 -28.5t5 -30.5t8 -27.5h-51q-6 12 -8 27.5t-6 28.5t-12.5 22.5t-26.5 7.5v-86h-53v221zM1057 -196.5q2 -24.5 2 -34.5h12q18 0 26.5 10t6.5 22.5 t-11.5 21.5t-27.5 7q-10 -2 -8 -26.5zM1065 416q10 12 11 25.5t1 27.5v248q0 14 -1 30.5t-11 28.5h127q25 -25 25.5 -59.5t-9.5 -67.5q-4 -8 -15 -29.5t-20.5 -45t-11.5 -45t10 -27.5q-6 12 4.5 13t21.5 -4t14 -14.5t-17 -17.5q-25 -10 -35 9.5t-8 35.5q0 16 6 32.5t8 31 t-4 22.5t-28 6v-155q16 0 41.5 -3t44.5 11q-6 -14 -8.5 -26.5t-6.5 -26.5h-139zM1098 362h78q-12 -29 2 -65.5t26 -60.5q12 29 22.5 62.5t0.5 63.5h80q-23 -12 -27 -38.5t-10 -47.5q-6 -20 -23.5 -47.5t-17.5 -48.5q0 -23 -3 -56.5t13 -51.5h-76q18 18 14.5 53.5t-3.5 58.5 q-12 23 -21.5 46.5t-17.5 45.5q-10 23 -14.5 46.5t-22.5 39.5zM1133 662q20 0 45.5 2t27.5 32q0 16 -7 23.5t-18.5 10.5t-24.5 3h-23v-71zM1192 -133h53v-223h-53v223zM1245 1092q-4 -10 1 -27.5t22 -3.5q12 12 21 33t11 39q-2 8 -4 13t-12 1q-16 -8 -25.5 -23.5 t-13.5 -31.5zM1274 -328q0 14 9 22.5t21.5 8.5t21.5 -8t9 -23q0 -16 -9 -23t-21.5 -7t-21.5 7t-9 23zM1294 813q-8 -6 4 -8q27 -10 57.5 -13.5t62.5 -3.5h62.5t59.5 -2t57.5 -5t57.5 -13q29 -8 51.5 -23.5t48.5 -27.5q0 61 -21.5 106t-80.5 68q35 31 69.5 58.5t75.5 43.5 q-49 47 -110.5 77t-126.5 46q-2 -57 -3.5 -112.5t-5.5 -112.5l-2 2v-6q-27 -2 -64.5 -4t-74.5 -9.5t-68.5 -21.5t-48.5 -39zM1364 -133h57l68 -152q-4 39 -4 77v75h47v-223h-51q-20 39 -37 78.5t-35 76.5q2 -39 2 -77.5v-77.5h-47v223zM1393 1157q16 20 31.5 40t19.5 46h-2 q-37 -37 -49 -86zM1562.5 -268q-8.5 37 14.5 80q12 29 40 43t62 14h10.5t17.5 -2t16.5 -4t7.5 -4l-9 -41q-27 12 -48 8t-36.5 -18.5t-20.5 -37t3 -46.5q16 -47 61 -41q10 2 8.5 21.5t-1.5 27.5h-27v41h76v-121q-41 -16 -79 -9t-62.5 29.5t-33 59.5z" />
<glyph unicode="4" d="M35 813q70 37 137.5 67.5t144.5 53.5q4 0 8.5 20.5t8.5 45t8 48t8 31.5q23 35 68 53.5t78 34.5q88 35 179 61.5t183 51.5q94 23 188.5 39t190.5 24q33 4 80 8.5t95 3.5t92 -12.5t71 -37.5q2 -4 -2 -29t-6 -33l-6 -98q0 -4 4 -4q78 -23 152.5 -58.5t123.5 -103.5v-2 q-16 4 -36.5 -3t-41 -20.5t-38 -28t-27.5 -26.5q31 -16 50 -47t27.5 -66.5t6.5 -72.5t-13 -68q-16 43 -49.5 66.5t-74.5 35t-85 14.5t-83 5q-45 4 -94.5 2t-92.5 14q-16 6 -22 25.5t-7 43t2 46.5t5 37q-184 -14 -363.5 -56t-351.5 -102q-8 -2 -8 -6q2 -10 8 -33.5t10 -50.5 t6 -49.5t-6 -28.5q-23 -18 -58.5 -21t-64.5 -7q-39 -6 -78.5 -12.5t-78.5 -12.5q-35 -8 -67 -17.5t-62 -21.5q-14 -8 -28.5 -13t-29.5 -16q-8 -8 -18 -20t-17 -16q10 35 24.5 67.5t27.5 63.5q2 6 13 25.5t21.5 41t18.5 39t6 21.5q-25 35 -58.5 67.5t-78.5 36.5zM86 -133h47 q4 -41 7 -83t12 -83q4 41 10 83t14 83h37l25 -166q4 41 9 83t9 83h43l-43 -223h-43q-6 37 -11 73.5t-9 73.5q-4 -37 -11.5 -73.5t-13.5 -73.5h-43zM90 819q68 -37 109 -108q2 -2 -4.5 -15.5t-14.5 -29t-15 -28.5t-9 -20q-25 -45 -41 -94q51 27 104 39t108.5 20.5t110 15.5 t107.5 24q-18 18 -47 25t-62 8t-65.5 -2t-55.5 -5v131t4 131q-59 -16 -116.5 -39.5t-112.5 -52.5zM305 -133h45q4 -41 8 -83t11 -83q4 41 10 83t14 83h39l23 -166q4 41 9 83t9 83h43l-43 -223h-41q-8 37 -13 73.5t-9 73.5q-4 -37 -10.5 -73.5t-12.5 -73.5h-45zM342 709 q8 0 22.5 6t29 15t27.5 18.5t23 13.5q37 16 75 29.5t77 27.5q78 23 155.5 43.5t159.5 38.5q78 16 155 31.5t157 21.5q72 8 154.5 11.5t152.5 -29.5q6 55 6 112.5t4 110.5q0 29 2 57.5t6 57.5q2 14 -6 22.5t-20.5 13.5t-26.5 7t-27 4q-119 18 -245.5 1t-245.5 -42 q-129 -27 -255 -60.5t-249 -86.5q-23 -12 -46.5 -24.5t-43.5 -29.5q-20 -16 -24.5 -49t-8.5 -55q-8 -66 -8 -132.5v-133.5zM367 825q0 23 15 38.5t36 19.5q6 2 15 -2t5 -15q-12 -8 -22 -8q-12 -4 -16.5 -16.5t1.5 -22.5q4 -4 8.5 -5t8.5 -3q20 -2 33.5 11.5t22.5 34t13.5 41 t8.5 34.5q-27 -27 -62 -35q-27 -4 -43 12q-16 8 -16 37q0 27 12 51q27 61 86 99q12 6 25.5 12t27.5 10q10 4 21.5 12.5t21.5 10.5q12 -1 6 -13q12 0 21 -2q16 -2 27.5 -15t13.5 -32q6 -43 -23.5 -83t-66.5 -62q-18 -12 -27.5 -31.5t-18.5 -39t-20.5 -38t-34.5 -28.5 q-23 -16 -53 -11q-12 4 -20 14.5t-6 24.5zM405.5 937q2.5 -15 22.5 -15q31 0 49.5 19.5t30.5 47t18.5 58.5t10.5 51q-29 -6 -52.5 -23.5t-44.5 -38.5q-6 -6 -15 -25.5t-15.5 -39t-4 -34.5zM522 -133h45q4 -41 9.5 -83t9.5 -83q4 41 10 83t14 83h39l25 -166q2 41 7 83t11 83 h41l-41 -223h-43q-8 37 -12 73.5t-10 73.5q-4 -37 -10.5 -73.5t-12.5 -73.5h-43zM530 950q14 4 29.5 19.5t26 35t14.5 40t0 34.5q-6 23 -33 23q-14 -37 -20.5 -75t-16.5 -77zM582 138q2 34 2 61q0 20 -1 38.5t1 38.5q0 49 26.5 67.5t73.5 18.5q37 0 54.5 -20t23.5 -50 t4 -63.5t-2 -60.5v-80q0 -47 -26.5 -66.5t-71.5 -17.5q-39 0 -56.5 20.5t-23.5 50t-4 63.5zM628 952.5q-5 20.5 6 46t31.5 46t43.5 22.5q12 0 16 -10q8 -12 2 -29q-6 -23 -27.5 -40t-44.5 -21q2 -12 10.5 -13.5t17.5 3t17.5 10.5t12.5 10q25 20 36 46t21 52q2 2 -1 9.5 t-8 15.5t-8 17t-1 16q10 27 34 22q12 0 17 -12q4 -10 2 -22.5t-2 -24.5q20 2 28.5 -1t-4.5 -28q-8 -16 -17 -33.5t-11 -36.5q0 -10 6 -10q20 0 34.5 20.5t26 46t22.5 51t25 34.5q8 2 17 -2q2 -4 2 -13q-4 -12 -10.5 -21t-1.5 -24q6 -12 13 -25.5t5 -27.5h2q20 25 32.5 60.5 t45.5 52.5q37 14 49 -21q10 -14 6 -25.5t-2 -27.5q8 2 14 10q16 12 18.5 35t8.5 41q4 4 11 5t12 -1q10 -2 8 -12v-2q10 10 24 16q10 6 17.5 2t11.5 -14q4 -12 1 -22.5t-8 -21.5t-10 -22.5t-3 -23.5q14 12 24 26.5t18.5 29.5t17.5 28.5t26 23.5q20 10 51 0q4 6 17 8.5 t9 -14.5q-4 -18 -14 -38.5t-10 -41.5q0 -14 8 -2q20 20 30.5 48t19.5 55.5t23.5 53t43.5 42.5q14 8 24 -8q12 -23 4 -48.5t-24 -41.5q-14 -18 -43 -44t-25 -53q4 -16 23 -12q14 6 21 19.5t16 25.5q4 2 12 2t8 -10l-4 -12q-16 -39 -53 -54q-25 -14 -43 15q-4 4 -4 10 q-10 -8 -16.5 -15.5t-18.5 -11.5q-10 -4 -16.5 0t-12.5 8q-4 -4 -12 -8t-16 -6q-31 -6 -43 21v2q-8 -10 -17.5 -17.5t-23.5 -11.5q-14 -8 -25 12q-6 12 -3 23.5t8 22t9 21.5t2 23q-18 -8 -25 -19t-11.5 -25.5t-6.5 -29t-8 -28.5q-6 -16 -24 -8q-8 2 -9 10q0 4 1 9t1 7 q-14 -4 -19 -4t-15 -10t-24.5 -18.5t-31.5 -8.5q-10 2 -16 8.5t-10 14.5q-16 -16 -40 -32.5t-50 -12.5q-16 2 -25 18q-25 -29 -51 -36q-29 -12 -33 20q-4 27 8.5 44t22.5 38q2 4 -3 5t-7 -3q-8 -20 -18.5 -44t-26 -45.5t-36 -34.5t-46.5 -11q-31 2 -36 22.5zM638 163 q-1 -38 1 -75q0 -16 9 -26.5t21.5 -14.5t24 1t15.5 24q2 12 2 27.5v29.5v147q0 16 -10.5 27.5t-22.5 16t-23.5 -2t-15.5 -22.5q-2 -14 -1 -29.5t1 -27.5q0 -37 -1 -75zM653 416q12 14 15.5 36.5t2.5 48t-4 49t-3 42.5v125q0 16 1 30.5t-12 28.5h76q-14 -12 -12 -32.5 t2 -36.5v-142q0 -16 -2 -49t10 -47q14 -23 37.5 -8.5t28.5 33.5q8 27 2.5 54t-9.5 54q-4 14 -10 38t-8 48.5t2 46t21 33.5q10 10 31.5 10t29.5 -16q6 -16 -2 -21.5t-18.5 -4.5t-17.5 8.5t1 15.5q-16 -8 -17 -28.5t6 -44t17 -46.5t15 -35q12 -37 17 -87t-22 -85 q-10 -14 -33.5 -19t-50 -5t-53 3t-41.5 3zM655 987q12 -2 28.5 15.5t18.5 27.5q4 8 -2 12.5t-12 -2.5q-10 -10 -18.5 -24.5t-14.5 -28.5zM715 -328q0 14 9 22.5t21.5 8.5t21.5 -8t9 -23q0 -16 -9 -23t-21.5 -7t-21.5 7t-9 23zM776 1124q-2 -8 4 -20h4q0 8 1 13t-1 13 q-6 0 -8 -6zM780 4q10 14 13.5 34.5t2.5 44t-4.5 46.5t-3.5 39v172q0 10 -8 22h58q29 -12 51 -50t35 -66q0 25 2 59.5t-13 56.5h74q-12 -10 -11 -24t1 -29v-246q0 -14 -1 -31.5t11 -27.5h-207zM797 -356l59 223h64l59 -223h-51l-15 51h-53l-10 -51h-53zM844 47 q0 -14 11 -23.5t25.5 -11.5t28 3.5t15.5 19.5q-4 63 -21.5 127.5t-58.5 116.5v-232zM865 506.5q-3 19.5 7 32.5q10 12 33 13t27 -22q0 -10 -7 -15t-15.5 -5t-14.5 4t-6 14q-12 -4 -12 -14t7 -20.5t17 -19.5t17 -11q14 -4 34.5 -4t30.5 10q20 20 16 40.5t-19 38t-35.5 32 t-31.5 24.5q-18 16 -30.5 42t-12.5 52.5t13.5 48t44.5 27.5q27 6 54.5 4t51.5 -2l-6 -10q0 -14 7 -29.5t13.5 -31t5.5 -29.5t-16 -27q-14 -10 -33.5 -9t-21.5 22q0 12 7 17t15.5 5t14.5 -5t4 -13q14 2 14 12t-8 21.5t-18.5 20.5t-18.5 11q-14 4 -32.5 1t-24.5 -19 q-12 -25 -4 -43.5t24.5 -32.5t37 -27.5t32.5 -27.5q14 -20 22.5 -47t4.5 -52.5t-20.5 -44t-47.5 -22.5q-27 -2 -53.5 -1t-54.5 1q8 4 5 19.5t-8.5 33.5t-8.5 37.5zM866 -266h41q-4 23 -9 46t-11 46zM874 1014q4 -12 16.5 -10t14.5 14q2 18 -10 43q-6 -8 -14.5 -22.5 t-6.5 -24.5zM991 1059l4 -15q10 -14 25 -6q16 4 23.5 21.5t3.5 34.5q-2 10 -9.5 16t-21.5 -4q-20 -14 -25 -47zM997 4q12 14 15.5 36.5t2.5 47.5t-4 48.5t-3 39.5v127q0 16 1 29.5t-12 29.5h76q-10 -10 -13 -30.5t-2 -42t3 -43t2 -35.5v-166h104q23 0 55.5 -3t55.5 13 q-4 -8 -7 -29.5t-14 -21.5h-260zM1006 -135q29 4 64.5 6t62.5 -14q31 -23 22.5 -58t-37.5 -49q14 -6 21.5 -19.5t10.5 -28.5t5 -30.5t8 -27.5h-51q-6 12 -8 27.5t-6 28.5t-12.5 22.5t-26.5 7.5v-86h-53v221zM1057 -196.5q2 -24.5 2 -34.5h12q18 0 26.5 10t6.5 22.5 t-11.5 21.5t-27.5 7q-10 -2 -8 -26.5zM1065 416q10 12 11 25.5t1 27.5v248q0 14 -1 30.5t-11 28.5h127q25 -25 25.5 -59.5t-9.5 -67.5q-4 -8 -15 -29.5t-20.5 -45t-11.5 -45t10 -27.5q-6 12 4.5 13t21.5 -4t14 -14.5t-17 -17.5q-25 -10 -35 9.5t-8 35.5q0 16 6 32.5t8 31 t-4 22.5t-28 6v-155q16 0 41.5 -3t44.5 11q-6 -14 -8.5 -26.5t-6.5 -26.5h-139zM1098 362h78q-12 -29 2 -65.5t26 -60.5q12 29 22.5 62.5t0.5 63.5h80q-23 -12 -27 -38.5t-10 -47.5q-6 -20 -23.5 -47.5t-17.5 -48.5q0 -23 -3 -56.5t13 -51.5h-76q18 18 14.5 53.5t-3.5 58.5 q-12 23 -21.5 46.5t-17.5 45.5q-10 23 -14.5 46.5t-22.5 39.5zM1133 662q20 0 45.5 2t27.5 32q0 16 -7 23.5t-18.5 10.5t-24.5 3h-23v-71zM1192 -133h53v-223h-53v223zM1245 1092q-4 -10 1 -27.5t22 -3.5q12 12 21 33t11 39q-2 8 -4 13t-12 1q-16 -8 -25.5 -23.5 t-13.5 -31.5zM1274 -328q0 14 9 22.5t21.5 8.5t21.5 -8t9 -23q0 -16 -9 -23t-21.5 -7t-21.5 7t-9 23zM1294 813q-8 -6 4 -8q27 -10 57.5 -13.5t62.5 -3.5h62.5t59.5 -2t57.5 -5t57.5 -13q29 -8 51.5 -23.5t48.5 -27.5q0 61 -21.5 106t-80.5 68q35 31 69.5 58.5t75.5 43.5 q-49 47 -110.5 77t-126.5 46q-2 -57 -3.5 -112.5t-5.5 -112.5l-2 2v-6q-27 -2 -64.5 -4t-74.5 -9.5t-68.5 -21.5t-48.5 -39zM1364 -133h57l68 -152q-4 39 -4 77v75h47v-223h-51q-20 39 -37 78.5t-35 76.5q2 -39 2 -77.5v-77.5h-47v223zM1393 1157q16 20 31.5 40t19.5 46h-2 q-37 -37 -49 -86zM1562.5 -268q-8.5 37 14.5 80q12 29 40 43t62 14h10.5t17.5 -2t16.5 -4t7.5 -4l-9 -41q-27 12 -48 8t-36.5 -18.5t-20.5 -37t3 -46.5q16 -47 61 -41q10 2 8.5 21.5t-1.5 27.5h-27v41h76v-121q-41 -16 -79 -9t-62.5 29.5t-33 59.5z" />
<glyph unicode="5" d="M35 813q70 37 137.5 67.5t144.5 53.5q4 0 8.5 20.5t8.5 45t8 48t8 31.5q23 35 68 53.5t78 34.5q88 35 179 61.5t183 51.5q94 23 188.5 39t190.5 24q33 4 80 8.5t95 3.5t92 -12.5t71 -37.5q2 -4 -2 -29t-6 -33l-6 -98q0 -4 4 -4q78 -23 152.5 -58.5t123.5 -103.5v-2 q-16 4 -36.5 -3t-41 -20.5t-38 -28t-27.5 -26.5q31 -16 50 -47t27.5 -66.5t6.5 -72.5t-13 -68q-16 43 -49.5 66.5t-74.5 35t-85 14.5t-83 5q-45 4 -94.5 2t-92.5 14q-16 6 -22 25.5t-7 43t2 46.5t5 37q-184 -14 -363.5 -56t-351.5 -102q-8 -2 -8 -6q2 -10 8 -33.5t10 -50.5 t6 -49.5t-6 -28.5q-23 -18 -58.5 -21t-64.5 -7q-39 -6 -78.5 -12.5t-78.5 -12.5q-35 -8 -67 -17.5t-62 -21.5q-14 -8 -28.5 -13t-29.5 -16q-8 -8 -18 -20t-17 -16q10 35 24.5 67.5t27.5 63.5q2 6 13 25.5t21.5 41t18.5 39t6 21.5q-25 35 -58.5 67.5t-78.5 36.5zM86 -133h47 q4 -41 7 -83t12 -83q4 41 10 83t14 83h37l25 -166q4 41 9 83t9 83h43l-43 -223h-43q-6 37 -11 73.5t-9 73.5q-4 -37 -11.5 -73.5t-13.5 -73.5h-43zM90 819q68 -37 109 -108q2 -2 -4.5 -15.5t-14.5 -29t-15 -28.5t-9 -20q-25 -45 -41 -94q51 27 104 39t108.5 20.5t110 15.5 t107.5 24q-18 18 -47 25t-62 8t-65.5 -2t-55.5 -5v131t4 131q-59 -16 -116.5 -39.5t-112.5 -52.5zM305 -133h45q4 -41 8 -83t11 -83q4 41 10 83t14 83h39l23 -166q4 41 9 83t9 83h43l-43 -223h-41q-8 37 -13 73.5t-9 73.5q-4 -37 -10.5 -73.5t-12.5 -73.5h-45zM342 709 q8 0 22.5 6t29 15t27.5 18.5t23 13.5q37 16 75 29.5t77 27.5q78 23 155.5 43.5t159.5 38.5q78 16 155 31.5t157 21.5q72 8 154.5 11.5t152.5 -29.5q6 55 6 112.5t4 110.5q0 29 2 57.5t6 57.5q2 14 -6 22.5t-20.5 13.5t-26.5 7t-27 4q-119 18 -245.5 1t-245.5 -42 q-129 -27 -255 -60.5t-249 -86.5q-23 -12 -46.5 -24.5t-43.5 -29.5q-20 -16 -24.5 -49t-8.5 -55q-8 -66 -8 -132.5v-133.5zM367 825q0 23 15 38.5t36 19.5q6 2 15 -2t5 -15q-12 -8 -22 -8q-12 -4 -16.5 -16.5t1.5 -22.5q4 -4 8.5 -5t8.5 -3q20 -2 33.5 11.5t22.5 34t13.5 41 t8.5 34.5q-27 -27 -62 -35q-27 -4 -43 12q-16 8 -16 37q0 27 12 51q27 61 86 99q12 6 25.5 12t27.5 10q10 4 21.5 12.5t21.5 10.5q12 -1 6 -13q12 0 21 -2q16 -2 27.5 -15t13.5 -32q6 -43 -23.5 -83t-66.5 -62q-18 -12 -27.5 -31.5t-18.5 -39t-20.5 -38t-34.5 -28.5 q-23 -16 -53 -11q-12 4 -20 14.5t-6 24.5zM405.5 937q2.5 -15 22.5 -15q31 0 49.5 19.5t30.5 47t18.5 58.5t10.5 51q-29 -6 -52.5 -23.5t-44.5 -38.5q-6 -6 -15 -25.5t-15.5 -39t-4 -34.5zM522 -133h45q4 -41 9.5 -83t9.5 -83q4 41 10 83t14 83h39l25 -166q2 41 7 83t11 83 h41l-41 -223h-43q-8 37 -12 73.5t-10 73.5q-4 -37 -10.5 -73.5t-12.5 -73.5h-43zM530 950q14 4 29.5 19.5t26 35t14.5 40t0 34.5q-6 23 -33 23q-14 -37 -20.5 -75t-16.5 -77zM582 138q2 34 2 61q0 20 -1 38.5t1 38.5q0 49 26.5 67.5t73.5 18.5q37 0 54.5 -20t23.5 -50 t4 -63.5t-2 -60.5v-80q0 -47 -26.5 -66.5t-71.5 -17.5q-39 0 -56.5 20.5t-23.5 50t-4 63.5zM628 952.5q-5 20.5 6 46t31.5 46t43.5 22.5q12 0 16 -10q8 -12 2 -29q-6 -23 -27.5 -40t-44.5 -21q2 -12 10.5 -13.5t17.5 3t17.5 10.5t12.5 10q25 20 36 46t21 52q2 2 -1 9.5 t-8 15.5t-8 17t-1 16q10 27 34 22q12 0 17 -12q4 -10 2 -22.5t-2 -24.5q20 2 28.5 -1t-4.5 -28q-8 -16 -17 -33.5t-11 -36.5q0 -10 6 -10q20 0 34.5 20.5t26 46t22.5 51t25 34.5q8 2 17 -2q2 -4 2 -13q-4 -12 -10.5 -21t-1.5 -24q6 -12 13 -25.5t5 -27.5h2q20 25 32.5 60.5 t45.5 52.5q37 14 49 -21q10 -14 6 -25.5t-2 -27.5q8 2 14 10q16 12 18.5 35t8.5 41q4 4 11 5t12 -1q10 -2 8 -12v-2q10 10 24 16q10 6 17.5 2t11.5 -14q4 -12 1 -22.5t-8 -21.5t-10 -22.5t-3 -23.5q14 12 24 26.5t18.5 29.5t17.5 28.5t26 23.5q20 10 51 0q4 6 17 8.5 t9 -14.5q-4 -18 -14 -38.5t-10 -41.5q0 -14 8 -2q20 20 30.5 48t19.5 55.5t23.5 53t43.5 42.5q14 8 24 -8q12 -23 4 -48.5t-24 -41.5q-14 -18 -43 -44t-25 -53q4 -16 23 -12q14 6 21 19.5t16 25.5q4 2 12 2t8 -10l-4 -12q-16 -39 -53 -54q-25 -14 -43 15q-4 4 -4 10 q-10 -8 -16.5 -15.5t-18.5 -11.5q-10 -4 -16.5 0t-12.5 8q-4 -4 -12 -8t-16 -6q-31 -6 -43 21v2q-8 -10 -17.5 -17.5t-23.5 -11.5q-14 -8 -25 12q-6 12 -3 23.5t8 22t9 21.5t2 23q-18 -8 -25 -19t-11.5 -25.5t-6.5 -29t-8 -28.5q-6 -16 -24 -8q-8 2 -9 10q0 4 1 9t1 7 q-14 -4 -19 -4t-15 -10t-24.5 -18.5t-31.5 -8.5q-10 2 -16 8.5t-10 14.5q-16 -16 -40 -32.5t-50 -12.5q-16 2 -25 18q-25 -29 -51 -36q-29 -12 -33 20q-4 27 8.5 44t22.5 38q2 4 -3 5t-7 -3q-8 -20 -18.5 -44t-26 -45.5t-36 -34.5t-46.5 -11q-31 2 -36 22.5zM638 163 q-1 -38 1 -75q0 -16 9 -26.5t21.5 -14.5t24 1t15.5 24q2 12 2 27.5v29.5v147q0 16 -10.5 27.5t-22.5 16t-23.5 -2t-15.5 -22.5q-2 -14 -1 -29.5t1 -27.5q0 -37 -1 -75zM653 416q12 14 15.5 36.5t2.5 48t-4 49t-3 42.5v125q0 16 1 30.5t-12 28.5h76q-14 -12 -12 -32.5 t2 -36.5v-142q0 -16 -2 -49t10 -47q14 -23 37.5 -8.5t28.5 33.5q8 27 2.5 54t-9.5 54q-4 14 -10 38t-8 48.5t2 46t21 33.5q10 10 31.5 10t29.5 -16q6 -16 -2 -21.5t-18.5 -4.5t-17.5 8.5t1 15.5q-16 -8 -17 -28.5t6 -44t17 -46.5t15 -35q12 -37 17 -87t-22 -85 q-10 -14 -33.5 -19t-50 -5t-53 3t-41.5 3zM655 987q12 -2 28.5 15.5t18.5 27.5q4 8 -2 12.5t-12 -2.5q-10 -10 -18.5 -24.5t-14.5 -28.5zM715 -328q0 14 9 22.5t21.5 8.5t21.5 -8t9 -23q0 -16 -9 -23t-21.5 -7t-21.5 7t-9 23zM776 1124q-2 -8 4 -20h4q0 8 1 13t-1 13 q-6 0 -8 -6zM780 4q10 14 13.5 34.5t2.5 44t-4.5 46.5t-3.5 39v172q0 10 -8 22h58q29 -12 51 -50t35 -66q0 25 2 59.5t-13 56.5h74q-12 -10 -11 -24t1 -29v-246q0 -14 -1 -31.5t11 -27.5h-207zM797 -356l59 223h64l59 -223h-51l-15 51h-53l-10 -51h-53zM844 47 q0 -14 11 -23.5t25.5 -11.5t28 3.5t15.5 19.5q-4 63 -21.5 127.5t-58.5 116.5v-232zM865 506.5q-3 19.5 7 32.5q10 12 33 13t27 -22q0 -10 -7 -15t-15.5 -5t-14.5 4t-6 14q-12 -4 -12 -14t7 -20.5t17 -19.5t17 -11q14 -4 34.5 -4t30.5 10q20 20 16 40.5t-19 38t-35.5 32 t-31.5 24.5q-18 16 -30.5 42t-12.5 52.5t13.5 48t44.5 27.5q27 6 54.5 4t51.5 -2l-6 -10q0 -14 7 -29.5t13.5 -31t5.5 -29.5t-16 -27q-14 -10 -33.5 -9t-21.5 22q0 12 7 17t15.5 5t14.5 -5t4 -13q14 2 14 12t-8 21.5t-18.5 20.5t-18.5 11q-14 4 -32.5 1t-24.5 -19 q-12 -25 -4 -43.5t24.5 -32.5t37 -27.5t32.5 -27.5q14 -20 22.5 -47t4.5 -52.5t-20.5 -44t-47.5 -22.5q-27 -2 -53.5 -1t-54.5 1q8 4 5 19.5t-8.5 33.5t-8.5 37.5zM866 -266h41q-4 23 -9 46t-11 46zM874 1014q4 -12 16.5 -10t14.5 14q2 18 -10 43q-6 -8 -14.5 -22.5 t-6.5 -24.5zM991 1059l4 -15q10 -14 25 -6q16 4 23.5 21.5t3.5 34.5q-2 10 -9.5 16t-21.5 -4q-20 -14 -25 -47zM997 4q12 14 15.5 36.5t2.5 47.5t-4 48.5t-3 39.5v127q0 16 1 29.5t-12 29.5h76q-10 -10 -13 -30.5t-2 -42t3 -43t2 -35.5v-166h104q23 0 55.5 -3t55.5 13 q-4 -8 -7 -29.5t-14 -21.5h-260zM1006 -135q29 4 64.5 6t62.5 -14q31 -23 22.5 -58t-37.5 -49q14 -6 21.5 -19.5t10.5 -28.5t5 -30.5t8 -27.5h-51q-6 12 -8 27.5t-6 28.5t-12.5 22.5t-26.5 7.5v-86h-53v221zM1057 -196.5q2 -24.5 2 -34.5h12q18 0 26.5 10t6.5 22.5 t-11.5 21.5t-27.5 7q-10 -2 -8 -26.5zM1065 416q10 12 11 25.5t1 27.5v248q0 14 -1 30.5t-11 28.5h127q25 -25 25.5 -59.5t-9.5 -67.5q-4 -8 -15 -29.5t-20.5 -45t-11.5 -45t10 -27.5q-6 12 4.5 13t21.5 -4t14 -14.5t-17 -17.5q-25 -10 -35 9.5t-8 35.5q0 16 6 32.5t8 31 t-4 22.5t-28 6v-155q16 0 41.5 -3t44.5 11q-6 -14 -8.5 -26.5t-6.5 -26.5h-139zM1098 362h78q-12 -29 2 -65.5t26 -60.5q12 29 22.5 62.5t0.5 63.5h80q-23 -12 -27 -38.5t-10 -47.5q-6 -20 -23.5 -47.5t-17.5 -48.5q0 -23 -3 -56.5t13 -51.5h-76q18 18 14.5 53.5t-3.5 58.5 q-12 23 -21.5 46.5t-17.5 45.5q-10 23 -14.5 46.5t-22.5 39.5zM1133 662q20 0 45.5 2t27.5 32q0 16 -7 23.5t-18.5 10.5t-24.5 3h-23v-71zM1192 -133h53v-223h-53v223zM1245 1092q-4 -10 1 -27.5t22 -3.5q12 12 21 33t11 39q-2 8 -4 13t-12 1q-16 -8 -25.5 -23.5 t-13.5 -31.5zM1274 -328q0 14 9 22.5t21.5 8.5t21.5 -8t9 -23q0 -16 -9 -23t-21.5 -7t-21.5 7t-9 23zM1294 813q-8 -6 4 -8q27 -10 57.5 -13.5t62.5 -3.5h62.5t59.5 -2t57.5 -5t57.5 -13q29 -8 51.5 -23.5t48.5 -27.5q0 61 -21.5 106t-80.5 68q35 31 69.5 58.5t75.5 43.5 q-49 47 -110.5 77t-126.5 46q-2 -57 -3.5 -112.5t-5.5 -112.5l-2 2v-6q-27 -2 -64.5 -4t-74.5 -9.5t-68.5 -21.5t-48.5 -39zM1364 -133h57l68 -152q-4 39 -4 77v75h47v-223h-51q-20 39 -37 78.5t-35 76.5q2 -39 2 -77.5v-77.5h-47v223zM1393 1157q16 20 31.5 40t19.5 46h-2 q-37 -37 -49 -86zM1562.5 -268q-8.5 37 14.5 80q12 29 40 43t62 14h10.5t17.5 -2t16.5 -4t7.5 -4l-9 -41q-27 12 -48 8t-36.5 -18.5t-20.5 -37t3 -46.5q16 -47 61 -41q10 2 8.5 21.5t-1.5 27.5h-27v41h76v-121q-41 -16 -79 -9t-62.5 29.5t-33 59.5z" />
<glyph unicode="6" d="M35 813q70 37 137.5 67.5t144.5 53.5q4 0 8.5 20.5t8.5 45t8 48t8 31.5q23 35 68 53.5t78 34.5q88 35 179 61.5t183 51.5q94 23 188.5 39t190.5 24q33 4 80 8.5t95 3.5t92 -12.5t71 -37.5q2 -4 -2 -29t-6 -33l-6 -98q0 -4 4 -4q78 -23 152.5 -58.5t123.5 -103.5v-2 q-16 4 -36.5 -3t-41 -20.5t-38 -28t-27.5 -26.5q31 -16 50 -47t27.5 -66.5t6.5 -72.5t-13 -68q-16 43 -49.5 66.5t-74.5 35t-85 14.5t-83 5q-45 4 -94.5 2t-92.5 14q-16 6 -22 25.5t-7 43t2 46.5t5 37q-184 -14 -363.5 -56t-351.5 -102q-8 -2 -8 -6q2 -10 8 -33.5t10 -50.5 t6 -49.5t-6 -28.5q-23 -18 -58.5 -21t-64.5 -7q-39 -6 -78.5 -12.5t-78.5 -12.5q-35 -8 -67 -17.5t-62 -21.5q-14 -8 -28.5 -13t-29.5 -16q-8 -8 -18 -20t-17 -16q10 35 24.5 67.5t27.5 63.5q2 6 13 25.5t21.5 41t18.5 39t6 21.5q-25 35 -58.5 67.5t-78.5 36.5zM86 -133h47 q4 -41 7 -83t12 -83q4 41 10 83t14 83h37l25 -166q4 41 9 83t9 83h43l-43 -223h-43q-6 37 -11 73.5t-9 73.5q-4 -37 -11.5 -73.5t-13.5 -73.5h-43zM90 819q68 -37 109 -108q2 -2 -4.5 -15.5t-14.5 -29t-15 -28.5t-9 -20q-25 -45 -41 -94q51 27 104 39t108.5 20.5t110 15.5 t107.5 24q-18 18 -47 25t-62 8t-65.5 -2t-55.5 -5v131t4 131q-59 -16 -116.5 -39.5t-112.5 -52.5zM305 -133h45q4 -41 8 -83t11 -83q4 41 10 83t14 83h39l23 -166q4 41 9 83t9 83h43l-43 -223h-41q-8 37 -13 73.5t-9 73.5q-4 -37 -10.5 -73.5t-12.5 -73.5h-45zM342 709 q8 0 22.5 6t29 15t27.5 18.5t23 13.5q37 16 75 29.5t77 27.5q78 23 155.5 43.5t159.5 38.5q78 16 155 31.5t157 21.5q72 8 154.5 11.5t152.5 -29.5q6 55 6 112.5t4 110.5q0 29 2 57.5t6 57.5q2 14 -6 22.5t-20.5 13.5t-26.5 7t-27 4q-119 18 -245.5 1t-245.5 -42 q-129 -27 -255 -60.5t-249 -86.5q-23 -12 -46.5 -24.5t-43.5 -29.5q-20 -16 -24.5 -49t-8.5 -55q-8 -66 -8 -132.5v-133.5zM367 825q0 23 15 38.5t36 19.5q6 2 15 -2t5 -15q-12 -8 -22 -8q-12 -4 -16.5 -16.5t1.5 -22.5q4 -4 8.5 -5t8.5 -3q20 -2 33.5 11.5t22.5 34t13.5 41 t8.5 34.5q-27 -27 -62 -35q-27 -4 -43 12q-16 8 -16 37q0 27 12 51q27 61 86 99q12 6 25.5 12t27.5 10q10 4 21.5 12.5t21.5 10.5q12 -1 6 -13q12 0 21 -2q16 -2 27.5 -15t13.5 -32q6 -43 -23.5 -83t-66.5 -62q-18 -12 -27.5 -31.5t-18.5 -39t-20.5 -38t-34.5 -28.5 q-23 -16 -53 -11q-12 4 -20 14.5t-6 24.5zM405.5 937q2.5 -15 22.5 -15q31 0 49.5 19.5t30.5 47t18.5 58.5t10.5 51q-29 -6 -52.5 -23.5t-44.5 -38.5q-6 -6 -15 -25.5t-15.5 -39t-4 -34.5zM522 -133h45q4 -41 9.5 -83t9.5 -83q4 41 10 83t14 83h39l25 -166q2 41 7 83t11 83 h41l-41 -223h-43q-8 37 -12 73.5t-10 73.5q-4 -37 -10.5 -73.5t-12.5 -73.5h-43zM530 950q14 4 29.5 19.5t26 35t14.5 40t0 34.5q-6 23 -33 23q-14 -37 -20.5 -75t-16.5 -77zM582 138q2 34 2 61q0 20 -1 38.5t1 38.5q0 49 26.5 67.5t73.5 18.5q37 0 54.5 -20t23.5 -50 t4 -63.5t-2 -60.5v-80q0 -47 -26.5 -66.5t-71.5 -17.5q-39 0 -56.5 20.5t-23.5 50t-4 63.5zM628 952.5q-5 20.5 6 46t31.5 46t43.5 22.5q12 0 16 -10q8 -12 2 -29q-6 -23 -27.5 -40t-44.5 -21q2 -12 10.5 -13.5t17.5 3t17.5 10.5t12.5 10q25 20 36 46t21 52q2 2 -1 9.5 t-8 15.5t-8 17t-1 16q10 27 34 22q12 0 17 -12q4 -10 2 -22.5t-2 -24.5q20 2 28.5 -1t-4.5 -28q-8 -16 -17 -33.5t-11 -36.5q0 -10 6 -10q20 0 34.5 20.5t26 46t22.5 51t25 34.5q8 2 17 -2q2 -4 2 -13q-4 -12 -10.5 -21t-1.5 -24q6 -12 13 -25.5t5 -27.5h2q20 25 32.5 60.5 t45.5 52.5q37 14 49 -21q10 -14 6 -25.5t-2 -27.5q8 2 14 10q16 12 18.5 35t8.5 41q4 4 11 5t12 -1q10 -2 8 -12v-2q10 10 24 16q10 6 17.5 2t11.5 -14q4 -12 1 -22.5t-8 -21.5t-10 -22.5t-3 -23.5q14 12 24 26.5t18.5 29.5t17.5 28.5t26 23.5q20 10 51 0q4 6 17 8.5 t9 -14.5q-4 -18 -14 -38.5t-10 -41.5q0 -14 8 -2q20 20 30.5 48t19.5 55.5t23.5 53t43.5 42.5q14 8 24 -8q12 -23 4 -48.5t-24 -41.5q-14 -18 -43 -44t-25 -53q4 -16 23 -12q14 6 21 19.5t16 25.5q4 2 12 2t8 -10l-4 -12q-16 -39 -53 -54q-25 -14 -43 15q-4 4 -4 10 q-10 -8 -16.5 -15.5t-18.5 -11.5q-10 -4 -16.5 0t-12.5 8q-4 -4 -12 -8t-16 -6q-31 -6 -43 21v2q-8 -10 -17.5 -17.5t-23.5 -11.5q-14 -8 -25 12q-6 12 -3 23.5t8 22t9 21.5t2 23q-18 -8 -25 -19t-11.5 -25.5t-6.5 -29t-8 -28.5q-6 -16 -24 -8q-8 2 -9 10q0 4 1 9t1 7 q-14 -4 -19 -4t-15 -10t-24.5 -18.5t-31.5 -8.5q-10 2 -16 8.5t-10 14.5q-16 -16 -40 -32.5t-50 -12.5q-16 2 -25 18q-25 -29 -51 -36q-29 -12 -33 20q-4 27 8.5 44t22.5 38q2 4 -3 5t-7 -3q-8 -20 -18.5 -44t-26 -45.5t-36 -34.5t-46.5 -11q-31 2 -36 22.5zM638 163 q-1 -38 1 -75q0 -16 9 -26.5t21.5 -14.5t24 1t15.5 24q2 12 2 27.5v29.5v147q0 16 -10.5 27.5t-22.5 16t-23.5 -2t-15.5 -22.5q-2 -14 -1 -29.5t1 -27.5q0 -37 -1 -75zM653 416q12 14 15.5 36.5t2.5 48t-4 49t-3 42.5v125q0 16 1 30.5t-12 28.5h76q-14 -12 -12 -32.5 t2 -36.5v-142q0 -16 -2 -49t10 -47q14 -23 37.5 -8.5t28.5 33.5q8 27 2.5 54t-9.5 54q-4 14 -10 38t-8 48.5t2 46t21 33.5q10 10 31.5 10t29.5 -16q6 -16 -2 -21.5t-18.5 -4.5t-17.5 8.5t1 15.5q-16 -8 -17 -28.5t6 -44t17 -46.5t15 -35q12 -37 17 -87t-22 -85 q-10 -14 -33.5 -19t-50 -5t-53 3t-41.5 3zM655 987q12 -2 28.5 15.5t18.5 27.5q4 8 -2 12.5t-12 -2.5q-10 -10 -18.5 -24.5t-14.5 -28.5zM715 -328q0 14 9 22.5t21.5 8.5t21.5 -8t9 -23q0 -16 -9 -23t-21.5 -7t-21.5 7t-9 23zM776 1124q-2 -8 4 -20h4q0 8 1 13t-1 13 q-6 0 -8 -6zM780 4q10 14 13.5 34.5t2.5 44t-4.5 46.5t-3.5 39v172q0 10 -8 22h58q29 -12 51 -50t35 -66q0 25 2 59.5t-13 56.5h74q-12 -10 -11 -24t1 -29v-246q0 -14 -1 -31.5t11 -27.5h-207zM797 -356l59 223h64l59 -223h-51l-15 51h-53l-10 -51h-53zM844 47 q0 -14 11 -23.5t25.5 -11.5t28 3.5t15.5 19.5q-4 63 -21.5 127.5t-58.5 116.5v-232zM865 506.5q-3 19.5 7 32.5q10 12 33 13t27 -22q0 -10 -7 -15t-15.5 -5t-14.5 4t-6 14q-12 -4 -12 -14t7 -20.5t17 -19.5t17 -11q14 -4 34.5 -4t30.5 10q20 20 16 40.5t-19 38t-35.5 32 t-31.5 24.5q-18 16 -30.5 42t-12.5 52.5t13.5 48t44.5 27.5q27 6 54.5 4t51.5 -2l-6 -10q0 -14 7 -29.5t13.5 -31t5.5 -29.5t-16 -27q-14 -10 -33.5 -9t-21.5 22q0 12 7 17t15.5 5t14.5 -5t4 -13q14 2 14 12t-8 21.5t-18.5 20.5t-18.5 11q-14 4 -32.5 1t-24.5 -19 q-12 -25 -4 -43.5t24.5 -32.5t37 -27.5t32.5 -27.5q14 -20 22.5 -47t4.5 -52.5t-20.5 -44t-47.5 -22.5q-27 -2 -53.5 -1t-54.5 1q8 4 5 19.5t-8.5 33.5t-8.5 37.5zM866 -266h41q-4 23 -9 46t-11 46zM874 1014q4 -12 16.5 -10t14.5 14q2 18 -10 43q-6 -8 -14.5 -22.5 t-6.5 -24.5zM991 1059l4 -15q10 -14 25 -6q16 4 23.5 21.5t3.5 34.5q-2 10 -9.5 16t-21.5 -4q-20 -14 -25 -47zM997 4q12 14 15.5 36.5t2.5 47.5t-4 48.5t-3 39.5v127q0 16 1 29.5t-12 29.5h76q-10 -10 -13 -30.5t-2 -42t3 -43t2 -35.5v-166h104q23 0 55.5 -3t55.5 13 q-4 -8 -7 -29.5t-14 -21.5h-260zM1006 -135q29 4 64.5 6t62.5 -14q31 -23 22.5 -58t-37.5 -49q14 -6 21.5 -19.5t10.5 -28.5t5 -30.5t8 -27.5h-51q-6 12 -8 27.5t-6 28.5t-12.5 22.5t-26.5 7.5v-86h-53v221zM1057 -196.5q2 -24.5 2 -34.5h12q18 0 26.5 10t6.5 22.5 t-11.5 21.5t-27.5 7q-10 -2 -8 -26.5zM1065 416q10 12 11 25.5t1 27.5v248q0 14 -1 30.5t-11 28.5h127q25 -25 25.5 -59.5t-9.5 -67.5q-4 -8 -15 -29.5t-20.5 -45t-11.5 -45t10 -27.5q-6 12 4.5 13t21.5 -4t14 -14.5t-17 -17.5q-25 -10 -35 9.5t-8 35.5q0 16 6 32.5t8 31 t-4 22.5t-28 6v-155q16 0 41.5 -3t44.5 11q-6 -14 -8.5 -26.5t-6.5 -26.5h-139zM1098 362h78q-12 -29 2 -65.5t26 -60.5q12 29 22.5 62.5t0.5 63.5h80q-23 -12 -27 -38.5t-10 -47.5q-6 -20 -23.5 -47.5t-17.5 -48.5q0 -23 -3 -56.5t13 -51.5h-76q18 18 14.5 53.5t-3.5 58.5 q-12 23 -21.5 46.5t-17.5 45.5q-10 23 -14.5 46.5t-22.5 39.5zM1133 662q20 0 45.5 2t27.5 32q0 16 -7 23.5t-18.5 10.5t-24.5 3h-23v-71zM1192 -133h53v-223h-53v223zM1245 1092q-4 -10 1 -27.5t22 -3.5q12 12 21 33t11 39q-2 8 -4 13t-12 1q-16 -8 -25.5 -23.5 t-13.5 -31.5zM1274 -328q0 14 9 22.5t21.5 8.5t21.5 -8t9 -23q0 -16 -9 -23t-21.5 -7t-21.5 7t-9 23zM1294 813q-8 -6 4 -8q27 -10 57.5 -13.5t62.5 -3.5h62.5t59.5 -2t57.5 -5t57.5 -13q29 -8 51.5 -23.5t48.5 -27.5q0 61 -21.5 106t-80.5 68q35 31 69.5 58.5t75.5 43.5 q-49 47 -110.5 77t-126.5 46q-2 -57 -3.5 -112.5t-5.5 -112.5l-2 2v-6q-27 -2 -64.5 -4t-74.5 -9.5t-68.5 -21.5t-48.5 -39zM1364 -133h57l68 -152q-4 39 -4 77v75h47v-223h-51q-20 39 -37 78.5t-35 76.5q2 -39 2 -77.5v-77.5h-47v223zM1393 1157q16 20 31.5 40t19.5 46h-2 q-37 -37 -49 -86zM1562.5 -268q-8.5 37 14.5 80q12 29 40 43t62 14h10.5t17.5 -2t16.5 -4t7.5 -4l-9 -41q-27 12 -48 8t-36.5 -18.5t-20.5 -37t3 -46.5q16 -47 61 -41q10 2 8.5 21.5t-1.5 27.5h-27v41h76v-121q-41 -16 -79 -9t-62.5 29.5t-33 59.5z" />
<glyph unicode="7" d="M35 813q70 37 137.5 67.5t144.5 53.5q4 0 8.5 20.5t8.5 45t8 48t8 31.5q23 35 68 53.5t78 34.5q88 35 179 61.5t183 51.5q94 23 188.5 39t190.5 24q33 4 80 8.5t95 3.5t92 -12.5t71 -37.5q2 -4 -2 -29t-6 -33l-6 -98q0 -4 4 -4q78 -23 152.5 -58.5t123.5 -103.5v-2 q-16 4 -36.5 -3t-41 -20.5t-38 -28t-27.5 -26.5q31 -16 50 -47t27.5 -66.5t6.5 -72.5t-13 -68q-16 43 -49.5 66.5t-74.5 35t-85 14.5t-83 5q-45 4 -94.5 2t-92.5 14q-16 6 -22 25.5t-7 43t2 46.5t5 37q-184 -14 -363.5 -56t-351.5 -102q-8 -2 -8 -6q2 -10 8 -33.5t10 -50.5 t6 -49.5t-6 -28.5q-23 -18 -58.5 -21t-64.5 -7q-39 -6 -78.5 -12.5t-78.5 -12.5q-35 -8 -67 -17.5t-62 -21.5q-14 -8 -28.5 -13t-29.5 -16q-8 -8 -18 -20t-17 -16q10 35 24.5 67.5t27.5 63.5q2 6 13 25.5t21.5 41t18.5 39t6 21.5q-25 35 -58.5 67.5t-78.5 36.5zM86 -133h47 q4 -41 7 -83t12 -83q4 41 10 83t14 83h37l25 -166q4 41 9 83t9 83h43l-43 -223h-43q-6 37 -11 73.5t-9 73.5q-4 -37 -11.5 -73.5t-13.5 -73.5h-43zM90 819q68 -37 109 -108q2 -2 -4.5 -15.5t-14.5 -29t-15 -28.5t-9 -20q-25 -45 -41 -94q51 27 104 39t108.5 20.5t110 15.5 t107.5 24q-18 18 -47 25t-62 8t-65.5 -2t-55.5 -5v131t4 131q-59 -16 -116.5 -39.5t-112.5 -52.5zM305 -133h45q4 -41 8 -83t11 -83q4 41 10 83t14 83h39l23 -166q4 41 9 83t9 83h43l-43 -223h-41q-8 37 -13 73.5t-9 73.5q-4 -37 -10.5 -73.5t-12.5 -73.5h-45zM342 709 q8 0 22.5 6t29 15t27.5 18.5t23 13.5q37 16 75 29.5t77 27.5q78 23 155.5 43.5t159.5 38.5q78 16 155 31.5t157 21.5q72 8 154.5 11.5t152.5 -29.5q6 55 6 112.5t4 110.5q0 29 2 57.5t6 57.5q2 14 -6 22.5t-20.5 13.5t-26.5 7t-27 4q-119 18 -245.5 1t-245.5 -42 q-129 -27 -255 -60.5t-249 -86.5q-23 -12 -46.5 -24.5t-43.5 -29.5q-20 -16 -24.5 -49t-8.5 -55q-8 -66 -8 -132.5v-133.5zM367 825q0 23 15 38.5t36 19.5q6 2 15 -2t5 -15q-12 -8 -22 -8q-12 -4 -16.5 -16.5t1.5 -22.5q4 -4 8.5 -5t8.5 -3q20 -2 33.5 11.5t22.5 34t13.5 41 t8.5 34.5q-27 -27 -62 -35q-27 -4 -43 12q-16 8 -16 37q0 27 12 51q27 61 86 99q12 6 25.5 12t27.5 10q10 4 21.5 12.5t21.5 10.5q12 -1 6 -13q12 0 21 -2q16 -2 27.5 -15t13.5 -32q6 -43 -23.5 -83t-66.5 -62q-18 -12 -27.5 -31.5t-18.5 -39t-20.5 -38t-34.5 -28.5 q-23 -16 -53 -11q-12 4 -20 14.5t-6 24.5zM405.5 937q2.5 -15 22.5 -15q31 0 49.5 19.5t30.5 47t18.5 58.5t10.5 51q-29 -6 -52.5 -23.5t-44.5 -38.5q-6 -6 -15 -25.5t-15.5 -39t-4 -34.5zM522 -133h45q4 -41 9.5 -83t9.5 -83q4 41 10 83t14 83h39l25 -166q2 41 7 83t11 83 h41l-41 -223h-43q-8 37 -12 73.5t-10 73.5q-4 -37 -10.5 -73.5t-12.5 -73.5h-43zM530 950q14 4 29.5 19.5t26 35t14.5 40t0 34.5q-6 23 -33 23q-14 -37 -20.5 -75t-16.5 -77zM582 138q2 34 2 61q0 20 -1 38.5t1 38.5q0 49 26.5 67.5t73.5 18.5q37 0 54.5 -20t23.5 -50 t4 -63.5t-2 -60.5v-80q0 -47 -26.5 -66.5t-71.5 -17.5q-39 0 -56.5 20.5t-23.5 50t-4 63.5zM628 952.5q-5 20.5 6 46t31.5 46t43.5 22.5q12 0 16 -10q8 -12 2 -29q-6 -23 -27.5 -40t-44.5 -21q2 -12 10.5 -13.5t17.5 3t17.5 10.5t12.5 10q25 20 36 46t21 52q2 2 -1 9.5 t-8 15.5t-8 17t-1 16q10 27 34 22q12 0 17 -12q4 -10 2 -22.5t-2 -24.5q20 2 28.5 -1t-4.5 -28q-8 -16 -17 -33.5t-11 -36.5q0 -10 6 -10q20 0 34.5 20.5t26 46t22.5 51t25 34.5q8 2 17 -2q2 -4 2 -13q-4 -12 -10.5 -21t-1.5 -24q6 -12 13 -25.5t5 -27.5h2q20 25 32.5 60.5 t45.5 52.5q37 14 49 -21q10 -14 6 -25.5t-2 -27.5q8 2 14 10q16 12 18.5 35t8.5 41q4 4 11 5t12 -1q10 -2 8 -12v-2q10 10 24 16q10 6 17.5 2t11.5 -14q4 -12 1 -22.5t-8 -21.5t-10 -22.5t-3 -23.5q14 12 24 26.5t18.5 29.5t17.5 28.5t26 23.5q20 10 51 0q4 6 17 8.5 t9 -14.5q-4 -18 -14 -38.5t-10 -41.5q0 -14 8 -2q20 20 30.5 48t19.5 55.5t23.5 53t43.5 42.5q14 8 24 -8q12 -23 4 -48.5t-24 -41.5q-14 -18 -43 -44t-25 -53q4 -16 23 -12q14 6 21 19.5t16 25.5q4 2 12 2t8 -10l-4 -12q-16 -39 -53 -54q-25 -14 -43 15q-4 4 -4 10 q-10 -8 -16.5 -15.5t-18.5 -11.5q-10 -4 -16.5 0t-12.5 8q-4 -4 -12 -8t-16 -6q-31 -6 -43 21v2q-8 -10 -17.5 -17.5t-23.5 -11.5q-14 -8 -25 12q-6 12 -3 23.5t8 22t9 21.5t2 23q-18 -8 -25 -19t-11.5 -25.5t-6.5 -29t-8 -28.5q-6 -16 -24 -8q-8 2 -9 10q0 4 1 9t1 7 q-14 -4 -19 -4t-15 -10t-24.5 -18.5t-31.5 -8.5q-10 2 -16 8.5t-10 14.5q-16 -16 -40 -32.5t-50 -12.5q-16 2 -25 18q-25 -29 -51 -36q-29 -12 -33 20q-4 27 8.5 44t22.5 38q2 4 -3 5t-7 -3q-8 -20 -18.5 -44t-26 -45.5t-36 -34.5t-46.5 -11q-31 2 -36 22.5zM638 163 q-1 -38 1 -75q0 -16 9 -26.5t21.5 -14.5t24 1t15.5 24q2 12 2 27.5v29.5v147q0 16 -10.5 27.5t-22.5 16t-23.5 -2t-15.5 -22.5q-2 -14 -1 -29.5t1 -27.5q0 -37 -1 -75zM653 416q12 14 15.5 36.5t2.5 48t-4 49t-3 42.5v125q0 16 1 30.5t-12 28.5h76q-14 -12 -12 -32.5 t2 -36.5v-142q0 -16 -2 -49t10 -47q14 -23 37.5 -8.5t28.5 33.5q8 27 2.5 54t-9.5 54q-4 14 -10 38t-8 48.5t2 46t21 33.5q10 10 31.5 10t29.5 -16q6 -16 -2 -21.5t-18.5 -4.5t-17.5 8.5t1 15.5q-16 -8 -17 -28.5t6 -44t17 -46.5t15 -35q12 -37 17 -87t-22 -85 q-10 -14 -33.5 -19t-50 -5t-53 3t-41.5 3zM655 987q12 -2 28.5 15.5t18.5 27.5q4 8 -2 12.5t-12 -2.5q-10 -10 -18.5 -24.5t-14.5 -28.5zM715 -328q0 14 9 22.5t21.5 8.5t21.5 -8t9 -23q0 -16 -9 -23t-21.5 -7t-21.5 7t-9 23zM776 1124q-2 -8 4 -20h4q0 8 1 13t-1 13 q-6 0 -8 -6zM780 4q10 14 13.5 34.5t2.5 44t-4.5 46.5t-3.5 39v172q0 10 -8 22h58q29 -12 51 -50t35 -66q0 25 2 59.5t-13 56.5h74q-12 -10 -11 -24t1 -29v-246q0 -14 -1 -31.5t11 -27.5h-207zM797 -356l59 223h64l59 -223h-51l-15 51h-53l-10 -51h-53zM844 47 q0 -14 11 -23.5t25.5 -11.5t28 3.5t15.5 19.5q-4 63 -21.5 127.5t-58.5 116.5v-232zM865 506.5q-3 19.5 7 32.5q10 12 33 13t27 -22q0 -10 -7 -15t-15.5 -5t-14.5 4t-6 14q-12 -4 -12 -14t7 -20.5t17 -19.5t17 -11q14 -4 34.5 -4t30.5 10q20 20 16 40.5t-19 38t-35.5 32 t-31.5 24.5q-18 16 -30.5 42t-12.5 52.5t13.5 48t44.5 27.5q27 6 54.5 4t51.5 -2l-6 -10q0 -14 7 -29.5t13.5 -31t5.5 -29.5t-16 -27q-14 -10 -33.5 -9t-21.5 22q0 12 7 17t15.5 5t14.5 -5t4 -13q14 2 14 12t-8 21.5t-18.5 20.5t-18.5 11q-14 4 -32.5 1t-24.5 -19 q-12 -25 -4 -43.5t24.5 -32.5t37 -27.5t32.5 -27.5q14 -20 22.5 -47t4.5 -52.5t-20.5 -44t-47.5 -22.5q-27 -2 -53.5 -1t-54.5 1q8 4 5 19.5t-8.5 33.5t-8.5 37.5zM866 -266h41q-4 23 -9 46t-11 46zM874 1014q4 -12 16.5 -10t14.5 14q2 18 -10 43q-6 -8 -14.5 -22.5 t-6.5 -24.5zM991 1059l4 -15q10 -14 25 -6q16 4 23.5 21.5t3.5 34.5q-2 10 -9.5 16t-21.5 -4q-20 -14 -25 -47zM997 4q12 14 15.5 36.5t2.5 47.5t-4 48.5t-3 39.5v127q0 16 1 29.5t-12 29.5h76q-10 -10 -13 -30.5t-2 -42t3 -43t2 -35.5v-166h104q23 0 55.5 -3t55.5 13 q-4 -8 -7 -29.5t-14 -21.5h-260zM1006 -135q29 4 64.5 6t62.5 -14q31 -23 22.5 -58t-37.5 -49q14 -6 21.5 -19.5t10.5 -28.5t5 -30.5t8 -27.5h-51q-6 12 -8 27.5t-6 28.5t-12.5 22.5t-26.5 7.5v-86h-53v221zM1057 -196.5q2 -24.5 2 -34.5h12q18 0 26.5 10t6.5 22.5 t-11.5 21.5t-27.5 7q-10 -2 -8 -26.5zM1065 416q10 12 11 25.5t1 27.5v248q0 14 -1 30.5t-11 28.5h127q25 -25 25.5 -59.5t-9.5 -67.5q-4 -8 -15 -29.5t-20.5 -45t-11.5 -45t10 -27.5q-6 12 4.5 13t21.5 -4t14 -14.5t-17 -17.5q-25 -10 -35 9.5t-8 35.5q0 16 6 32.5t8 31 t-4 22.5t-28 6v-155q16 0 41.5 -3t44.5 11q-6 -14 -8.5 -26.5t-6.5 -26.5h-139zM1098 362h78q-12 -29 2 -65.5t26 -60.5q12 29 22.5 62.5t0.5 63.5h80q-23 -12 -27 -38.5t-10 -47.5q-6 -20 -23.5 -47.5t-17.5 -48.5q0 -23 -3 -56.5t13 -51.5h-76q18 18 14.5 53.5t-3.5 58.5 q-12 23 -21.5 46.5t-17.5 45.5q-10 23 -14.5 46.5t-22.5 39.5zM1133 662q20 0 45.5 2t27.5 32q0 16 -7 23.5t-18.5 10.5t-24.5 3h-23v-71zM1192 -133h53v-223h-53v223zM1245 1092q-4 -10 1 -27.5t22 -3.5q12 12 21 33t11 39q-2 8 -4 13t-12 1q-16 -8 -25.5 -23.5 t-13.5 -31.5zM1274 -328q0 14 9 22.5t21.5 8.5t21.5 -8t9 -23q0 -16 -9 -23t-21.5 -7t-21.5 7t-9 23zM1294 813q-8 -6 4 -8q27 -10 57.5 -13.5t62.5 -3.5h62.5t59.5 -2t57.5 -5t57.5 -13q29 -8 51.5 -23.5t48.5 -27.5q0 61 -21.5 106t-80.5 68q35 31 69.5 58.5t75.5 43.5 q-49 47 -110.5 77t-126.5 46q-2 -57 -3.5 -112.5t-5.5 -112.5l-2 2v-6q-27 -2 -64.5 -4t-74.5 -9.5t-68.5 -21.5t-48.5 -39zM1364 -133h57l68 -152q-4 39 -4 77v75h47v-223h-51q-20 39 -37 78.5t-35 76.5q2 -39 2 -77.5v-77.5h-47v223zM1393 1157q16 20 31.5 40t19.5 46h-2 q-37 -37 -49 -86zM1562.5 -268q-8.5 37 14.5 80q12 29 40 43t62 14h10.5t17.5 -2t16.5 -4t7.5 -4l-9 -41q-27 12 -48 8t-36.5 -18.5t-20.5 -37t3 -46.5q16 -47 61 -41q10 2 8.5 21.5t-1.5 27.5h-27v41h76v-121q-41 -16 -79 -9t-62.5 29.5t-33 59.5z" />
<glyph unicode="8" d="M35 813q70 37 137.5 67.5t144.5 53.5q4 0 8.5 20.5t8.5 45t8 48t8 31.5q23 35 68 53.5t78 34.5q88 35 179 61.5t183 51.5q94 23 188.5 39t190.5 24q33 4 80 8.5t95 3.5t92 -12.5t71 -37.5q2 -4 -2 -29t-6 -33l-6 -98q0 -4 4 -4q78 -23 152.5 -58.5t123.5 -103.5v-2 q-16 4 -36.5 -3t-41 -20.5t-38 -28t-27.5 -26.5q31 -16 50 -47t27.5 -66.5t6.5 -72.5t-13 -68q-16 43 -49.5 66.5t-74.5 35t-85 14.5t-83 5q-45 4 -94.5 2t-92.5 14q-16 6 -22 25.5t-7 43t2 46.5t5 37q-184 -14 -363.5 -56t-351.5 -102q-8 -2 -8 -6q2 -10 8 -33.5t10 -50.5 t6 -49.5t-6 -28.5q-23 -18 -58.5 -21t-64.5 -7q-39 -6 -78.5 -12.5t-78.5 -12.5q-35 -8 -67 -17.5t-62 -21.5q-14 -8 -28.5 -13t-29.5 -16q-8 -8 -18 -20t-17 -16q10 35 24.5 67.5t27.5 63.5q2 6 13 25.5t21.5 41t18.5 39t6 21.5q-25 35 -58.5 67.5t-78.5 36.5zM86 -133h47 q4 -41 7 -83t12 -83q4 41 10 83t14 83h37l25 -166q4 41 9 83t9 83h43l-43 -223h-43q-6 37 -11 73.5t-9 73.5q-4 -37 -11.5 -73.5t-13.5 -73.5h-43zM90 819q68 -37 109 -108q2 -2 -4.5 -15.5t-14.5 -29t-15 -28.5t-9 -20q-25 -45 -41 -94q51 27 104 39t108.5 20.5t110 15.5 t107.5 24q-18 18 -47 25t-62 8t-65.5 -2t-55.5 -5v131t4 131q-59 -16 -116.5 -39.5t-112.5 -52.5zM305 -133h45q4 -41 8 -83t11 -83q4 41 10 83t14 83h39l23 -166q4 41 9 83t9 83h43l-43 -223h-41q-8 37 -13 73.5t-9 73.5q-4 -37 -10.5 -73.5t-12.5 -73.5h-45zM342 709 q8 0 22.5 6t29 15t27.5 18.5t23 13.5q37 16 75 29.5t77 27.5q78 23 155.5 43.5t159.5 38.5q78 16 155 31.5t157 21.5q72 8 154.5 11.5t152.5 -29.5q6 55 6 112.5t4 110.5q0 29 2 57.5t6 57.5q2 14 -6 22.5t-20.5 13.5t-26.5 7t-27 4q-119 18 -245.5 1t-245.5 -42 q-129 -27 -255 -60.5t-249 -86.5q-23 -12 -46.5 -24.5t-43.5 -29.5q-20 -16 -24.5 -49t-8.5 -55q-8 -66 -8 -132.5v-133.5zM367 825q0 23 15 38.5t36 19.5q6 2 15 -2t5 -15q-12 -8 -22 -8q-12 -4 -16.5 -16.5t1.5 -22.5q4 -4 8.5 -5t8.5 -3q20 -2 33.5 11.5t22.5 34t13.5 41 t8.5 34.5q-27 -27 -62 -35q-27 -4 -43 12q-16 8 -16 37q0 27 12 51q27 61 86 99q12 6 25.5 12t27.5 10q10 4 21.5 12.5t21.5 10.5q12 -1 6 -13q12 0 21 -2q16 -2 27.5 -15t13.5 -32q6 -43 -23.5 -83t-66.5 -62q-18 -12 -27.5 -31.5t-18.5 -39t-20.5 -38t-34.5 -28.5 q-23 -16 -53 -11q-12 4 -20 14.5t-6 24.5zM405.5 937q2.5 -15 22.5 -15q31 0 49.5 19.5t30.5 47t18.5 58.5t10.5 51q-29 -6 -52.5 -23.5t-44.5 -38.5q-6 -6 -15 -25.5t-15.5 -39t-4 -34.5zM522 -133h45q4 -41 9.5 -83t9.5 -83q4 41 10 83t14 83h39l25 -166q2 41 7 83t11 83 h41l-41 -223h-43q-8 37 -12 73.5t-10 73.5q-4 -37 -10.5 -73.5t-12.5 -73.5h-43zM530 950q14 4 29.5 19.5t26 35t14.5 40t0 34.5q-6 23 -33 23q-14 -37 -20.5 -75t-16.5 -77zM582 138q2 34 2 61q0 20 -1 38.5t1 38.5q0 49 26.5 67.5t73.5 18.5q37 0 54.5 -20t23.5 -50 t4 -63.5t-2 -60.5v-80q0 -47 -26.5 -66.5t-71.5 -17.5q-39 0 -56.5 20.5t-23.5 50t-4 63.5zM628 952.5q-5 20.5 6 46t31.5 46t43.5 22.5q12 0 16 -10q8 -12 2 -29q-6 -23 -27.5 -40t-44.5 -21q2 -12 10.5 -13.5t17.5 3t17.5 10.5t12.5 10q25 20 36 46t21 52q2 2 -1 9.5 t-8 15.5t-8 17t-1 16q10 27 34 22q12 0 17 -12q4 -10 2 -22.5t-2 -24.5q20 2 28.5 -1t-4.5 -28q-8 -16 -17 -33.5t-11 -36.5q0 -10 6 -10q20 0 34.5 20.5t26 46t22.5 51t25 34.5q8 2 17 -2q2 -4 2 -13q-4 -12 -10.5 -21t-1.5 -24q6 -12 13 -25.5t5 -27.5h2q20 25 32.5 60.5 t45.5 52.5q37 14 49 -21q10 -14 6 -25.5t-2 -27.5q8 2 14 10q16 12 18.5 35t8.5 41q4 4 11 5t12 -1q10 -2 8 -12v-2q10 10 24 16q10 6 17.5 2t11.5 -14q4 -12 1 -22.5t-8 -21.5t-10 -22.5t-3 -23.5q14 12 24 26.5t18.5 29.5t17.5 28.5t26 23.5q20 10 51 0q4 6 17 8.5 t9 -14.5q-4 -18 -14 -38.5t-10 -41.5q0 -14 8 -2q20 20 30.5 48t19.5 55.5t23.5 53t43.5 42.5q14 8 24 -8q12 -23 4 -48.5t-24 -41.5q-14 -18 -43 -44t-25 -53q4 -16 23 -12q14 6 21 19.5t16 25.5q4 2 12 2t8 -10l-4 -12q-16 -39 -53 -54q-25 -14 -43 15q-4 4 -4 10 q-10 -8 -16.5 -15.5t-18.5 -11.5q-10 -4 -16.5 0t-12.5 8q-4 -4 -12 -8t-16 -6q-31 -6 -43 21v2q-8 -10 -17.5 -17.5t-23.5 -11.5q-14 -8 -25 12q-6 12 -3 23.5t8 22t9 21.5t2 23q-18 -8 -25 -19t-11.5 -25.5t-6.5 -29t-8 -28.5q-6 -16 -24 -8q-8 2 -9 10q0 4 1 9t1 7 q-14 -4 -19 -4t-15 -10t-24.5 -18.5t-31.5 -8.5q-10 2 -16 8.5t-10 14.5q-16 -16 -40 -32.5t-50 -12.5q-16 2 -25 18q-25 -29 -51 -36q-29 -12 -33 20q-4 27 8.5 44t22.5 38q2 4 -3 5t-7 -3q-8 -20 -18.5 -44t-26 -45.5t-36 -34.5t-46.5 -11q-31 2 -36 22.5zM638 163 q-1 -38 1 -75q0 -16 9 -26.5t21.5 -14.5t24 1t15.5 24q2 12 2 27.5v29.5v147q0 16 -10.5 27.5t-22.5 16t-23.5 -2t-15.5 -22.5q-2 -14 -1 -29.5t1 -27.5q0 -37 -1 -75zM653 416q12 14 15.5 36.5t2.5 48t-4 49t-3 42.5v125q0 16 1 30.5t-12 28.5h76q-14 -12 -12 -32.5 t2 -36.5v-142q0 -16 -2 -49t10 -47q14 -23 37.5 -8.5t28.5 33.5q8 27 2.5 54t-9.5 54q-4 14 -10 38t-8 48.5t2 46t21 33.5q10 10 31.5 10t29.5 -16q6 -16 -2 -21.5t-18.5 -4.5t-17.5 8.5t1 15.5q-16 -8 -17 -28.5t6 -44t17 -46.5t15 -35q12 -37 17 -87t-22 -85 q-10 -14 -33.5 -19t-50 -5t-53 3t-41.5 3zM655 987q12 -2 28.5 15.5t18.5 27.5q4 8 -2 12.5t-12 -2.5q-10 -10 -18.5 -24.5t-14.5 -28.5zM715 -328q0 14 9 22.5t21.5 8.5t21.5 -8t9 -23q0 -16 -9 -23t-21.5 -7t-21.5 7t-9 23zM776 1124q-2 -8 4 -20h4q0 8 1 13t-1 13 q-6 0 -8 -6zM780 4q10 14 13.5 34.5t2.5 44t-4.5 46.5t-3.5 39v172q0 10 -8 22h58q29 -12 51 -50t35 -66q0 25 2 59.5t-13 56.5h74q-12 -10 -11 -24t1 -29v-246q0 -14 -1 -31.5t11 -27.5h-207zM797 -356l59 223h64l59 -223h-51l-15 51h-53l-10 -51h-53zM844 47 q0 -14 11 -23.5t25.5 -11.5t28 3.5t15.5 19.5q-4 63 -21.5 127.5t-58.5 116.5v-232zM865 506.5q-3 19.5 7 32.5q10 12 33 13t27 -22q0 -10 -7 -15t-15.5 -5t-14.5 4t-6 14q-12 -4 -12 -14t7 -20.5t17 -19.5t17 -11q14 -4 34.5 -4t30.5 10q20 20 16 40.5t-19 38t-35.5 32 t-31.5 24.5q-18 16 -30.5 42t-12.5 52.5t13.5 48t44.5 27.5q27 6 54.5 4t51.5 -2l-6 -10q0 -14 7 -29.5t13.5 -31t5.5 -29.5t-16 -27q-14 -10 -33.5 -9t-21.5 22q0 12 7 17t15.5 5t14.5 -5t4 -13q14 2 14 12t-8 21.5t-18.5 20.5t-18.5 11q-14 4 -32.5 1t-24.5 -19 q-12 -25 -4 -43.5t24.5 -32.5t37 -27.5t32.5 -27.5q14 -20 22.5 -47t4.5 -52.5t-20.5 -44t-47.5 -22.5q-27 -2 -53.5 -1t-54.5 1q8 4 5 19.5t-8.5 33.5t-8.5 37.5zM866 -266h41q-4 23 -9 46t-11 46zM874 1014q4 -12 16.5 -10t14.5 14q2 18 -10 43q-6 -8 -14.5 -22.5 t-6.5 -24.5zM991 1059l4 -15q10 -14 25 -6q16 4 23.5 21.5t3.5 34.5q-2 10 -9.5 16t-21.5 -4q-20 -14 -25 -47zM997 4q12 14 15.5 36.5t2.5 47.5t-4 48.5t-3 39.5v127q0 16 1 29.5t-12 29.5h76q-10 -10 -13 -30.5t-2 -42t3 -43t2 -35.5v-166h104q23 0 55.5 -3t55.5 13 q-4 -8 -7 -29.5t-14 -21.5h-260zM1006 -135q29 4 64.5 6t62.5 -14q31 -23 22.5 -58t-37.5 -49q14 -6 21.5 -19.5t10.5 -28.5t5 -30.5t8 -27.5h-51q-6 12 -8 27.5t-6 28.5t-12.5 22.5t-26.5 7.5v-86h-53v221zM1057 -196.5q2 -24.5 2 -34.5h12q18 0 26.5 10t6.5 22.5 t-11.5 21.5t-27.5 7q-10 -2 -8 -26.5zM1065 416q10 12 11 25.5t1 27.5v248q0 14 -1 30.5t-11 28.5h127q25 -25 25.5 -59.5t-9.5 -67.5q-4 -8 -15 -29.5t-20.5 -45t-11.5 -45t10 -27.5q-6 12 4.5 13t21.5 -4t14 -14.5t-17 -17.5q-25 -10 -35 9.5t-8 35.5q0 16 6 32.5t8 31 t-4 22.5t-28 6v-155q16 0 41.5 -3t44.5 11q-6 -14 -8.5 -26.5t-6.5 -26.5h-139zM1098 362h78q-12 -29 2 -65.5t26 -60.5q12 29 22.5 62.5t0.5 63.5h80q-23 -12 -27 -38.5t-10 -47.5q-6 -20 -23.5 -47.5t-17.5 -48.5q0 -23 -3 -56.5t13 -51.5h-76q18 18 14.5 53.5t-3.5 58.5 q-12 23 -21.5 46.5t-17.5 45.5q-10 23 -14.5 46.5t-22.5 39.5zM1133 662q20 0 45.5 2t27.5 32q0 16 -7 23.5t-18.5 10.5t-24.5 3h-23v-71zM1192 -133h53v-223h-53v223zM1245 1092q-4 -10 1 -27.5t22 -3.5q12 12 21 33t11 39q-2 8 -4 13t-12 1q-16 -8 -25.5 -23.5 t-13.5 -31.5zM1274 -328q0 14 9 22.5t21.5 8.5t21.5 -8t9 -23q0 -16 -9 -23t-21.5 -7t-21.5 7t-9 23zM1294 813q-8 -6 4 -8q27 -10 57.5 -13.5t62.5 -3.5h62.5t59.5 -2t57.5 -5t57.5 -13q29 -8 51.5 -23.5t48.5 -27.5q0 61 -21.5 106t-80.5 68q35 31 69.5 58.5t75.5 43.5 q-49 47 -110.5 77t-126.5 46q-2 -57 -3.5 -112.5t-5.5 -112.5l-2 2v-6q-27 -2 -64.5 -4t-74.5 -9.5t-68.5 -21.5t-48.5 -39zM1364 -133h57l68 -152q-4 39 -4 77v75h47v-223h-51q-20 39 -37 78.5t-35 76.5q2 -39 2 -77.5v-77.5h-47v223zM1393 1157q16 20 31.5 40t19.5 46h-2 q-37 -37 -49 -86zM1562.5 -268q-8.5 37 14.5 80q12 29 40 43t62 14h10.5t17.5 -2t16.5 -4t7.5 -4l-9 -41q-27 12 -48 8t-36.5 -18.5t-20.5 -37t3 -46.5q16 -47 61 -41q10 2 8.5 21.5t-1.5 27.5h-27v41h76v-121q-41 -16 -79 -9t-62.5 29.5t-33 59.5z" />
<glyph unicode="9" d="M35 813q70 37 137.5 67.5t144.5 53.5q4 0 8.5 20.5t8.5 45t8 48t8 31.5q23 35 68 53.5t78 34.5q88 35 179 61.5t183 51.5q94 23 188.5 39t190.5 24q33 4 80 8.5t95 3.5t92 -12.5t71 -37.5q2 -4 -2 -29t-6 -33l-6 -98q0 -4 4 -4q78 -23 152.5 -58.5t123.5 -103.5v-2 q-16 4 -36.5 -3t-41 -20.5t-38 -28t-27.5 -26.5q31 -16 50 -47t27.5 -66.5t6.5 -72.5t-13 -68q-16 43 -49.5 66.5t-74.5 35t-85 14.5t-83 5q-45 4 -94.5 2t-92.5 14q-16 6 -22 25.5t-7 43t2 46.5t5 37q-184 -14 -363.5 -56t-351.5 -102q-8 -2 -8 -6q2 -10 8 -33.5t10 -50.5 t6 -49.5t-6 -28.5q-23 -18 -58.5 -21t-64.5 -7q-39 -6 -78.5 -12.5t-78.5 -12.5q-35 -8 -67 -17.5t-62 -21.5q-14 -8 -28.5 -13t-29.5 -16q-8 -8 -18 -20t-17 -16q10 35 24.5 67.5t27.5 63.5q2 6 13 25.5t21.5 41t18.5 39t6 21.5q-25 35 -58.5 67.5t-78.5 36.5zM86 -133h47 q4 -41 7 -83t12 -83q4 41 10 83t14 83h37l25 -166q4 41 9 83t9 83h43l-43 -223h-43q-6 37 -11 73.5t-9 73.5q-4 -37 -11.5 -73.5t-13.5 -73.5h-43zM90 819q68 -37 109 -108q2 -2 -4.5 -15.5t-14.5 -29t-15 -28.5t-9 -20q-25 -45 -41 -94q51 27 104 39t108.5 20.5t110 15.5 t107.5 24q-18 18 -47 25t-62 8t-65.5 -2t-55.5 -5v131t4 131q-59 -16 -116.5 -39.5t-112.5 -52.5zM305 -133h45q4 -41 8 -83t11 -83q4 41 10 83t14 83h39l23 -166q4 41 9 83t9 83h43l-43 -223h-41q-8 37 -13 73.5t-9 73.5q-4 -37 -10.5 -73.5t-12.5 -73.5h-45zM342 709 q8 0 22.5 6t29 15t27.5 18.5t23 13.5q37 16 75 29.5t77 27.5q78 23 155.5 43.5t159.5 38.5q78 16 155 31.5t157 21.5q72 8 154.5 11.5t152.5 -29.5q6 55 6 112.5t4 110.5q0 29 2 57.5t6 57.5q2 14 -6 22.5t-20.5 13.5t-26.5 7t-27 4q-119 18 -245.5 1t-245.5 -42 q-129 -27 -255 -60.5t-249 -86.5q-23 -12 -46.5 -24.5t-43.5 -29.5q-20 -16 -24.5 -49t-8.5 -55q-8 -66 -8 -132.5v-133.5zM367 825q0 23 15 38.5t36 19.5q6 2 15 -2t5 -15q-12 -8 -22 -8q-12 -4 -16.5 -16.5t1.5 -22.5q4 -4 8.5 -5t8.5 -3q20 -2 33.5 11.5t22.5 34t13.5 41 t8.5 34.5q-27 -27 -62 -35q-27 -4 -43 12q-16 8 -16 37q0 27 12 51q27 61 86 99q12 6 25.5 12t27.5 10q10 4 21.5 12.5t21.5 10.5q12 -1 6 -13q12 0 21 -2q16 -2 27.5 -15t13.5 -32q6 -43 -23.5 -83t-66.5 -62q-18 -12 -27.5 -31.5t-18.5 -39t-20.5 -38t-34.5 -28.5 q-23 -16 -53 -11q-12 4 -20 14.5t-6 24.5zM405.5 937q2.5 -15 22.5 -15q31 0 49.5 19.5t30.5 47t18.5 58.5t10.5 51q-29 -6 -52.5 -23.5t-44.5 -38.5q-6 -6 -15 -25.5t-15.5 -39t-4 -34.5zM522 -133h45q4 -41 9.5 -83t9.5 -83q4 41 10 83t14 83h39l25 -166q2 41 7 83t11 83 h41l-41 -223h-43q-8 37 -12 73.5t-10 73.5q-4 -37 -10.5 -73.5t-12.5 -73.5h-43zM530 950q14 4 29.5 19.5t26 35t14.5 40t0 34.5q-6 23 -33 23q-14 -37 -20.5 -75t-16.5 -77zM582 138q2 34 2 61q0 20 -1 38.5t1 38.5q0 49 26.5 67.5t73.5 18.5q37 0 54.5 -20t23.5 -50 t4 -63.5t-2 -60.5v-80q0 -47 -26.5 -66.5t-71.5 -17.5q-39 0 -56.5 20.5t-23.5 50t-4 63.5zM628 952.5q-5 20.5 6 46t31.5 46t43.5 22.5q12 0 16 -10q8 -12 2 -29q-6 -23 -27.5 -40t-44.5 -21q2 -12 10.5 -13.5t17.5 3t17.5 10.5t12.5 10q25 20 36 46t21 52q2 2 -1 9.5 t-8 15.5t-8 17t-1 16q10 27 34 22q12 0 17 -12q4 -10 2 -22.5t-2 -24.5q20 2 28.5 -1t-4.5 -28q-8 -16 -17 -33.5t-11 -36.5q0 -10 6 -10q20 0 34.5 20.5t26 46t22.5 51t25 34.5q8 2 17 -2q2 -4 2 -13q-4 -12 -10.5 -21t-1.5 -24q6 -12 13 -25.5t5 -27.5h2q20 25 32.5 60.5 t45.5 52.5q37 14 49 -21q10 -14 6 -25.5t-2 -27.5q8 2 14 10q16 12 18.5 35t8.5 41q4 4 11 5t12 -1q10 -2 8 -12v-2q10 10 24 16q10 6 17.5 2t11.5 -14q4 -12 1 -22.5t-8 -21.5t-10 -22.5t-3 -23.5q14 12 24 26.5t18.5 29.5t17.5 28.5t26 23.5q20 10 51 0q4 6 17 8.5 t9 -14.5q-4 -18 -14 -38.5t-10 -41.5q0 -14 8 -2q20 20 30.5 48t19.5 55.5t23.5 53t43.5 42.5q14 8 24 -8q12 -23 4 -48.5t-24 -41.5q-14 -18 -43 -44t-25 -53q4 -16 23 -12q14 6 21 19.5t16 25.5q4 2 12 2t8 -10l-4 -12q-16 -39 -53 -54q-25 -14 -43 15q-4 4 -4 10 q-10 -8 -16.5 -15.5t-18.5 -11.5q-10 -4 -16.5 0t-12.5 8q-4 -4 -12 -8t-16 -6q-31 -6 -43 21v2q-8 -10 -17.5 -17.5t-23.5 -11.5q-14 -8 -25 12q-6 12 -3 23.5t8 22t9 21.5t2 23q-18 -8 -25 -19t-11.5 -25.5t-6.5 -29t-8 -28.5q-6 -16 -24 -8q-8 2 -9 10q0 4 1 9t1 7 q-14 -4 -19 -4t-15 -10t-24.5 -18.5t-31.5 -8.5q-10 2 -16 8.5t-10 14.5q-16 -16 -40 -32.5t-50 -12.5q-16 2 -25 18q-25 -29 -51 -36q-29 -12 -33 20q-4 27 8.5 44t22.5 38q2 4 -3 5t-7 -3q-8 -20 -18.5 -44t-26 -45.5t-36 -34.5t-46.5 -11q-31 2 -36 22.5zM638 163 q-1 -38 1 -75q0 -16 9 -26.5t21.5 -14.5t24 1t15.5 24q2 12 2 27.5v29.5v147q0 16 -10.5 27.5t-22.5 16t-23.5 -2t-15.5 -22.5q-2 -14 -1 -29.5t1 -27.5q0 -37 -1 -75zM653 416q12 14 15.5 36.5t2.5 48t-4 49t-3 42.5v125q0 16 1 30.5t-12 28.5h76q-14 -12 -12 -32.5 t2 -36.5v-142q0 -16 -2 -49t10 -47q14 -23 37.5 -8.5t28.5 33.5q8 27 2.5 54t-9.5 54q-4 14 -10 38t-8 48.5t2 46t21 33.5q10 10 31.5 10t29.5 -16q6 -16 -2 -21.5t-18.5 -4.5t-17.5 8.5t1 15.5q-16 -8 -17 -28.5t6 -44t17 -46.5t15 -35q12 -37 17 -87t-22 -85 q-10 -14 -33.5 -19t-50 -5t-53 3t-41.5 3zM655 987q12 -2 28.5 15.5t18.5 27.5q4 8 -2 12.5t-12 -2.5q-10 -10 -18.5 -24.5t-14.5 -28.5zM715 -328q0 14 9 22.5t21.5 8.5t21.5 -8t9 -23q0 -16 -9 -23t-21.5 -7t-21.5 7t-9 23zM776 1124q-2 -8 4 -20h4q0 8 1 13t-1 13 q-6 0 -8 -6zM780 4q10 14 13.5 34.5t2.5 44t-4.5 46.5t-3.5 39v172q0 10 -8 22h58q29 -12 51 -50t35 -66q0 25 2 59.5t-13 56.5h74q-12 -10 -11 -24t1 -29v-246q0 -14 -1 -31.5t11 -27.5h-207zM797 -356l59 223h64l59 -223h-51l-15 51h-53l-10 -51h-53zM844 47 q0 -14 11 -23.5t25.5 -11.5t28 3.5t15.5 19.5q-4 63 -21.5 127.5t-58.5 116.5v-232zM865 506.5q-3 19.5 7 32.5q10 12 33 13t27 -22q0 -10 -7 -15t-15.5 -5t-14.5 4t-6 14q-12 -4 -12 -14t7 -20.5t17 -19.5t17 -11q14 -4 34.5 -4t30.5 10q20 20 16 40.5t-19 38t-35.5 32 t-31.5 24.5q-18 16 -30.5 42t-12.5 52.5t13.5 48t44.5 27.5q27 6 54.5 4t51.5 -2l-6 -10q0 -14 7 -29.5t13.5 -31t5.5 -29.5t-16 -27q-14 -10 -33.5 -9t-21.5 22q0 12 7 17t15.5 5t14.5 -5t4 -13q14 2 14 12t-8 21.5t-18.5 20.5t-18.5 11q-14 4 -32.5 1t-24.5 -19 q-12 -25 -4 -43.5t24.5 -32.5t37 -27.5t32.5 -27.5q14 -20 22.5 -47t4.5 -52.5t-20.5 -44t-47.5 -22.5q-27 -2 -53.5 -1t-54.5 1q8 4 5 19.5t-8.5 33.5t-8.5 37.5zM866 -266h41q-4 23 -9 46t-11 46zM874 1014q4 -12 16.5 -10t14.5 14q2 18 -10 43q-6 -8 -14.5 -22.5 t-6.5 -24.5zM991 1059l4 -15q10 -14 25 -6q16 4 23.5 21.5t3.5 34.5q-2 10 -9.5 16t-21.5 -4q-20 -14 -25 -47zM997 4q12 14 15.5 36.5t2.5 47.5t-4 48.5t-3 39.5v127q0 16 1 29.5t-12 29.5h76q-10 -10 -13 -30.5t-2 -42t3 -43t2 -35.5v-166h104q23 0 55.5 -3t55.5 13 q-4 -8 -7 -29.5t-14 -21.5h-260zM1006 -135q29 4 64.5 6t62.5 -14q31 -23 22.5 -58t-37.5 -49q14 -6 21.5 -19.5t10.5 -28.5t5 -30.5t8 -27.5h-51q-6 12 -8 27.5t-6 28.5t-12.5 22.5t-26.5 7.5v-86h-53v221zM1057 -196.5q2 -24.5 2 -34.5h12q18 0 26.5 10t6.5 22.5 t-11.5 21.5t-27.5 7q-10 -2 -8 -26.5zM1065 416q10 12 11 25.5t1 27.5v248q0 14 -1 30.5t-11 28.5h127q25 -25 25.5 -59.5t-9.5 -67.5q-4 -8 -15 -29.5t-20.5 -45t-11.5 -45t10 -27.5q-6 12 4.5 13t21.5 -4t14 -14.5t-17 -17.5q-25 -10 -35 9.5t-8 35.5q0 16 6 32.5t8 31 t-4 22.5t-28 6v-155q16 0 41.5 -3t44.5 11q-6 -14 -8.5 -26.5t-6.5 -26.5h-139zM1098 362h78q-12 -29 2 -65.5t26 -60.5q12 29 22.5 62.5t0.5 63.5h80q-23 -12 -27 -38.5t-10 -47.5q-6 -20 -23.5 -47.5t-17.5 -48.5q0 -23 -3 -56.5t13 -51.5h-76q18 18 14.5 53.5t-3.5 58.5 q-12 23 -21.5 46.5t-17.5 45.5q-10 23 -14.5 46.5t-22.5 39.5zM1133 662q20 0 45.5 2t27.5 32q0 16 -7 23.5t-18.5 10.5t-24.5 3h-23v-71zM1192 -133h53v-223h-53v223zM1245 1092q-4 -10 1 -27.5t22 -3.5q12 12 21 33t11 39q-2 8 -4 13t-12 1q-16 -8 -25.5 -23.5 t-13.5 -31.5zM1274 -328q0 14 9 22.5t21.5 8.5t21.5 -8t9 -23q0 -16 -9 -23t-21.5 -7t-21.5 7t-9 23zM1294 813q-8 -6 4 -8q27 -10 57.5 -13.5t62.5 -3.5h62.5t59.5 -2t57.5 -5t57.5 -13q29 -8 51.5 -23.5t48.5 -27.5q0 61 -21.5 106t-80.5 68q35 31 69.5 58.5t75.5 43.5 q-49 47 -110.5 77t-126.5 46q-2 -57 -3.5 -112.5t-5.5 -112.5l-2 2v-6q-27 -2 -64.5 -4t-74.5 -9.5t-68.5 -21.5t-48.5 -39zM1364 -133h57l68 -152q-4 39 -4 77v75h47v-223h-51q-20 39 -37 78.5t-35 76.5q2 -39 2 -77.5v-77.5h-47v223zM1393 1157q16 20 31.5 40t19.5 46h-2 q-37 -37 -49 -86zM1562.5 -268q-8.5 37 14.5 80q12 29 40 43t62 14h10.5t17.5 -2t16.5 -4t7.5 -4l-9 -41q-27 12 -48 8t-36.5 -18.5t-20.5 -37t3 -46.5q16 -47 61 -41q10 2 8.5 21.5t-1.5 27.5h-27v41h76v-121q-41 -16 -79 -9t-62.5 29.5t-33 59.5z" />
<glyph unicode=":" horiz-adv-x="552" d="M2 37q2 16 14.5 29.5t22.5 23.5q33 31 68.5 61.5t68.5 26.5q35 -2 56.5 -32.5t13.5 -65.5q-4 -16 -18.5 -27.5t-26.5 -21.5l-68 -54q-14 -12 -25.5 -19t-29.5 -5q-35 4 -55.5 29.5t-20.5 54.5zM303 455.5q8 29.5 31 52.5q29 29 65.5 59.5t71.5 34.5q39 4 63.5 -28.5 t14.5 -67.5q-4 -16 -27.5 -34.5t-87.5 -70.5q-12 -10 -23.5 -18t-27.5 -8q-39 0 -59 22q-29 29 -21 58.5z" />
<glyph unicode=";" horiz-adv-x="552" d="M-72 -176q-88 27 9 153q37 47 79.5 89.5t89.5 78.5q25 18 45.5 27.5t49.5 -8.5q23 -16 32 -39.5t3 -50.5q-6 -23 -27 -36t-37 -26q-25 -20 -47.5 -40.5t-44.5 -43.5l-82 -80q-16 -16 -31.5 -25t-38.5 1zM303 455q0 16 10.5 29.5t20.5 23.5q35 35 67 59q16 10 34 21.5 t36 13.5q39 4 63.5 -28.5t14.5 -67.5q-4 -16 -18.5 -28.5t-28.5 -22.5l-68 -54q-12 -10 -23.5 -18t-27.5 -8q-37 0 -58.5 23.5t-21.5 56.5z" />
<glyph unicode="&#x3c;" horiz-adv-x="800" d="M187.5 324.5q5.5 9.5 15.5 19.5q33 29 68.5 57.5t76.5 57t90 61.5t109 72q20 14 39.5 9t34 -20.5t22.5 -38t8 -40.5q0 -16 -20 -27q-14 -10 -27.5 -18t-28.5 -17q-6 -4 -27.5 -17t-51 -31.5t-61.5 -38t-55.5 -35t-36.5 -23.5t-5 -4l51 -103q10 -18 18.5 -37.5t16.5 -39.5 q14 -31 -21 -56q-29 -23 -65 -16q-16 4 -22.5 17.5t-12.5 27.5q-10 20 -24.5 48t-30 58.5t-31.5 60.5t-29 54q-6 10 -0.5 19.5z" />
<glyph unicode="=" horiz-adv-x="1019" d="M44 216q1 15 7 26q6 16 18.5 18t28.5 4q72 10 132.5 19.5t120 16.5t123 14.5t140.5 13.5q16 2 39 5t39 -7t23.5 -25.5t7.5 -34t-6.5 -36t-14.5 -29.5q-10 -12 -26.5 -13.5t-32.5 -1.5q-115 -10 -188.5 -15t-126 -9t-94 -8t-91.5 -9q-14 -2 -31.5 -4t-31.5 2 q-14 2 -22.5 14.5t-11.5 28t-2 30.5zM164 431q2 15 8 28q6 14 18.5 17t26.5 5q72 8 131.5 15.5t118.5 14.5t123.5 15.5t144.5 18.5q16 2 39 5t39 -7q14 -10 21.5 -26.5t7.5 -35t-5.5 -36t-13.5 -29.5q-10 -12 -27.5 -12.5t-31.5 -2.5l-500 -39q-16 -2 -32.5 -5t-32.5 1 q-14 2 -22.5 14.5t-11.5 28t-1 30.5z" />
<glyph unicode="&#x3e;" horiz-adv-x="765" d="M145 147q0 10 6.5 16.5t14.5 10.5q80 53 152.5 95t140.5 87q-29 53 -48.5 96.5t-35.5 84.5q-8 18 -1 33.5t21.5 24.5t32.5 13t33 0q16 -4 21 -16t14 -27l79 -164q8 -16 17.5 -28.5t15.5 -28.5q8 -23 -14 -39q-29 -25 -71 -56.5t-88 -66.5t-94 -67.5t-91 -57.5 q-10 -8 -20.5 -11t-22.5 3q-29 14 -45.5 40.5t-16.5 57.5z" />
<glyph unicode="?" horiz-adv-x="679" d="M-29 37q0 16 9.5 28.5t19.5 22.5q20 20 49 37.5t57 7.5q33 -10 49.5 -39.5t12.5 -62.5q-4 -14 -14.5 -23.5t-20.5 -19.5q-12 -10 -25.5 -21.5t-29.5 -15.5q-23 -6 -47.5 5t-40.5 30q-8 10 -13.5 23.5t-5.5 27.5zM166 313q8 37 47 73t88 68.5t98.5 58.5t77.5 44 q53 31 101.5 65.5t89.5 77.5q14 16 31.5 41t28.5 52.5t10 55.5t-19 50q-25 27 -65 19.5t-70 -25.5q-39 -23 -68 -56.5t-51 -72.5q-23 -37 -31 -79t-22 -60q-27 -27 -66.5 -19.5t-64.5 27.5q-12 14 -9.5 41.5t17 61.5t35 70t43.5 64q43 55 101 99.5t128 62.5q57 16 115.5 3 t101.5 -58q47 -49 55.5 -117.5t-14.5 -130.5q-18 -49 -50 -89t-71 -75q-47 -43 -99 -77.5t-108 -65.5q-59 -35 -124.5 -66.5t-114.5 -81.5q-10 -14 -21.5 -22t-27.5 -4q-27 4 -52.5 20.5t-19.5 44.5z" />
<glyph unicode="@" horiz-adv-x="1327" d="M-95 -22.5q-5 85.5 15 167.5q25 104 77 199.5t118 181.5q137 174 315 297q90 59 191.5 101.5t212.5 44.5q92 2 179 -34t144 -110q57 -78 65.5 -176t-16.5 -188q-27 -104 -79 -197.5t-128 -167.5q-63 -63 -144 -110t-169 -47q-55 -2 -97 30.5t-46 85.5q-29 -23 -57.5 -44 t-59.5 -38q-47 -29 -101.5 -35t-101.5 21q-51 31 -65 94q-12 57 8 113.5t51 103.5q66 100 152 188.5t190 147.5q39 20 84 35.5t88 19t82 -10t66 -50.5q16 16 32.5 31.5t36.5 17.5q35 0 55.5 -26.5t24.5 -55.5q0 -25 -20 -45q-66 -74 -130.5 -143.5t-119.5 -147.5 q-10 -12 -31.5 -42.5t-35 -60.5t-9.5 -50.5t45 -14.5q55 8 107.5 45t97.5 87.5t80 110t55 114.5q16 43 27.5 90t11.5 95t-15.5 91t-50.5 78q-45 45 -100 60.5t-114.5 12.5t-117 -20.5t-104.5 -42.5q-84 -41 -156.5 -96t-136.5 -121q-63 -66 -117.5 -138.5t-95.5 -152.5 q-31 -59 -52 -125.5t-21 -134.5q0 -78 39.5 -142t115.5 -91q78 -27 164 -9.5t145 74.5q16 16 33 27.5t41 5.5q23 -6 35 -24.5t10 -40.5q-4 -25 -22.5 -42.5t-34.5 -31.5q-41 -33 -84 -53q-91 -43 -191 -43q-96 0 -183 44t-138 128q-45 74 -50 159.5zM295.5 89.5 q-0.5 -21.5 11.5 -26t37 5t53 27.5q20 16 40 31.5t38 32.5q94 86 166 170t143 170q4 14 0 28.5t-20 14.5q-45 0 -93 -30.5t-91 -63.5q-102 -80 -183 -183q-20 -27 -40.5 -55.5t-37.5 -56.5q-23 -43 -23.5 -64.5z" />
<glyph unicode="A" horiz-adv-x="1073" d="M7 210q9 52 30 101q37 98 99.5 185.5t129.5 165.5q70 82 145.5 155.5t161.5 138.5q43 35 88.5 65t94.5 54q47 25 97 44.5t103 27.5q30 5 59 5q21 0 43 -3q50 -6 97 -33q41 -25 67.5 -66.5t30.5 -91.5q1 -13 1 -26q0 -36 -8 -71q-11 -48 -34 -93q-23 -47 -49 -84 q-8 -10 -14 -18.5t-21 -12.5q-12 -2 -18 -10q-49 -59 -88 -105t-78 -89q-18 -20 -35.5 -40t-34.5 -42q-18 -23 -34.5 -46.5t-32.5 -46.5q-14 -23 -27.5 -45t-23.5 -45q-12 -23 -22.5 -50.5t-6.5 -53.5q6 -29 26.5 -23t37.5 17q25 14 45 31.5t41 35.5q41 37 79.5 83 t104.5 114l16 16t19 13q18 8 36.5 4t32 -16.5t17.5 -32t-6 -37.5q-4 -10 -14.5 -21.5t-18.5 -21.5q-61 -68 -99 -109t-73 -76q-35 -33 -72 -61.5t-80 -44.5q-39 -15 -71 -15h-4q-34 1 -72 25q-39 25 -60.5 63.5t-23.5 84.5q-20 -16 -42 -32t-44 -30q-41 -27 -88 -52.5 t-97.5 -40.5t-101.5 -16h-4q-49 0 -94 23q-41 23 -70 59.5t-39 83.5q-5 28 -5 56q0 25 4 50zM141 117q4 -16 9.5 -30.5t21.5 -23.5q12 -4 25.5 -4t25.5 2q63 12 119.5 45t108.5 70l75 60q57 47 110.5 97t104.5 103t97.5 111.5t95.5 116.5q8 10 31.5 33.5t48 50t44 48 t21.5 27.5q8 16 15.5 31.5t11.5 32.5q10 29 12 67v6q0 34 -22 56q-19 19 -46 19q-7 1 -14 -1q-37 -6 -65 -12q-68 -16 -129.5 -50t-116.5 -73q-59 -41 -113.5 -89t-105.5 -99q-53 -51 -101.5 -104.5t-93.5 -110.5q-41 -55 -78.5 -114.5t-64.5 -125.5q-12 -32 -24 -68 q-7 -21 -6 -42q0 -15 3 -29z" />
<glyph unicode="B" horiz-adv-x="974" d="M4 432q4 66 34 128.5t64 115.5q59 92 137 177t170.5 151.5t198 108.5t219.5 46h20q39 0 79 -6q50 -8 96.5 -28.5t82.5 -54.5t58 -83q20 -45 20 -92v-13q-3 -54 -20 -104q-16 -53 -45 -104.5t-74 -102.5q-61 -66 -141 -108.5t-168 -59.5q23 -43 23 -87q0 -23 -6 -47 q-18 -68 -60 -124q-37 -49 -88 -89t-110.5 -66.5t-123.5 -39.5q-49 -10 -95 -10q-14 0 -29 1q-51 4 -101.5 24.5t-72.5 71.5q-12 29 -10.5 59.5t11 61t25 58.5t29.5 52q-27 6 -50.5 18.5t-39.5 32.5q-19 23 -27 53q-7 24 -6 48v12zM142 392q0 -7 3 -9q10 -6 26.5 -9t27.5 1 q127 166 244.5 303t232.5 276q14 16 26.5 33t28.5 31q-45 -12 -87 -31.5t-83 -44.5q-70 -41 -129 -96t-113 -117q-51 -59 -94.5 -124.5t-68.5 -139.5q-2 -6 -5.5 -19.5t-5.5 -26.5q-3 -20 -3 -27zM202 76.5q0 -13.5 11 -15.5q19 -3 38 -3q39 0 79 12q60 16 110 43 q47 25 89 62.5t69 84.5q12 25 19.5 54.5t-7.5 56.5q-10 23 -32.5 32t-34.5 29t-8 42t26 32q10 4 21.5 5t23.5 1q16 2 30 2t28 4q55 10 108 29.5t113 64.5q53 41 91 101.5t58 126.5q10 35 10 73.5t-22 69.5q-18 27 -49 39t-64 16q-21 2 -40 2q-15 0 -29 -1q-32 -3 -62 -9 q29 -4 51.5 -22.5t22.5 -46.5q0 -16 -7 -25.5t-18 -20.5q-10 -16 -22 -29.5t-25 -27.5l-184 -213q-80 -94 -159 -188.5t-148 -198.5q-16 -23 -31.5 -47.5t-28.5 -50.5q-4 -6 -11 -20.5t-11.5 -32t-4.5 -31z" />
<glyph unicode="C" horiz-adv-x="727" d="M3 190q3 80 26 154q23 78 62.5 147.5t86.5 133.5q45 66 95.5 124t105.5 113t115.5 105.5t126.5 93.5q66 41 138 71.5t150 34.5h8q55 -1 108 -25q57 -26 75 -87q6 -23 6 -46q0 -14 -2 -28q-6 -37 -21.5 -70.5t-39 -65.5t-46.5 -59q-25 -29 -51 -56.5t-55 -51.5l-57 -47 q-14 -10 -28.5 -19.5t-35.5 -7.5q-30 4 -56 30q-17 17 -18 39q0 10 4 21q6 14 22.5 25.5t27.5 21.5q16 10 29.5 23.5t27.5 26.5q29 27 54.5 54t47.5 58q43 55 52.5 86t-7 43t-50.5 7t-77 -19q-74 -33 -139 -78t-125 -98q-59 -53 -113.5 -110.5t-103.5 -119.5 q-47 -61 -90 -126.5t-74 -137.5q-16 -37 -26.5 -74.5t-14.5 -78.5q-1 -11 -1 -21q0 -44 14 -70q18 -32 50 -42q20 -6 42 -7q14 1 30 3q40 6 80 22q68 27 136 72t129 98q16 12 29.5 25.5t29.5 27.5q14 12 27.5 27.5t29.5 25.5q25 16 46.5 8t37.5 -30q12 -18 12.5 -32.5 t-7 -28t-20.5 -25.5t-26 -23q-55 -53 -114.5 -101t-124.5 -89q-59 -37 -128 -65.5t-141 -32.5q-12 -1 -23 -1q-128 0 -202 103q-44 64 -44 139v10z" />
<glyph unicode="D" horiz-adv-x="1087" d="M4 418v9q0 55 22 107q24 56 52 105q119 199 297 338q88 70 189.5 116t211.5 60q33 4 66 3q58 0 118 -10q94 -18 160 -83q40 -43 58 -94q17 -48 17 -99v-6q-1 -54 -16 -108t-38 -103q-47 -100 -101.5 -175t-111.5 -140q-111 -127 -244 -225q-66 -51 -139.5 -91t-155.5 -63 q-35 -10 -73 -15q-27 -4 -53 -4q-11 0 -22 1q-38 2 -73 13t-64 38q-31 28 -38 64q-3 17 -3 35q-1 19 3 38q8 37 25.5 73t35.5 66q-55 12 -88 52t-35 98zM147 404q12 -20 41 -29q6 -2 9 0q0 6 12 21.5t25.5 32.5t25.5 32.5t16 19.5q53 70 109.5 136.5t114.5 134.5l114 131 q29 35 56.5 67.5t56.5 63.5q-45 -12 -87 -31.5t-83 -44.5q-70 -41 -129 -95.5t-113 -115.5q-47 -57 -88 -121.5t-69 -132.5q-15 -32 -15 -52q0 -10 4 -17zM203 77.5q0 -14.5 16 -16.5q10 -1 21 -1q56 0 108 18q62 22 117 53t110.5 70t116.5 96q41 35 77 75t71 81t65.5 84 t59.5 90q27 45 50.5 93t33.5 99q6 25 8 53q1 8 1 15q0 19 -4 37q-5 26 -17.5 48.5t-37.5 37.5q-46 29 -103 29l-2 -1q-58 0 -108 -10q25 -4 46.5 -23.5t17.5 -50.5q0 -14 -9.5 -25t-19.5 -24q-121 -139 -210 -242.5t-171 -203.5q-41 -49 -78.5 -98.5t-72.5 -102.5 q-16 -25 -31.5 -49.5t-30.5 -52.5q-6 -14 -12 -27.5t-10 -30.5q-2 -6 -2 -20.5z" />
<glyph unicode="E" horiz-adv-x="739" d="M2 158q0 37 10.5 73.5t28.5 70.5t41 63q47 59 109.5 104t130.5 80q-46 51 -50 113q0 8 -1 16q-1 52 19 104q22 60 63.5 113t82.5 92q41 41 88 75t101 58q51 23 107 36q29 7 59 7q27 0 55 -6q55 -12 94 -52t39 -99t-29.5 -112.5t-64.5 -98.5q-37 -47 -79 -89t-87 -81 q-24 -20 -50 -20q-19 0 -40 11q-23 10 -34 33t-1 47q4 10 16.5 19.5t22.5 19.5q53 49 77.5 76t43.5 49q18 23 35.5 46.5t29.5 47.5q4 8 11.5 22.5t10.5 29t-1 25.5t-21 11q-35 0 -66.5 -10t-60.5 -26q-31 -16 -59.5 -36t-54.5 -42q-49 -43 -92.5 -94.5t-65.5 -114.5 q-4 -10 -7 -24.5t-3.5 -30t3 -29.5t13.5 -23q10 -8 22.5 -8t22.5 -2q25 -4 43 -18q18 -16 25.5 -43t-15.5 -43q-10 -10 -23.5 -14.5l-25.5 -8.5q-94 -43 -152.5 -80t-99.5 -82t-65 -96q-10 -27 -16 -57.5t8 -57.5q12 -29 39.5 -38t59.5 -8t62.5 9.5t50.5 16.5 q57 20 109.5 52t99.5 69q27 18 57.5 44.5t92.5 82.5q10 10 19.5 19t19.5 16q23 10 37 3.5t30 -22.5q16 -14 21.5 -37.5t-12.5 -42.5q-66 -66 -138.5 -126t-152.5 -107q-71 -41 -147 -70q-65 -25 -122 -25q-10 0 -20 1q-74 4 -141.5 38.5t-96.5 106.5q-16 37 -16 74z" />
<glyph unicode="F" horiz-adv-x="798" d="M4 12q0 10 5 18.5t11 16.5q39 61 65 99t50 71q49 61 110.5 115.5t135.5 87.5q-37 33 -57.5 76t-26.5 89q-3 20 -3 40q0 27 5 54q8 48 29 91q35 78 93 138.5t124 111.5q66 53 143.5 92t163.5 49q20 2 39 2l39 -2q39 -4 73.5 -19.5t61.5 -42t39 -67.5q8 -25 8 -51 q0 -18 -4 -36q-10 -44 -27 -85q-16 -35 -40.5 -72t-71.5 -96q-33 -41 -69 -77.5t-77 -71.5q-18 -16 -38.5 -35t-49.5 -19q-23 0 -44 12.5t-32 35.5q-10 20 0 43q4 10 12.5 16t14.5 12q121 102 213 226q29 39 51 88q24 47 24 79q0 7 -1 13q-5 29 -54 29q-10 0 -22 -1 q-51 -6 -100 -28q-90 -39 -174 -109q-41 -33 -77 -69.5t-65 -79.5q-27 -44 -41 -94q-8 -29 -9 -59q0 -21 5 -42q8 -41 28.5 -57.5t45.5 -24.5t51.5 -12t46.5 -21q14 -10 23.5 -27.5t5.5 -35.5q-6 -23 -22.5 -30t-36.5 -9q-23 -2 -44.5 -7t-41.5 -13q-76 -25 -136.5 -79.5 t-107.5 -115.5q-27 -33 -50.5 -67.5t-45.5 -69.5q-10 -16 -19.5 -29.5t-26.5 -19.5q-12 -4 -24 -4q-26 0 -49 18q-11 11 -21 25q-8 12 -8 24v6z" />
<glyph unicode="G" horiz-adv-x="921" d="M2 156q2 55 18 108q33 117 104 218.5t152 189.5q82 86 175.5 166t198 143t217 109.5t233.5 64.5q61 8 121 12q27 0 49 -4t41 -24q17 -19 17 -43q0 -22 -19 -37q-10 -8 -22.5 -10t-24.5 -2h-32t-32 -3q-125 -10 -241.5 -58t-221.5 -114q-104 -66 -198.5 -145.5 t-176.5 -171.5q-41 -47 -77.5 -95t-67.5 -102q-29 -53 -53 -112q-21 -55 -21 -110v-9q0 -27 10.5 -54.5t41.5 -27.5t60.5 13.5t57.5 27.5q55 31 103.5 70t95.5 80q125 115 211 231q10 12 19.5 24.5t19.5 22.5q20 18 48 14t46 -16q29 -23 29 -53q0 -16 -9.5 -28.5 t-19.5 -24.5q-80 -102 -143.5 -184.5t-121 -155t-110.5 -142t-112 -145.5q-10 -12 -19.5 -26.5t-21.5 -24.5q-15 -12 -34 -12q-8 0 -16 2q-30 6 -49 22q-10 10 -16 22.5t-6 24.5q2 16 9 26.5t15 20.5l86 111q-29 -10 -59.5 -16.5t-60.5 -2.5q-57 4 -103.5 37t-68.5 86 q-21 47 -21 98v9z" />
<glyph unicode="H" horiz-adv-x="1071" d="M3 34q-1 4 -1 9q0 11 6 23q8 16 19.5 30.5t21.5 28.5q82 111 136.5 181.5t105.5 131.5q-31 -4 -60.5 -7t-60.5 -7q-25 -4 -50.5 -8t-49.5 6q-18 6 -32.5 21.5t-17.5 35.5q-2 20 9.5 34.5t29.5 18.5q25 6 49.5 8.5t49.5 6.5q63 8 123.5 12t119.5 14l179 224q31 41 60.5 83 t51.5 89q16 35 14.5 52t-17 22.5t-39 2t-50.5 -9.5q-49 -10 -95 -31.5t-89 -50.5q-39 -25 -75 -56.5t-62 -72.5q-12 -20 -23.5 -43.5t-15.5 -48.5q-4 -23 -1 -47t9 -43q8 -27 -4.5 -45t-38.5 -23q-23 -4 -45.5 6.5t-34.5 28.5q-14 23 -19.5 50.5t-5.5 52.5q-2 27 2 52.5 t13 49.5q29 86 96.5 151.5t142.5 110.5q78 45 172 73q52 15 104 15q42 0 83 -10q35 -8 67.5 -26.5t50.5 -51.5q18 -32 18 -66q0 -12 -2 -25q-9 -48 -30 -89q-23 -43 -50.5 -82t-55.5 -78q-31 -43 -63 -84l-64 -82q66 -2 137.5 -9t120.5 -42l487 617q18 20 43 26q27 0 49 -12 q19 -9 33 -31q8 -12 8 -26q0 -10 -4 -19q-6 -14 -16 -26.5t-21 -22.5q-127 -158 -229 -288t-199 -253q-39 -49 -76.5 -98t-72.5 -100q-37 -49 -68 -99q-6 -10 -17 -33.5t-18.5 -47t-4.5 -40t28 -10.5q12 4 24.5 11.5l22.5 13.5q23 16 44.5 35.5t41.5 40.5q37 41 73 82l72 82 q14 14 28.5 29.5t37.5 19.5q25 2 39 -7.5t22.5 -22.5t9.5 -29.5t-3 -28.5q-4 -10 -11.5 -17.5l-15.5 -15.5q-55 -63 -91 -104.5t-71 -75.5q-33 -33 -67.5 -61.5t-75.5 -51.5q-39 -19 -80 -23q-8 -1 -16 0l-66 15q-39 16 -57.5 51t-26.5 76q-3 15 -3 31q-1 31 13 62 q20 46 43 87q29 45 58.5 88t60.5 84q-37 16 -80 20.5t-84 4.5h-69.5t-37 -1t-15.5 -3.5t-5 -4.5l-28 -32q-76 -92 -148 -183.5t-137 -183.5q-23 -31 -30 -42t-13 -17q-10 -8 -25.5 -10.5t-27.5 -0.5q-14 2 -28.5 11.5t-25 21.5t-13.5 26z" />
<glyph unicode="I" horiz-adv-x="722" d="M96 616q0 61 22.5 116.5t58.5 104t81 89.5t92 75q51 37 108.5 68t117.5 53q60 21 118 30q35 5 68 5q23 0 45 -2q27 -4 53.5 -14.5t48 -26.5t35.5 -39.5t17 -52.5v-10q-1 -38 -13 -76q-14 -43 -38.5 -84t-54 -77.5t-56.5 -69.5q-131 -170 -256 -321t-242 -306l-39 -55 q-8 -10 -15 -22.5t-22 -18.5q-14 -6 -30 -6q-9 0 -19 2q-26 6 -43 24q-10 10 -15 23.5t-3 25.5q4 14 11 24.5t15 20.5q18 29 38 54.5t40 54.5q127 172 254 319.5t242 302.5q12 18 40.5 57.5t46.5 75.5q15 29 15 51q0 6 -1 11q-3 17 -31 17q-12 0 -29 -3 q-106 -20 -202.5 -70.5t-174.5 -117.5q-45 -41 -82 -88t-53 -105q-9 -30 -9 -60.5t9 -59.5q6 -14 9 -28.5t-7 -31.5q-6 -10 -16.5 -14t-20.5 -8q-25 -4 -51.5 9t-36.5 36q-25 55 -25 118z" />
<glyph unicode="J" horiz-adv-x="989" d="M6 31q10 59 46 109t77 91t88 77t96 67q-16 4 -30.5 12t-22.5 23q-10 16 -14 34.5t-6 34.5q-1 14 -1 28q0 25 4 49q7 38 23 73q25 61 66 114.5t88 100.5t99 88t108 78q57 37 118.5 67.5t126.5 52.5q29 8 61 15.5t64.5 7.5t63 -9t55.5 -32q47 -45 56 -102q4 -21 4 -42 q0 -36 -11 -73q-18 -68 -53 -129t-74 -119q-72 -109 -154.5 -209t-168.5 -196q-45 -47 -90 -92.5t-93 -88.5q-47 -41 -96 -80.5t-104 -68.5q-53 -29 -112 -46q-24 -6 -48 -6q-34 0 -68 13q-49 16 -77 57q-16 23 -21 48q-2 14 -2 28q0 12 2 25zM143 -3q0 -14 17 -14h2 q20 1 69 27q23 10 41.5 22.5t36.5 24.5q41 29 79 61.5t73 67.5q53 51 103 103.5t98 105.5q-37 -12 -74 -28.5t-72 -32.5q-59 -31 -116.5 -66t-110.5 -80q-25 -23 -47.5 -44t-44.5 -48q-23 -29 -38.5 -56.5t-15.5 -42.5zM384 536q-7 -23 -7 -47q0 -25 8 -49q2 -8 2 -22 q43 23 88 43t92 39q20 8 42 15t49.5 15.5t64.5 18.5t86 24l55 72q45 61 89 127.5t69 138.5q4 16 10 37t7 40v5q0 15 -5 26q-6 13 -24 13q-29 -2 -57.5 -11t-57.5 -20q-94 -39 -179 -95t-161 -126q-35 -35 -68.5 -71.5t-58.5 -79.5q-29 -43 -44 -93z" />
<glyph unicode="K" horiz-adv-x="1028" d="M6 26q-4 9 -3 19q0 11 5 23q10 23 26.5 42t31.5 42q111 139 191.5 239.5t136 170t90 113.5t57 72.5t35 45t22.5 30.5q29 41 58.5 83t45.5 89q8 31 -7 39t-40.5 5t-52.5 -12l-39 -13q-90 -35 -170 -101q-35 -29 -68.5 -64.5t-56.5 -76.5q-12 -23 -21 -46.5t-14 -47.5 q-4 -23 0.5 -46.5t10.5 -39.5q6 -27 -7.5 -45.5t-37.5 -22.5q-23 -4 -47.5 7.5t-34.5 33.5q-23 45 -24 99v5q0 50 16 95q29 86 89 153.5t132 120.5q78 53 174 92q43 16 90 24q32 6 64 6l30 -1q41 -6 78 -23.5t59 -52.5q24 -34 24 -70q0 -7 -1 -15q-6 -44 -25 -85 q-23 -47 -50.5 -87t-55.5 -81q-33 -43 -64.5 -86t-66.5 -84q14 0 27.5 -2t27.5 -2q14 -2 29.5 3.5t27.5 9.5q29 6 53.5 17t49.5 24q92 51 168 129q72 68 127 148.5t102 166.5l25 47q4 8 9 15.5t13 11.5q17 10 34 10q17 1 34 -9q35 -20 45 -46q2 -8 2 -16q0 -14 -6 -28 q-10 -20 -21 -36q-45 -84 -99 -166t-120.5 -153.5t-144.5 -129t-170 -90.5q23 -37 23 -79q0 -14 -2 -28q-10 -58 -32 -108q-10 -27 -22 -51.5t-23 -48.5q-31 -66 -32.5 -89.5t14.5 -20.5t46 29t67 60q49 49 95 102.5t95 104.5q20 20 36.5 20t39.5 -16q23 -14 31 -40.5 t-13 -47.5q-35 -35 -67 -73q-35 -39 -69 -78t-73 -74q-35 -33 -74.5 -62.5t-86.5 -39.5q-20 -5 -38 -5q-21 0 -39 7q-32 12 -65 43q-39 35 -40 80v5q0 43 16 87q18 51 43.5 97t40.5 97q12 45 12 67q0 11 -3 15q-9 14 -38 14q-23 -3 -48 -3q-12 0 -25 1q-38 2 -72 15 q-59 -61 -106.5 -120.5t-92.5 -117.5q-33 -41 -65.5 -84t-63.5 -86q-16 -25 -33 -45q-10 -20 -26 -26q-20 -8 -41 -3t-37 17q-17 12 -25 32z" />
<glyph unicode="L" horiz-adv-x="868" d="M6 -10q-2 10 -2 18q0 17 8 29q8 14 24.5 22.5t35 13.5t38 7t31.5 2q8 0 20.5 -2t16.5 2q2 2 7 8t17.5 23.5t34 48.5t60.5 84q104 133 207.5 257t204.5 253q25 33 48 64.5t46 64.5q10 14 22.5 32.5t22.5 37t16 36t6 29.5q-2 12 -18 15t-37.5 1t-41 -6t-28.5 -6 q-78 -23 -141 -57q-66 -35 -127 -78t-108 -101q-25 -29 -44.5 -59.5t-31.5 -64.5q-10 -33 -10 -65v-11q0 -18 5 -34.5t11 -35.5q2 -10 2 -18q1 -26 -23 -38q-17 -8 -35 -9q-15 0 -30 6q-35 12 -48 45t-18 67q-4 25 -4 49q1 50 17 96q24 70 70 129.5t105.5 109t119.5 83.5 q66 41 137.5 71t146.5 42q33 6 69 7h8q32 0 62 -7q34 -8 63.5 -25.5t49.5 -48.5q20 -32 20 -66q-1 -36 -15 -71t-33 -67.5t-37 -59.5q-47 -66 -95.5 -129t-99.5 -127q-104 -129 -208.5 -257t-203.5 -263q51 -25 98.5 -56.5t94.5 -62.5q20 -14 46 -28.5t52.5 -24.5t54 -11 t52.5 13q19 10 36 10q13 0 27 -7q28 -15 39 -34q16 -29 5 -49t-38 -35q-47 -18 -97 -18q-24 0 -48 4q-76 14 -140.5 54t-127.5 81q-33 23 -67 42t-70 34q-16 6 -34 10t-34 2q-10 0 -21.5 -5t-44.5 -15q-29 -8 -57.5 6t-38.5 43z" />
<glyph unicode="M" horiz-adv-x="1564" d="M4 37q-1 4 -1 9q-1 18 13 34q16 20 29 39q33 45 64.5 89t66.5 87q68 88 137.5 173t139.5 171q35 41 68.5 83t66.5 85q31 41 60.5 84t49.5 90q14 33 5 46t-30.5 13t-48 -7t-42.5 -13q-47 -16 -92.5 -43t-86.5 -57q-37 -29 -70.5 -65t-58.5 -79q-14 -23 -23 -46t-13 -50 q-4 -23 -1 -47.5t9 -40.5q6 -23 -1 -38t-22.5 -22.5t-34 -7.5t-34.5 11q-35 16 -46.5 58t-11.5 77q0 70 28 131t73 114.5t101 96.5t112 73q60 35 132 59q53 18 107 17q18 0 37 -2q31 -4 61.5 -16.5t54.5 -31.5q22 -19 36 -47q12 -24 12 -54v-9q29 23 59.5 45.5t63.5 43.5 q53 35 115 58q44 16 89 16q20 0 40 -3q57 -8 98 -48q39 -38 39 -95v-6q49 41 103 76.5t114 58.5q27 10 59 14q18 2 35 2q13 0 27 -1q30 -3 59 -15t49 -35q20 -24 28 -50q8 -24 8 -48v-6q-1 -28 -9 -55t-21 -52q-23 -53 -56.5 -101t-68.5 -95q-72 -96 -154.5 -182.5 t-160.5 -178.5q-53 -66 -100 -125t-60 -123q0 -23 13.5 -23.5t32 8.5t38 22.5t29.5 21.5q47 37 92 78t88 82q41 41 55.5 56t24.5 21q18 8 34.5 4t30 -16t20.5 -28.5t5 -32.5q-6 -18 -22 -33l-35 -35q-41 -39 -80 -77t-82 -72q-37 -33 -78 -62.5t-88 -48.5q-38 -15 -69 -15 q-7 0 -13 1q-35 4 -76 35q-37 28 -51 70q-8 24 -8 51q0 19 4 38q12 51 41 96.5t59 86.5q31 43 65 82.5t69 80.5q70 78 140.5 155t133.5 163q31 41 58.5 84t48.5 90q12 39 3.5 52t-26.5 11t-42 -13t-42 -23q-45 -27 -86 -59t-80 -66q-41 -35 -79 -72t-74 -76 q-156 -158 -297.5 -326.5t-284.5 -336.5q-16 -18 -39 -21.5t-45 6.5q-20 10 -34.5 29.5t-10.5 42.5q4 12 11 21.5t13 19.5q43 53 66 78.5t41 46.5l289 336q72 84 131 168q29 41 56.5 85t45.5 91q10 29 6 43t-19 17t-40 -4t-53 -21q-45 -25 -85 -55.5t-79 -63.5 q-84 -70 -160 -146.5t-147 -154.5q-74 -80 -144.5 -162t-140.5 -168q-35 -43 -69.5 -86t-69.5 -86q-16 -23 -32.5 -44.5t-33.5 -43.5q-22 -25 -50 -25q-11 0 -24 4q-20 6 -36.5 21.5t-20.5 38.5z" />
<glyph unicode="N" horiz-adv-x="1097" d="M4 56q4 12 14 26l43 61q78 104 143.5 187.5t121 153t104.5 129t96 118.5q43 53 87 110.5t77 123.5q14 30 14 48q0 13 -6 19q-16 16 -46.5 11t-67.5 -20t-58 -26q-61 -31 -115.5 -70.5t-97.5 -92.5q-47 -55 -67 -115q-11 -31 -11 -64q0 -30 9 -61q6 -18 0 -33.5t-21.5 -25 t-34 -10.5t-36.5 10q-35 16 -45.5 58t-10.5 77q0 70 27 131t72 114.5t101 96.5t112 73q62 35 134 59q54 18 107 17q18 0 37 -2q31 -4 61.5 -16.5t54.5 -31.5q22 -19 36 -47q12 -24 12 -54v-9q49 41 103.5 79t115.5 61q56 23 120 23h3q66 0 115 -42q47 -41 50 -96v-15 q0 -47 -16 -93q-23 -53 -53.5 -103.5t-64.5 -97.5q-72 -98 -154 -185.5t-160 -179.5q-39 -45 -75.5 -91t-65.5 -99q-10 -18 -18.5 -41t-7.5 -36t15.5 -14t47.5 21q27 12 58.5 38t66.5 57.5t71.5 67.5t73.5 73q10 8 19.5 18t19.5 16q23 10 42.5 2t31.5 -26.5t14 -39 t-10 -34.5q-51 -53 -104.5 -101t-108.5 -95q-49 -43 -109 -84q-58 -39 -125 -39h-6q-66 2 -101.5 49t-35.5 112q0 35 14.5 69t30.5 63q18 31 38 58.5t42 55.5q88 115 187.5 217.5t185.5 218.5q20 27 38.5 55.5t35.5 57.5q10 18 23 46t18.5 52.5t-4 38t-44.5 0.5 q-51 -14 -95 -42.5t-85 -59.5q-115 -92 -217 -194.5t-201 -213.5q-100 -111 -195 -225.5t-188 -232.5l-45 -60q-10 -12 -18 -21t-25 -12q-29 -6 -56.5 8.5t-35.5 43.5q-4 10 -4 18q0 4 2 9z" />
<glyph unicode="O" horiz-adv-x="1034" d="M4 180q4 45 19.5 89t33.5 83q41 84 96.5 159t114.5 144q61 74 128 142.5t139 130.5q66 57 139.5 107t154.5 85q68 30 147 42q20 3 39 2q58 0 111 -27q35 -18 63 -49t38 -70q7 -28 6 -56q-1 -38 -13 -74q-22 -62 -49 -116q-45 -86 -103 -160.5t-120 -146.5 q-61 -72 -128.5 -139.5t-139.5 -130.5q-68 -61 -142.5 -118t-160.5 -95q-41 -18 -86 -28q-38 -9 -74 -9h-14q-43 2 -81 18.5t-69 50.5q-33 37 -43 79q-7 30 -7 62q0 12 1 25zM141 143q-1 -7 -1 -14q0 -29 14 -47q14 -20 44 -19h11q35 4 67.5 17.5t63.5 30.5 q61 35 115.5 76.5t107.5 88.5t104.5 97.5t100.5 103.5t96 106.5t90 112.5q35 47 66 100.5t55 108.5q5 15 13 47q5 21 5 37q0 8 -1 15q-4 18 -16 26q-14 8 -30 11q-8 2 -16 1q-10 0 -18 -1q-18 -3 -29 -5q-35 -8 -66.5 -21.5t-62.5 -29.5q-63 -33 -119.5 -74t-109.5 -88 t-103.5 -99t-97.5 -106q-47 -53 -92 -109t-84 -116q-37 -55 -70 -118.5t-37 -131.5z" />
<glyph unicode="P" horiz-adv-x="989" d="M4 7q0 18 6 36q12 41 33 80q20 41 46 78t52 73q-59 20 -83 72q-17 37 -18 79q0 17 3 34q10 59 35.5 113.5t58.5 103.5q57 88 132 170t162 147.5t187.5 108.5t208.5 53q24 2 49.5 2t51.5 -2q52 -4 98.5 -21.5t86.5 -47t65 -76.5q26 -46 25 -97q1 -3 1 -5 q-2 -54 -20.5 -104t-48 -98.5t-60.5 -87.5q-59 -76 -132 -139t-159 -110q-76 -41 -158 -65q-70 -20 -144 -20q-12 0 -25 1q-39 2 -86 16q-4 0 -12.5 5t-10.5 3q-59 -74 -92 -116.5t-57 -83.5q-10 -18 -20.5 -37t-20.5 -41q-10 -23 -17 -41q-4 -20 -10 -29q-18 -22 -44 -22 q-7 -1 -15 1q-36 8 -56 33q-12 16 -12 34zM178 396q2 -18 37 -17l494 571q16 16 28.5 33.5t28.5 32.5q-45 -12 -88 -31.5t-84 -44.5q-70 -43 -129 -97.5t-113 -115.5q-63 -72 -105 -147.5t-61 -128.5q-8 -31 -8 -48v-7zM428 408q22 -4 44 -4q28 0 56 6q50 10 95 28 q86 35 161 90t134 123q25 27 50 58.5t45.5 66.5t34 72t15.5 76v6q-1 42 -25 66q-26 24 -64 33q-31 7 -66 7h-15q-43 -2 -74 -8q16 -2 32.5 -12t26 -23.5t10.5 -31t-11 -33.5q-27 -35 -54.5 -66t-56.5 -63l-115 -131q-111 -125 -223 -260z" />
<glyph unicode="Q" horiz-adv-x="1142" d="M4 -137q-1 5 -1 10q0 25 28 39q41 23 84 40t86 38q-47 37 -63 87q-13 38 -13 79q0 12 1 24q5 53 25.5 106.5t45.5 96.5q47 88 108.5 168t126.5 154q66 76 137.5 145.5t149.5 128.5q72 55 151.5 102t167.5 70q39 10 81 11h8q37 0 72 -9q38 -10 72 -32.5t58 -59.5 q26 -42 26 -94q0 -25 -7 -53q-19 -85 -67 -167.5t-105.5 -154.5t-92.5 -113q-53 -63 -110.5 -121.5t-116.5 -113.5q-59 -57 -122.5 -109.5t-135.5 -97.5q-33 -23 -67.5 -39t-71.5 -33l-158 -74q43 -23 84 -51t82 -55q23 -12 44 -24.5t44 -14.5q31 -2 46 4t38 10 q31 4 58.5 -18.5t27.5 -54.5q0 -18 -10 -28.5t-25 -16.5q-20 -10 -39.5 -13.5t-42.5 -5.5h-12q-33 0 -64 9q-36 10 -71 26t-69 37.5t-64 44.5q-35 23 -71 44t-77 32q-23 4 -40 -3.5t-38 -11.5q-11 -3 -22 -3q-24 0 -45 16q-25 16 -31 49zM262 137q-1 -5 -1 -11q0 -10 3 -22 q4 -16 15 -26q12 -12 29 -14q5 -1 10 -1q11 0 22 3q31 4 59.5 15t57.5 28q61 35 117.5 76.5t109.5 88.5t104.5 97.5t100.5 103.5t95 106.5t89 112.5q37 49 66.5 96.5t58.5 116.5q19 48 19 80q0 56 -62 56q-22 0 -51 -7q-35 -8 -66.5 -21.5t-62.5 -29.5q-63 -33 -119.5 -75 t-110.5 -89q-53 -47 -103 -99t-97 -106q-49 -53 -94 -110t-84 -117q-37 -55 -69 -119.5t-36 -132.5z" />
<glyph unicode="R" horiz-adv-x="1026" d="M5 18q3 12 7 27q18 63 54 119.5t75 109.5q-78 28 -93 88q-7 27 -7 57q-1 35 9 71q18 68 55.5 132t68.5 107q72 98 161 183t195 145q51 31 110.5 53.5t121.5 33.5q53 9 106 9h20q62 -2 122 -23q51 -16 93 -51t64 -86q17 -42 17 -86q0 -15 -2 -31q-8 -60 -35 -112 q-53 -104 -142.5 -181t-199.5 -114q17 -34 17 -70q0 -17 -4 -37q-12 -56 -34 -106q-10 -25 -22 -49.5t-23 -48.5q-10 -20 -20 -45t-11 -41.5t12 -16.5t50 29q16 10 29.5 23.5t27.5 25.5q29 27 53.5 53.5t47.5 55.5q25 27 48 54.5t50 53.5q14 12 31.5 14.5t33 -5t27 -20 t15.5 -26.5q8 -29 -13.5 -50t-40.5 -42q-23 -25 -45 -50.5t-45 -51.5q-43 -47 -92 -93t-109 -73q-39 -17 -73 -17q-64 0 -115 56q-25 27 -30 57.5t1.5 62t19.5 62.5t25 57q14 31 28.5 62t25.5 63q4 16 12 46t-6 38q-4 4 -10.5 3t-10.5 -1q-20 -1 -44 -1t-51 1q-54 2 -85 19 q-45 -45 -95 -100.5t-96 -115t-83 -121t-54 -118.5q-4 -12 -7 -25.5t-13 -23.5q-16 -16 -42 -16t-44 12q-25 12 -35 39q-2 8 -2 16q0 5 1 10zM176 401q0 -18 17 -18l28 -4l33 39q30 39 65 78l336 391q29 33 55.5 65.5t55.5 63.5q-49 -14 -95 -36t-89 -50 q-74 -47 -138.5 -107.5t-117.5 -128.5q-55 -68 -99 -147q-4 -10 -17 -37q-12 -26 -22 -54q-12 -34 -12 -55zM573 575h24.5t25.5 -2q10 -2 22 -5t23 -3q10 0 28.5 5t63.5 20q76 29 137 83t102 122q39 68 39 117t-28 78q-26 30 -76 39q-23 4 -50 4q-28 0 -59 -5 q29 -6 50.5 -30.5t9.5 -57.5q-6 -16 -20.5 -29.5t-24.5 -25.5l-54 -62q-53 -61 -106 -122.5t-107 -125.5z" />
<glyph unicode="S" horiz-adv-x="854" d="M4 207q4 66 33 125t69 108q35 43 89 80q25 16 50 23.5t54 -8.5q20 -10 33.5 -32t3.5 -44q-4 -14 -14.5 -20.5t-20.5 -12.5q-16 -8 -28.5 -18.5t-24.5 -20.5q-45 -43 -79 -107q-28 -52 -27 -104q0 -12 1 -24q6 -37 25.5 -55.5t54.5 -26.5q31 -6 62.5 0t60.5 18 q59 29 108.5 75t82.5 101q27 40 45 92q10 29 10 57q0 21 -6 42q-6 16 -18.5 21t-28.5 9q-55 12 -100.5 48t-65.5 92q-14 36 -14 74q-1 23 5 49q14 64 50 118q37 57 84 104.5t100 86.5q53 41 114.5 68.5t129.5 35.5q16 2 32 2q50 1 92 -19q56 -26 81 -85q10 -27 10 -54v-9 q-2 -32 -13.5 -63.5t-29 -61t-35.5 -54.5q-37 -49 -79 -93t-89 -85q-10 -10 -21.5 -19.5t-27.5 -13.5q-10 -4 -22.5 -2t-22.5 6q-23 10 -38 29.5t-11 44.5q2 16 13 24.5t21 18.5l41 39q23 23 43.5 44t40.5 44q18 23 36 46.5t32 49.5q17 43 17 64v6q-3 22 -22.5 25.5t-50 -8 t-63.5 -27.5q-59 -29 -110.5 -72t-92.5 -94q-23 -25 -39 -51.5t-26 -57.5q-10 -29 -10 -62.5t22 -56.5q18 -18 52 -23t57 -20q47 -25 76 -75q26 -44 25 -94q0 -14 -2 -29q-10 -66 -36 -123q-25 -55 -62.5 -105.5t-84.5 -92.5t-103.5 -69.5t-117.5 -35.5q-21 -3 -43 -3 q-38 0 -79 9q-63 14 -110 51q-46 36 -68 90q-20 50 -20 101v10z" />
<glyph unicode="T" horiz-adv-x="755" d="M143 -4q-2 7 -2 13q-1 9 3 19q6 16 10 29q23 68 59.5 130.5t73.5 121.5q41 61 83 123t85 121q88 119 181 232.5t193 224.5q-27 -4 -55.5 -9.5t-65 -9.5t-85 -9t-113.5 -11q-23 0 -47.5 -2t-44.5 8q-16 6 -28.5 17.5t-18.5 26.5t-3 29.5t19 26.5t34.5 12.5t37.5 2.5 q47 0 96 6q94 8 187.5 23.5t187.5 25.5q80 10 167 12h10q82 0 155 -31q14 -6 30.5 -15t30.5 -21q15 -13 23 -28q6 -10 5 -22q0 -6 -1 -12q-4 -18 -18.5 -28.5t-33.5 -10.5q-16 -2 -36.5 6.5t-30.5 18.5q-33 16 -64.5 18t-66.5 2h-33.5t-22.5 -4q-29 -29 -55 -58.5t-53 -58.5 q-51 -55 -100.5 -111t-96.5 -114q-123 -150 -228 -299t-192 -309q-8 -16 -15 -31.5t-13 -32.5q-4 -12 -8 -27.5t-13 -25.5q-16 -23 -42 -23q-1 0 -3 -1q-25 0 -47 12q-27 16 -35 43z" />
<glyph unicode="U" horiz-adv-x="987" d="M3 591q1 34 7 68q12 66 45 123.5t74 108.5q43 51 93 96t108 80q55 35 118.5 61.5t131.5 28.5q8 1 17 1q45 0 90 -18q54 -22 81 -73q13 -29 13 -58q0 -33 -12 -67q-11 -31 -29.5 -59.5t-34.5 -53.5q-41 -59 -87.5 -112t-93.5 -107q-49 -55 -98 -109.5t-96 -111.5 q-43 -53 -86 -108.5t-72 -118.5q-4 -10 -11 -26.5t-9 -33t4 -30t24 -13.5h8q28 -1 56 13q32 16 59 32q59 35 111.5 81t103.5 94q51 49 100.5 100t96.5 104q131 143 241.5 289t227.5 287l45 57q10 12 19 24.5t24 18.5q13 5 26 5q16 0 32 -7q28 -12 40 -39q7 -13 7 -25 q0 -15 -9 -30l-45 -59q-176 -231 -362 -455q-47 -53 -91.5 -110.5t-85.5 -116.5q-16 -23 -39.5 -53.5t-45 -63.5t-37 -66t-13.5 -57q4 -31 23.5 -26t36.5 16q39 25 73 55q16 16 32.5 33.5t36 40t45.5 51.5t60 67q12 12 26 27t30 21q27 10 46 -3.5t32 -39.5q10 -33 -7 -54 q-12 -16 -25.5 -29.5t-27.5 -29.5q-27 -29 -52.5 -59.5t-53.5 -59.5q-23 -25 -49.5 -51.5t-56.5 -49t-62.5 -37.5t-69.5 -20q-8 -1 -16 -1q-58 0 -101 40q-49 45 -57 115q-53 -43 -114.5 -84t-129.5 -57q-29 -7 -58 -7q-34 0 -70 10q-66 19 -101 77q-25 39 -25 82q0 13 2 27 q10 58 37 110q31 57 69 108.5t79 100.5q86 104 178 202.5t174 206.5q8 10 25.5 33t33 48.5t25.5 49t6 35.5q-6 12 -30.5 10t-53.5 -11t-54.5 -19.5t-31.5 -14.5q-84 -45 -153.5 -106.5t-116.5 -136.5q-35 -53 -53 -116q-8 -28 -9 -56q0 -35 13 -70v2q10 -33 -12.5 -52.5 t-53.5 -15.5q-35 8 -50 29t-26 51q-9 30 -9 61v6z" />
<glyph unicode="V" horiz-adv-x="1019" d="M4 582v11q0 57 18 113q20 60 56 113q35 53 77 98.5t89 86.5q51 41 106.5 74.5t114.5 56.5q57 20 119 23h10q56 0 106 -28q23 -10 41.5 -27.5t28.5 -39.5q14 -27 13 -56.5t-11 -58.5q-18 -63 -55 -118.5t-76 -108.5q-43 -55 -87 -110.5t-89 -108.5t-89 -107.5t-87 -109.5 q-20 -29 -40 -56.5t-38 -58.5q-41 -61 -41 -85t23.5 -20.5t61.5 25t75 45.5q41 27 81 56.5t76 62.5q135 117 257 246t233 266q111 135 217 285l51 71q12 16 23.5 28.5t34.5 12.5q43 0 69 -33q10 -10 14 -26q2 -6 2 -11q0 -10 -6 -20h2l-2 -2l-57 -82 q-115 -164 -239.5 -317.5t-264.5 -294.5q-68 -70 -138.5 -135.5t-147.5 -124.5q-72 -57 -151 -109.5t-171 -70.5q-20 -4 -41 -4l-41 4q-41 8 -72 38q-35 33 -38 75q-1 7 -1 14q0 35 13 69q16 45 39.5 85t50.5 77q29 41 58.5 80t60.5 78q63 78 127.5 154.5t124.5 156.5 q31 39 59.5 79t52.5 83q14 25 24.5 49t10.5 40.5t-13.5 22.5t-45.5 -4q-47 -10 -88 -30.5t-82 -45.5q-37 -25 -72 -54.5t-66 -61.5q-31 -33 -58.5 -72t-46.5 -82t-25 -88q-2 -12 -2 -25q0 -33 12 -65v2q10 -33 -11 -51q-23 -20 -51.5 -15t-48.5 21q-23 18 -30 52t-9 63z" />
<glyph unicode="W" horiz-adv-x="1421" d="M4 573q-1 12 -1 24q0 67 28 136q29 72 79 134.5t109 115.5t128 95t147 65q36 10 76 13q11 1 22 1q28 0 56 -6q38 -8 71 -29.5t51 -60.5q12 -27 12 -56q0 -9 -1 -19q-5 -40 -17 -75q-16 -41 -36.5 -77.5t-43.5 -71.5q-47 -72 -97 -141.5t-102 -139.5q-53 -70 -103 -139.5 t-93 -142.5q-20 -33 -37 -72q-12 -25 -18.5 -44.5t-2 -29.5t18.5 -9t43 17q18 10 33.5 20.5t31.5 20.5q70 49 129.5 110.5t114.5 125.5q57 66 111.5 131.5t107.5 134.5q53 70 103.5 139.5t103.5 141.5q12 16 24.5 34.5t26.5 34.5q10 10 24.5 14.5t29.5 2.5q33 -4 57 -32 q14 -17 14 -36q0 -13 -6 -26q-10 -16 -23.5 -34t-23.5 -34l-53 -72q-47 -68 -103 -139q-106 -141 -188 -293q-45 -74 -72 -151q-6 -16 -13 -37t-7 -38.5t11 -23.5t42 11q76 31 138.5 86t117.5 112q117 119 213 253t182 276q86 147 160 301q6 16 12 32.5t23 26.5q10 8 24 9 h10q9 0 17 -1q25 -5 49 -29q18 -18 17 -39q0 -7 -2 -14q-3 -2 -3 -4l3 2q-2 -2 -3 -6q-90 -195 -200 -377q-100 -164 -213 -309q-57 -74 -117.5 -143.5t-128.5 -130.5q-33 -31 -66.5 -58.5t-72.5 -52.5q-35 -23 -71 -40t-77 -23q-17 -3 -34 -3q-20 0 -40 4q-38 7 -67 29 q-62 46 -62 123q0 8 1 16q-51 -47 -107.5 -93t-122.5 -70q-48 -17 -94 -17q-17 0 -33 2q-61 8 -102 62q-18 25 -23.5 53.5t-1.5 57t14.5 56t22.5 52.5q29 59 64.5 111.5t74.5 105.5q78 111 159 216.5t151 221.5q16 29 31.5 56.5t25.5 58.5q14 41 2 52t-53 5 q-59 -12 -116.5 -42.5t-104.5 -67.5t-90.5 -82t-73.5 -96q-35 -53 -53 -115q-8 -27 -7 -53q0 -35 13 -70v2q2 -10 2 -19q0 -27 -23 -39q-17 -9 -36 -9q-14 0 -29 6q-37 14 -48.5 51t-15.5 71z" />
<glyph unicode="X" horiz-adv-x="1216" d="M4 14q-1 4 -1 9q0 21 17 34q16 10 34 18.5t34 18.5q68 39 134.5 79t131.5 83q66 43 131.5 87t128.5 91q35 23 68 45.5t61 46.5q6 6 8.5 16.5t6.5 18.5q33 96 54.5 152.5t35.5 107.5q10 37 19.5 75t11.5 77q0 12 -1 31.5t-14 27.5q-12 10 -33.5 7t-35.5 -7 q-109 -29 -198 -99.5t-151 -152.5q-42 -58 -68 -128q-14 -36 -13 -72q0 -35 12 -70v2q6 -23 -5.5 -42t-33.5 -24q-23 -4 -43.5 3.5t-34.5 23.5q-16 16 -22.5 42t-8.5 48q-2 17 -2 34q0 29 6 60q16 84 62.5 156t105.5 131q63 63 139 115.5t162 79.5q39 12 81 16q15 1 30 1 q26 0 52 -4q40 -7 74 -29.5t56 -61.5t22 -84t-9 -94q-8 -49 -21.5 -96.5t-30.5 -94.5q158 129 278 231.5t230 202.5q10 10 22.5 20.5t29.5 14.5q7 2 14 2q17 0 37 -10q23 -12 38 -40q6 -12 6 -22q0 -15 -12 -28q-12 -14 -26 -26.5t-27 -24.5q-14 -12 -28.5 -24.5 t-26.5 -24.5l-115 -101l-491 -399q-4 -4 -8.5 -5t-6.5 -5l-6 -17q-29 -88 -42 -132t-21 -79q-9 -35 -13 -73q-1 -11 0 -23q0 -27 7 -51q6 -23 32 -23q31 0 73 23.5t82 56.5t76 65.5t54 51.5q27 25 51.5 50.5t53.5 49.5q18 18 44.5 18.5t47.5 -16.5q23 -18 21 -42.5 t-25 -49.5l-107 -102q-45 -41 -91 -82t-97 -76q-48 -34 -108 -56q-33 -12 -68 -13q-27 0 -54 8q-45 10 -77.5 49t-45.5 92q-8 33 -8 67q-1 23 3 47q10 60 24 113q-55 -39 -103.5 -70.5t-100.5 -65.5t-113.5 -73t-147.5 -90l-66 -39q-16 -8 -30.5 -16t-32.5 -6 q-27 0 -51.5 18.5t-26.5 46.5z" />
<glyph unicode="Y" horiz-adv-x="1046" d="M5 596v7q0 38 9 75q20 80 68.5 150.5t107.5 125.5q57 57 125 104.5t146 76.5q33 12 69 19q29 5 57 5h16q36 -2 69 -13t61 -38q29 -25 43 -60q9 -21 9 -43q0 -14 -3 -28q-10 -41 -32.5 -76t-47.5 -67q-29 -35 -57.5 -66t-56.5 -63q-29 -31 -56.5 -65t-44.5 -73 q-14 -29 -8 -41t22.5 -15t37 1t36.5 10q43 12 82 31.5t76 42.5q78 47 147.5 104.5t135.5 120.5q35 33 63.5 69t59.5 71q31 37 61.5 72.5t59.5 72.5q14 16 27 33.5t36 21.5q10 3 20 3q28 0 54 -21q14 -12 21 -31q3 -9 3 -17q0 -12 -6 -24q-4 -10 -11 -18.5t-15 -18.5 q-78 -92 -125 -147.5t-81 -96t-62.5 -74.5t-67.5 -83q-70 -86 -138.5 -169t-140.5 -167q-66 -78 -134.5 -152.5t-145.5 -142.5q-16 -14 -35 -30.5t-41 -20.5q-9 -2 -18 -2q-14 0 -26 5q-22 9 -36 28q-10 14 -13 33.5t9 33.5q10 10 20.5 17.5t20.5 17.5q94 76 174 166 t153 180q-37 -16 -80.5 -27.5t-86.5 -12.5h-6q-40 0 -77 12q-40 12 -71 47q-37 41 -40 83v13q0 36 15 73q17 44 45.5 82.5t57.5 71.5q33 37 65.5 72t63.5 74q14 16 26.5 35.5t22.5 39.5q10 25 7 35t-30 10q-49 0 -96 -21.5t-88 -45.5q-78 -47 -145 -119q-31 -33 -61.5 -73 t-51 -84t-28.5 -91q-2 -14 -2 -29q0 -32 12 -65v2q4 -18 -2.5 -34.5t-22.5 -24.5q-16 -10 -35.5 -8.5t-36.5 10.5q-18 10 -27.5 24.5t-13.5 34.5q-10 41 -11 82z" />
<glyph unicode="Z" horiz-adv-x="915" d="M4 -12q0 14 8 23t19 18q29 18 57 30q14 4 25.5 18.5t21.5 24.5q49 49 96 103q98 106 189.5 213.5t187.5 214.5q92 104 190.5 200.5t209.5 180.5q-49 -8 -85 -14.5t-70 -11.5t-71 -9t-86 -8q-18 0 -36.5 -2t-34.5 2q-27 4 -49.5 26.5t-16.5 51.5q2 18 13.5 26t26.5 11.5 t31.5 4.5t28.5 1q78 4 155 15t155 26q73 14 151 23q28 3 56 3q49 0 96 -10q35 -8 65.5 -20.5t57.5 -34.5q23 -18 27 -49q1 -4 1 -8q0 -25 -26 -40q-25 -12 -58 -2q-14 4 -26.5 16.5t-28.5 4.5q-35 -12 -66.5 -29.5t-60.5 -36.5q-63 -41 -120.5 -89t-110.5 -101 q-170 -166 -319.5 -345t-307.5 -347q57 -16 107.5 -40t97.5 -50.5t92 -52t94 -46.5q32 -14 68 -21q11 -2 22 -2q25 0 49 11q16 8 36 7t36.5 -10t27.5 -24.5t11 -34.5q2 -29 -21.5 -42t-48.5 -19q-34 -8 -68 -8q-32 0 -63 7q-65 15 -125 44q-47 23 -90 49.5t-88 52t-91 45 t-95 25.5q-11 1 -21 1q-52 0 -102 -32q-12 -8 -23.5 -12t-27.5 0q-28 4 -52 24q-20 17 -21 40q0 4 1 8z" />
<glyph unicode="[" horiz-adv-x="860" d="M-51 -350q-14 29 2 57q23 45 39 79t29.5 59.5t24.5 46t22 38.5q92 168 190 331t203 325q51 78 102 154.5t105 154.5q23 33 46 65.5t48 63.5q2 23 13 35t26.5 16t33 5t33.5 3q63 6 125 8.5t125 2.5q14 0 29.5 1t28.5 -3q20 -6 29 -21.5t10 -36t-5 -40t-14 -31.5 q-8 -10 -17.5 -11.5t-21.5 -1.5q-66 -8 -132.5 -3t-131.5 9q-27 -37 -42 -57t-26 -37q-27 -37 -52.5 -73.5t-49.5 -75.5q-51 -78 -102.5 -158t-100.5 -158q-100 -160 -198.5 -321.5t-192.5 -337.5q33 2 72 5t77.5 5t74.5 2t61 -6q18 -6 27.5 -22.5t11.5 -36t-3.5 -39 t-15.5 -31.5q-12 -14 -39 -14q-86 2 -139 4t-85 3t-50.5 1h-32.5q-47 0 -83 2t-54 39z" />
<glyph unicode="\" horiz-adv-x="718" d="M270 618.5q-2 137.5 4 245.5q2 31 4.5 65t32.5 48q27 14 57 7t48 -30q8 -10 8 -23t-2 -26q-20 -279 -9 -547t36 -532l6 -57q2 -20 -8.5 -35t-28 -23t-35.5 -6t-33 14q-10 10 -13 23.5t-5 26.5q-18 127 -31.5 273t-21 292.5t-9.5 284z" />
<glyph unicode="]" horiz-adv-x="841" d="M-351 -342.5q3 27.5 19 49.5q12 14 39 14h60l219 -8q6 16 13 30.5t15 31.5q113 225 233 421.5t242 389.5q51 78 106.5 158.5t127.5 185.5q-53 -4 -106.5 -4h-106.5q-14 0 -29.5 -2t-27.5 2q-18 8 -27.5 24.5t-12.5 35t2 37t17 32.5q6 10 17.5 12t21.5 2q76 0 115 -1 t71 -3q57 -2 91 -1t53.5 2t29 3t19.5 2q35 0 62.5 -27.5t25.5 -50.5q-2 -18 -13.5 -32.5t-21.5 -28.5q-207 -293 -392 -585t-345 -597l-39 -74q-12 -23 -25.5 -51t-42.5 -33q-109 -10 -179 -12t-134 -4q-29 0 -50.5 1t-35.5 30q-14 23 -11 50.5z" />
<glyph unicode="^" horiz-adv-x="681" d="M234.5 675.5q-3.5 16.5 5.5 33.5q6 14 17 22t22 19q37 29 78.5 56.5t84.5 52t83 43t73 30.5q35 12 71 8t46 -45q6 -23 2 -51q0 -14 -2 -37t-5 -47.5t-6.5 -47t-7.5 -34.5q-4 -16 -9 -31.5t-21 -23.5q-20 -10 -42 -7t-38 19q-23 23 -19 65.5t8 69.5q-66 -39 -120 -72.5 t-103 -74.5q-25 -20 -57.5 -11t-48.5 33q-8 14 -11.5 30.5z" />
<glyph unicode="_" horiz-adv-x="614" d="M-222 -186q-1 34 15 53q10 10 23.5 11t25.5 1q74 0 134.5 1t114.5 1t106.5 1t109.5 3h32.5t29.5 -12q23 -25 18 -62.5t-25 -60.5q-10 -10 -24 -10h-27q-113 10 -225.5 13t-224.5 3q-14 0 -32.5 -1t-29.5 9q-20 16 -21 50z" />
<glyph unicode="`" horiz-adv-x="501" d="M270 998.5q-2 13.5 4 23.5q23 29 59.5 32.5t65.5 -12.5q16 -10 17.5 -33.5t3.5 -39.5l24 -203q2 -10 4.5 -20.5t-2.5 -20.5q-10 -27 -41.5 -34t-54.5 3q-20 8 -24 31t-9 39q-16 53 -25 105.5t-18 105.5q-2 10 -4 23.5z" />
<glyph unicode="a" horiz-adv-x="749" d="M-119 108q4 46 22.5 90t37.5 72q66 100 150.5 188.5t189.5 147.5q47 24 97 42q41 14 83 15q10 0 20 -1q82 -6 121 -62q12 16 31.5 31.5t36.5 17.5q31 0 55 -24q23 -23 25 -52.5t-19 -52.5q-29 -31 -59.5 -60.5t-59.5 -64.5q-68 -80 -111.5 -136t-74.5 -116 q-10 -16 -15 -34.5t-4 -30.5t11 -17.5t33 7.5q27 14 49 33.5t45 41.5l170 170q12 12 25.5 27.5t29.5 24.5q32 11 60 -9q24 -18 25 -46q0 -4 -1 -9q-4 -20 -16.5 -32.5t-24.5 -26.5q-72 -74 -108.5 -111t-65.5 -65q-43 -41 -95 -81t-120 -46q-10 -1 -19 -1q-37 0 -67 13 q-37 16 -57 51q-12 20 -17 53q-29 -25 -57.5 -45t-59.5 -39q-49 -27 -101 -33q-10 -1 -20 -1q-41 0 -79 20q-43 23 -57 63q-10 31 -10 67q0 10 1 21zM18 72q2 -12 19 -13q47 4 89 38t73 61q88 80 161.5 167t147.5 173q1 5 1 10q-1 31 -25 31q-28 0 -64.5 -16.5t-71.5 -41 t-45 -32.5q-74 -59 -147.5 -139.5t-112.5 -157.5q-4 -6 -11 -22q-8 -14 -12 -30q-3 -11 -3 -21q0 -3 1 -7z" />
<glyph unicode="b" horiz-adv-x="712" d="M-104 170q27 84 82 153.5t110 135.5q123 141 248 277t260 268q29 29 59.5 58.5t63.5 57.5q14 12 29.5 27.5t31.5 23.5q9 4 18 4q12 0 24 -6q22 -10 36 -29.5t18 -41.5l2 -12q0 -15 -10 -27q-12 -14 -27.5 -26.5t-29.5 -24.5q-115 -115 -192.5 -194t-147.5 -152q7 0 13 1 q46 0 87 -25q47 -28 66 -81q11 -33 11 -66q0 -27 -7 -53q-16 -60 -49 -108l-37 -54q76 6 139 60q12 10 23.5 19.5t27.5 11.5q33 6 56 -21q18 -23 12 -51q-4 -16 -15.5 -27.5l-21.5 -21.5q-51 -43 -113 -66.5t-128 -23.5q-43 0 -76 8q-104 -104 -223 -168q-37 -18 -84 -34 q-46 -16 -92 -22q-14 -2 -28 -2q-31 0 -60 8q-42 12 -68 54q-24 36 -24 79q0 47 16 91zM10 74q5 -14 25 -14h6q25 2 55.5 18t64 38t60.5 40q25 18 49.5 37.5t46.5 42.5q-35 31 -57 72.5t-27 92.5l-102 -118q-18 -23 -40.5 -52.5t-42.5 -59.5q-20 -31 -32 -57q-8 -17 -8 -29 q0 -6 2 -11zM360 459q-6 -20 -6 -40q0 -31 15 -59q4 -12 12 -21t18 -17q9 12 15 18q10 12 29.5 39t36.5 57q16 28 23 56q2 8 2 16q0 16 -11 24q-13 10 -29 10h-7q-20 -2 -36 -10q-46 -20 -62 -73z" />
<glyph unicode="c" horiz-adv-x="604" d="M-77 156q9 66 36 123q43 94 117 173.5t160 139.5q43 30 97 52q46 19 92 19q8 0 17 -1q45 -4 85 -20.5t55 -63.5q8 -25 5 -49.5t-11.5 -49t-21.5 -47t-28 -41.5q-16 -23 -33.5 -42t-35.5 -38q-14 -12 -32.5 -27.5t-41.5 -11.5q-20 4 -35.5 17.5t-25.5 32.5 q-6 12 -9.5 29.5t4.5 31.5q4 10 15.5 19.5t21.5 17.5q25 18 45.5 37.5t35 37t20.5 30t0 16.5q-12 6 -41 -7.5t-58.5 -34t-55.5 -41t-34 -28.5q-68 -59 -125 -135q-20 -29 -38.5 -58.5t-28.5 -64.5q-8 -29 -7 -58.5t29 -45.5q25 -14 58.5 -8t56.5 12q76 20 159 75.5 t191 159.5q14 14 29.5 31.5t34.5 26.5q18 6 34.5 1.5t28.5 -15.5t18 -29q3 -8 2 -16q0 -9 -3 -19q-8 -18 -24.5 -32.5t-31.5 -29.5q-41 -37 -69.5 -62.5t-51 -45t-40 -32.5t-35.5 -26q-49 -35 -121 -67q-72 -34 -146 -48q-34 -7 -67 -6q-37 0 -71 8q-66 16 -103 85 q-24 46 -24 95q0 15 2 30z" />
<glyph unicode="d" horiz-adv-x="753" d="M-117 53q-3 19 -3 37q0 38 14 76q20 56 51 104q63 100 149 188.5t191 147.5q45 25 93 40.5t101 15.5q35 0 70 -15.5t55 -44.5q66 72 132.5 143.5t131.5 143.5q55 59 110.5 117.5t115.5 111.5q12 10 24 23.5t29 23.5q12 8 25 8q8 0 14 -2q20 -6 36 -22q15 -17 24 -37 q6 -14 6 -26q0 -6 -1 -11q-4 -16 -17 -27.5t-24 -21.5l-156.5 -156.5t-132 -136t-142.5 -154.5t-189 -214q-51 -59 -100.5 -124t-79.5 -137q-14 -31 2 -40t41 4q29 14 50 33.5t44 41.5q29 27 65.5 66t104.5 104q12 12 26.5 27.5t30.5 24.5q31 12 58.5 -8.5t23.5 -55.5 q-2 -20 -14.5 -32.5t-24.5 -26.5q-49 -49 -91 -92.5t-83 -83.5q-23 -20 -47.5 -42t-51 -40.5t-56 -30.5t-60.5 -14q-10 -1 -19 -1q-66 0 -104 37q-33 33 -37 80q-35 -29 -73.5 -55.5t-78.5 -42.5t-82 -18h-8q-38 0 -75 18q-53 33 -68 96zM21 86q1 -18 13 -22q4 -1 9 -2 q11 0 27 6q24 10 53 28q31 18 67.5 51t75.5 73t79 84t77 87l88 105q2 8 2 15q0 11 -4 17q-6 12 -16 13q-7 1 -14 1q-32 0 -74 -22q-50 -26 -101 -69t-98 -93.5t-80 -91.5q-23 -29 -43.5 -56.5t-36.5 -57.5q-24 -45 -24 -66z" />
<glyph unicode="e" horiz-adv-x="626" d="M-80 136q2 65 27 124q25 55 59.5 103.5t76.5 90.5t89 76.5t94 63.5q35 20 84 38q48 20 100 26q18 2 35 2q32 0 61 -8q44 -12 68 -54q15 -24 15 -50q-1 -14 -5 -28q-12 -41 -32 -76q-45 -72 -114.5 -128t-147.5 -87q-59 -23 -121 -29q-12 -1 -25 -1q-49 0 -94 18 q-12 -23 -19.5 -44t-5 -41.5t14.5 -38t41 -27.5q22 -8 47 -8q34 0 72 14q68 24 134 67t122.5 91.5t87.5 76.5q14 14 29.5 31.5t33.5 26.5q18 6 34.5 1.5t29 -16.5t17.5 -28q2 -7 2 -13q0 -8 -3 -16q-6 -18 -23.5 -35.5t-31.5 -32.5q-78 -74 -120 -107.5t-77 -58.5 q-51 -37 -121 -71q-71 -32 -144 -46q-35 -7 -69 -7q-35 -1 -71 7q-68 14 -113 76q-37 50 -37 112v6zM168 322q12 -2 25 -2t28 2q76 12 139.5 57t106.5 96q15 18 23 39q3 9 4 15q0 9 -7 12q-53 -14 -100 -41t-90 -60q-74 -53 -129 -118z" />
<glyph unicode="f" horiz-adv-x="442" d="M-563 -582q-6 21 -6 42q0 24 8 50q14 46 31 87q63 141 147 258.5t172 226.5q104 135 209.5 268t216.5 266q-4 27 -16 35q-12 10 -26.5 10.5t-25.5 14.5q-14 14 -17 41.5t1 44.5q6 23 23.5 26t38.5 7q12 2 25 4t34.5 5t54.5 8t82 11q12 14 27.5 34t45.5 52.5t78 85 t128 133.5l26.5 26.5t30.5 19.5q6 2 12 2q10 0 19 -4q16 -7 28.5 -19t19.5 -27.5t7 -29.5q2 -16 -1 -25.5t-13 -19.5q-14 -14 -27.5 -26.5t-26.5 -27.5q-35 -37 -67.5 -72.5t-65.5 -74.5q137 12 215 20.5t118 11.5t51.5 4t17.5 -1q18 -6 25 -22.5t9 -36.5v-11q0 -15 -4 -29 q-4 -20 -10 -30q-10 -16 -35.5 -15.5t-42.5 -1.5l-475 -41q-33 -39 -64.5 -76.5t-62.5 -76.5q-10 -104 -38.5 -203.5t-73.5 -191.5q-88 -184 -194.5 -351.5t-238.5 -304.5q-27 -29 -59.5 -58.5t-67 -53t-70.5 -36.5q-28 -11 -54 -11q-7 0 -15 1q-35 4 -64.5 25t-39.5 57z M-435 -536h1q12 0 65 49q72 66 134.5 143.5t115.5 160.5t101.5 168t91.5 167q18 33 33.5 66.5t31.5 68.5l-123 -152q-61 -78 -122.5 -153.5t-120.5 -153.5q-53 -74 -108.5 -149.5t-90.5 -161.5q-12 -33 -12 -45q0 -7 3 -8z" />
<glyph unicode="g" horiz-adv-x="714" d="M-201 -539q8 16 15.5 31.5t17.5 32.5q18 35 36.5 70.5t41.5 70.5q88 150 188 289q-41 -16 -83 -17h-4q-40 0 -74 17q-45 23 -62 72q-10 29 -10 58q0 24 7 49q15 54 42 102q55 88 128 163.5t151 135.5q76 57 157 96q68 32 135 32q13 0 27 -1q35 -4 64.5 -18.5t46.5 -43.5 q35 31 49 40t30 5q31 -6 50.5 -32.5t19.5 -55.5q0 -16 -12 -26.5t-23 -20.5q-68 -72 -101.5 -111t-60.5 -69q-57 -68 -110 -136.5t-107 -138.5q-53 -72 -104 -143.5t-100 -142.5q-47 -70 -92.5 -140.5t-86.5 -144.5q-10 -16 -19 -33.5t-17 -34.5q-8 -14 -14.5 -26.5 t-20.5 -18.5q-15 -5 -30 -5q-14 0 -28 4q-28 9 -45 34q-10 14 -10 29q0 14 8 28zM16 66q5 -1 11 -1q29 0 90 37q121 86 217 189.5t188 208.5q3 10 3 20v6q-1 13 -17 15q-25 0 -51.5 -10.5t-54 -27t-53.5 -35t-46 -32.5q-80 -61 -146.5 -130.5t-115.5 -147.5q-34 -54 -34 -77 q0 -11 9 -15z" />
<glyph unicode="h" horiz-adv-x="696" d="M-217 28q-1 4 -1 7q0 11 5 23q6 14 16.5 28t20.5 29q23 33 46.5 64.5t47.5 64.5q166 225 331 421.5t343 378.5l55.5 55.5t54.5 51.5q12 9 24 17q7 4 15 5q6 0 13 -2q33 -10 52 -33.5t19 -54.5q0 -16 -12 -26t-22 -21q-111 -98 -203 -206.5t-180 -215.5q35 16 72 30 q38 16 74 20q12 1 23 1q23 -1 45 -7q32 -10 54 -37q16 -25 17 -50.5t-7 -51t-23.5 -49.5t-29.5 -44q-57 -78 -124 -139.5t-122 -132.5q-29 -37 -37 -55.5t-5 -25.5t11.5 -7t12.5 2q29 12 55.5 30.5t50.5 38.5q31 27 74 67t110 111q12 14 26.5 28.5t31.5 21.5q12 4 23 4 q20 1 38 -15q20 -18 21 -43q0 -7 -2 -16q-4 -18 -18.5 -31.5t-26.5 -27.5l-65 -65t-48.5 -47.5t-36.5 -34.5t-31 -28q-51 -45 -112.5 -81.5t-130.5 -40.5h-10q-29 0 -55 10q-30 12 -48 41q-19 31 -19 67v14q4 44 23 83q35 80 95.5 143t119.5 125q6 6 26.5 27.5t39 43 t24.5 35t-18 4.5q-47 -16 -92 -41.5t-86 -54.5q-117 -78 -200 -170t-155 -192q-41 -57 -54 -78t-30 -25q-25 -8 -50 -2t-42 27q-12 16 -14 32z" />
<glyph unicode="i" horiz-adv-x="360" d="M-122 82q3 43 18 82q29 88 87 162.5t117 144.5q29 35 58.5 68.5t62.5 64.5q14 14 29.5 28.5t36.5 16.5q35 0 55 -26.5t25 -55.5q0 -16 -5.5 -25.5t-15.5 -21.5q-68 -72 -131 -141.5t-119 -147.5q-39 -53 -55 -92t-10 -55t35.5 -4t83.5 61q29 27 64.5 63t107.5 107 q14 14 27 29.5t32 24.5q12 4 23 4q20 1 38 -13q28 -22 21 -57q-4 -20 -17.5 -33.5l-27.5 -27.5l-60 -62l-57.5 -57.5t-58.5 -57.5q-61 -59 -111.5 -89.5t-105.5 -32.5h-9q-34 0 -65 13q-35 15 -53 50q-20 33 -20 70v10zM412 879q0 37 26.5 63.5t63.5 26.5q35 0 62.5 -27 t27.5 -63q0 -35 -26.5 -63t-63.5 -28t-63.5 28t-26.5 63z" />
<glyph unicode="j" horiz-adv-x="356" d="M-696 -590q-4 10 -4 21q0 17 10 34q10 16 19 33t20 33q123 195 265 371t292 346q61 68 122.5 134.5t127.5 131.5q29 29 57.5 56.5t58.5 54.5q14 10 26.5 17t31.5 3q33 -6 50 -32.5t17 -55.5q-2 -18 -15 -29.5t-26 -21.5l-57 -55q-78 -76 -133 -134.5t-95 -104.5t-71 -84 t-61 -73q-59 -70 -118 -140.5t-119 -147t-123.5 -163.5t-129.5 -188q-10 -14 -18.5 -28.5t-24.5 -20.5q-13 -4 -26 -4q-16 0 -32 7q-30 12 -44 40zM465 879q0 37 26.5 63.5t63.5 26.5t63.5 -27t26.5 -63q0 -35 -26.5 -63t-63.5 -28t-63.5 28t-26.5 63z" />
<glyph unicode="k" horiz-adv-x="673" d="M-208 62q18 28 36 55q23 35 46.5 66.5t47.5 64.5q166 225 332 421.5t344 379.5q29 29 55.5 54t55.5 52q12 9 23 15q5 2 11 3q8 0 17 -4q29 -8 48 -32.5t19 -53.5q0 -16 -11 -26t-21 -21q-80 -72 -158 -152.5t-151.5 -165.5t-140 -168t-126.5 -157l31 -4q94 35 166.5 96.5 t140.5 128.5q6 8 13.5 15.5t17.5 11.5q18 4 33.5 -2t29 -17.5t23.5 -25.5t14 -27q6 -18 -5 -31.5t-24 -27.5q-59 -68 -129.5 -126t-164.5 -93q3 -18 3 -38q0 -27 -6 -57q-12 -50 -32 -90q-8 -16 -8 -25t4 -12t10 -3t10 2q29 12 55.5 30.5t51.5 38.5q53 41 97 87t89 91 q12 12 25.5 27.5t31.5 22.5q11 4 22 4q20 1 38 -15q20 -18 20 -43q0 -7 -2 -16q-4 -18 -17.5 -31.5t-25.5 -27.5q-45 -45 -89 -89.5t-91 -85.5q-53 -45 -113.5 -81.5t-132.5 -40.5h-13q-58 1 -96 33q-32 27 -31 73q0 15 3 33q6 35 21.5 65.5t31.5 61.5q6 14 13.5 26.5 t11.5 28.5v2q-68 -8 -133 -12h-4q-16 -23 -34 -45.5t-39.5 -50t-46 -62.5t-57.5 -80q-10 -12 -17 -25.5t-24 -17.5q-27 -6 -52 1t-42 30q-13 19 -13 36q0 13 8 26z" />
<glyph unicode="l" horiz-adv-x="524" d="M-60 150q3 48 19 98q29 86 77 178t105.5 180t119 167t116.5 140q59 66 124.5 128.5t143.5 105.5q27 14 65 28.5t76 18.5q10 1 19 1q27 0 52 -8q34 -11 56 -48q21 -31 20 -65v-14q-5 -42 -24.5 -82t-46 -76t-47.5 -62q-59 -72 -123.5 -134.5t-134.5 -121.5 q-45 -37 -95 -74t-100.5 -72t-100.5 -64.5t-95 -49.5q-16 -20 -28.5 -40t-22.5 -38q-32 -60 -32 -103q0 -7 1 -14q6 -47 33 -57q20 -8 58 6t87 46t108 81t122 112q12 14 25 27.5t32 20.5q33 10 57.5 -11.5t18.5 -54.5q-4 -18 -16.5 -32.5t-24.5 -26.5 q-104 -109 -186.5 -170.5t-146 -90t-110.5 -30.5h-18q-35 0 -62 6q-45 12 -73 40q-27 27 -39 67q-10 32 -10 69q0 9 1 19zM285 528q29 20 57 39.5t57 42.5q84 66 162 136.5t148 152.5q29 35 54 68.5t42 74.5q2 6 2 10q0 6 -5 8h-4q-8 0 -20 -5q-16 -6 -34.5 -16.5 t-28.5 -18.5q-80 -59 -148.5 -128t-128.5 -147q-41 -53 -80 -106t-73 -111z" />
<glyph unicode="m" horiz-adv-x="1013" d="M-190 25q-3 8 -3 15.5t3 15.5q6 14 14 26q45 74 84 135.5t79 118.5t87 114.5t110 124.5q35 37 49.5 50.5t24.5 17.5q29 10 55.5 -8.5t36.5 -46.5q45 31 91 51t94 25q9 1 17 1q32 1 60 -11q36 -14 50 -56q2 -6 3 -11t1 -12q54 41 118 71q45 21 93 21q19 0 38 -3 q59 -10 82 -64q10 -27 7 -53.5t-14 -52t-27.5 -49t-32.5 -44.5q-53 -66 -109.5 -122t-107.5 -117q-37 -45 -48.5 -66.5t-7 -29t20.5 -1t36.5 17.5t41 26.5t32.5 25.5q53 41 96.5 87t90.5 89q12 12 26.5 28.5t30.5 25.5q12 4 23 4q19 1 37 -13q24 -19 25 -48q0 -4 -1 -9 q-4 -20 -18.5 -33.5t-26.5 -27.5q-37 -39 -64.5 -66t-48 -47.5t-37 -34.5t-30.5 -27q-55 -49 -111 -79q-55 -30 -102 -40q-21 -4 -41 -5q-23 1 -45 7q-40 12 -60 46q-19 31 -19 66q-1 8 1 17q6 44 23 81q37 80 110.5 158.5t175.5 183.5q18 18 26.5 33.5t-26.5 5.5 q-49 -16 -93 -47t-83 -64q-100 -84 -180 -175t-154 -192l-24 -32q-14 -16 -35 -20.5t-41 1.5t-36.5 20.5t-18.5 32.5q-4 16 4 32t16 30q51 86 112.5 156.5t125.5 142.5q2 2 21.5 22.5t38 43t26.5 38t-13 9.5q-51 -16 -96 -46t-86 -63q-45 -35 -86 -75t-80 -81 q-57 -59 -101 -120.5t-81 -126.5q-10 -14 -18.5 -30t-24.5 -22q-12 -4 -24 -4q-20 1 -40 11q-32 16 -42 47z" />
<glyph unicode="n" horiz-adv-x="720" d="M-190 25q-3 8 -3 15.5t3 15.5q6 14 14 26l47 80q27 43 57.5 88t70.5 97t94 117.5t128 149.5q8 8 17.5 16.5t19.5 12.5q11 4 21 4q23 -1 43 -19q30 -26 34 -61q51 35 106.5 60.5t121.5 36.5q15 2 28 2q28 0 46 -8q26 -12 42 -35q18 -25 19.5 -51.5t-6.5 -52t-23.5 -49.5 t-30.5 -44q-59 -76 -124.5 -138.5t-120.5 -133.5q-8 -12 -19.5 -30t-17.5 -32t-4 -22.5t20 0.5q27 10 57.5 30.5t59.5 45t56.5 51t51.5 51.5l64 63q12 12 26.5 28.5t32.5 25.5q12 4 23 4q20 1 38 -13q23 -18 22 -45q0 -6 -1 -12q-4 -20 -17 -33.5t-28 -27.5l-61 -64 q-29 -29 -58.5 -56.5t-60.5 -54.5q-51 -45 -111.5 -81.5t-134.5 -40.5h-9q-41 0 -67 17q-30 19 -42 52q-10 27 -11 56q0 7 1 15q3 38 20 73q35 80 95 143t120 125q8 8 30.5 29.5t41 43t22.5 34t-23 3.5q-47 -16 -92 -40.5t-86 -53.5q-47 -35 -93 -71.5t-87 -77.5 q-25 -23 -53.5 -56.5t-57 -70.5t-56.5 -75t-50 -69q-10 -12 -16.5 -26.5t-22.5 -20.5q-12 -4 -24 -4q-20 1 -40 11q-32 16 -42 47z" />
<glyph unicode="o" horiz-adv-x="679" d="M-100 105q2 42 16 84t31 75q57 111 139 205t186 147q59 34 132 44q17 2 34 3q54 0 99 -24q39 -25 53 -63q12 -32 12 -66q0 -7 -1 -15q-3 -42 -17.5 -84t-30.5 -73l-31 -55q82 2 140 53q16 16 33.5 26.5t41.5 4.5q23 -5 35 -25q9 -15 9 -32q0 -6 -1 -11q-4 -25 -25.5 -42 t-39.5 -32q-63 -47 -133 -58q-29 -4 -56 -4q-41 0 -80 9q-59 -68 -110 -113t-105 -73q-59 -32 -133 -46q-22 -4 -41 -4q-49 0 -92 25q-41 27 -54 65q-11 32 -11 68v11zM44 68q7 -10 21 -11q3 0 7 1q20 3 44.5 17.5t43.5 26.5q47 33 86 71t73 79q-35 35 -52 79t-21 91 q-63 -66 -119.5 -142.5t-79.5 -158.5q-7 -23 -7 -38q0 -10 4 -15zM367 445.5q0 -23.5 6 -48t18 -45.5q27 35 40 67t22 60q4 16 4 28q0 7 -2 13q-5 14 -17 18q-4 1 -9 1q-9 1 -21 -3q-18 -6 -33 -16q-4 -12 -6 -31.5t-2 -43z" />
<glyph unicode="p" horiz-adv-x="675" d="M-692 -551q6 18 17 34.5t22 33.5q123 193 261 361.5t275 334.5l322 393q8 12 16 20.5t25 10.5q16 2 32.5 -4t38.5 -27q53 31 95 46q29 12 63 12q13 0 27 -2q49 -4 82.5 -37t40.5 -76q2 -17 2 -34q0 -41 -13 -81q-20 -57 -51 -104q-63 -98 -149 -186.5t-191 -147.5 q-47 -27 -99 -44q-41 -14 -86 -14q-11 0 -22 1q-33 2 -63.5 17t-48.5 42q-102 -123 -210 -257t-233 -316q-10 -14 -18 -31t-25 -25q-16 -6 -32 -6q-11 0 -22 3q-28 7 -44 30q-14 21 -14 39q0 7 2 14zM-4 100v-8q0 -11 4 -22q6 -13 23 -13q41 0 90 32t90 65q51 41 95 86 t85 96q23 27 43 54.5t37 58.5q2 6 9 20t10 29q2 8 2 16q0 6 -1 10q-2 13 -16 17h-5q-15 0 -34 -9q-22 -10 -46 -27.5t-44.5 -34.5t-32.5 -28q-86 -78 -161.5 -163.5t-147.5 -178.5z" />
<glyph unicode="q" horiz-adv-x="724" d="M-384 -324q1 19 9 31q10 14 26.5 16.5t31.5 6.5q78 10 149.5 24.5t144.5 24.5q29 47 60 90t61 88q-41 -16 -83 -18h-8q-38 0 -70 16q-41 20 -57 55q-13 31 -13 66v9q2 40 16.5 80t30.5 71q23 37 50.5 71.5t55.5 67.5q41 45 83 85t90 75q45 35 94 64.5t102 45.5 q29 10 63 15q18 4 36 4q15 0 29 -2q32 -5 58.5 -19t45.5 -43q35 31 49 40t30 5q35 -10 53.5 -35.5t18.5 -52.5q0 -16 -18.5 -33.5t-69.5 -70.5q-29 -29 -55.5 -61t-53.5 -62q-111 -131 -209 -261t-192 -266q47 6 95 11.5t96 5.5q23 0 36 -15.5t17 -37.5q3 -12 3 -23 q0 -29 -20 -53q-12 -16 -34.5 -16.5t-38.5 -2.5q-55 -4 -94 -7t-69 -6t-51.5 -5t-41.5 -4q-27 -41 -57.5 -90t-77.5 -144q-6 -14 -12.5 -26.5t-22.5 -18.5q-15 -5 -30 -5q-14 0 -28 4q-28 9 -45 34q-16 23 -2 57q4 8 9.5 17.5t14.5 28t24.5 47t41.5 75.5q-6 0 -29.5 -3 t-55 -6t-67.5 -8t-69 -7q-18 -2 -29.5 9t-16.5 28q-4 13 -4 28v6zM12 100q-5 -11 -5 -19q0 -12 9 -15q5 -2 12 -2q11 0 27 6q25 10 50.5 27.5t51 37t42.5 33.5q88 74 167.5 159t153.5 175q3 10 3 21v5q-1 13 -18 13h-5q-47 -4 -101.5 -38t-97.5 -67q-51 -41 -98 -85t-88 -95 q-6 -6 -27.5 -34.5t-43 -60.5t-32.5 -61z" />
<glyph unicode="r" horiz-adv-x="618" d="M-18 310.5q0 21.5 16 39.5q61 59 115.5 120.5t107.5 125.5q4 8 11.5 15t11.5 16q-4 20 -1 44.5t12 45t26.5 34t42.5 15.5h5q28 0 48 -18q22 -20 26 -52q2 -20 -4 -39.5t-16 -38.5l23 -10q31 -14 60.5 -15t57.5 -18q27 -16 40.5 -44.5t-7.5 -51.5q-63 -72 -115.5 -136 t-99.5 -130q-8 -12 -24.5 -42t-27.5 -57.5t-8 -44t33 0.5q61 33 119 92t148 149q12 14 26.5 29.5t30.5 24.5q12 4 23 4q20 1 38 -13q23 -18 22 -45q0 -6 -1 -12q-4 -20 -17.5 -33.5t-25.5 -27.5q-37 -37 -63.5 -65t-47 -47.5t-36 -34.5t-29.5 -30q-23 -20 -47.5 -41.5 t-52 -40t-58.5 -29.5t-63 -11q-43 0 -74 17t-47 45q-17 29 -20 65q-1 8 -1 16q0 28 8 57q20 80 68.5 147.5t99.5 131.5q14 18 27.5 36.5t30.5 37.5q-12 4 -29.5 12t-28.5 16q-14 -18 -30.5 -37.5t-38 -44t-51 -57.5t-72.5 -78q-12 -12 -24.5 -26.5t-28.5 -22.5 q-23 -12 -43.5 -5t-32.5 23.5t-12 38z" />
<glyph unicode="s" horiz-adv-x="559" d="M-204 124q-3 16 -3 33q0 37 14 74q8 25 32 33t45.5 3t35.5 -22.5t6 -41.5q-7 -24 -7 -44q1 -36 23 -61q36 -39 95 -39q47 0 90 36t61 79q8 16 12.5 35.5t7.5 46.5t5 64.5t6 93.5q-37 -45 -72.5 -84t-70.5 -70q-20 -18 -42 -13t-36 21.5t-16 40t16 41.5q35 35 66.5 69 t62.5 70q29 35 57.5 73t63.5 87q16 66 49 119q31 47 79 79t107 32q29 0 49.5 -14.5t22.5 -41.5q0 -18 -7 -30.5t-19.5 -21.5t-27 -15t-26.5 -15q-35 -23 -54.5 -55.5t-27.5 -67.5q-20 -86 -22 -175t-13 -177q-6 -70 -33.5 -130t-70.5 -105q-42 -45 -100 -71 q-48 -22 -105 -22q-11 0 -22 1q-59 2 -108.5 27.5t-81.5 65.5t-41 92z" />
<glyph unicode="t" horiz-adv-x="356" d="M-127 80q4 60 31.5 119t65.5 111t63 83q76 92 154.5 181.5t160.5 175.5l-117 -11q-16 -2 -32.5 -5t-28.5 14q-21 25 -21 52q0 13 5 27q6 23 23.5 26t37.5 7q12 2 27.5 4t44 6t77 11.5t125.5 17.5q55 57 111.5 113.5t116.5 107.5q14 12 26.5 24.5t26.5 22.5q12 9 25 9h3 q14 -2 27 -11q23 -12 38.5 -36.5t10.5 -51.5q-4 -16 -17 -27.5t-23 -21.5l-109 -102q80 10 141.5 15t118.5 9q10 0 24.5 2t24.5 -2q18 -6 25.5 -22.5t7.5 -37t-4 -40t-10 -29.5q-10 -16 -35 -16h-41q-106 -6 -208.5 -14.5t-203.5 -20.5q-80 -86 -135 -147.5t-97 -106.5 t-73 -80t-57 -67q-51 -59 -103.5 -124t-79.5 -139q-12 -41 4.5 -44t42 11.5t50 34t30.5 25.5q29 27 63 61.5t99 106.5q12 14 26.5 30.5t31.5 26.5q29 18 58.5 4t33.5 -47q2 -18 -5.5 -31.5t-19.5 -25.5q-35 -37 -59.5 -63.5t-44 -47t-33.5 -36t-29 -29.5q-49 -51 -109.5 -95 t-138.5 -48h-11q-58 0 -97 38q-39 39 -39 92v11z" />
<glyph unicode="u" horiz-adv-x="729" d="M-136 85q6 44 21 83q20 53 61.5 113.5t89.5 119t98 110.5t91 93q14 12 29.5 27.5t36.5 17.5q35 0 57.5 -27.5t22.5 -52.5q0 -29 -19 -47q-68 -74 -134 -143.5t-126 -147.5q-18 -20 -36.5 -46.5t-33 -51t-20.5 -44t2 -26t32.5 4t74.5 45.5q90 66 167.5 144.5t151.5 164.5 l162 182q12 14 27.5 28.5t35.5 16.5q35 0 55.5 -26.5t24.5 -55.5q0 -16 -4 -25.5t-16 -21.5q-29 -31 -58.5 -60.5t-58.5 -64.5q-59 -66 -107.5 -126t-78.5 -126q-6 -10 -12.5 -26.5t-8.5 -30.5t5 -21.5t30 5.5q27 14 49.5 32.5t44.5 38.5l172 172q12 12 26.5 27.5t31.5 24.5 q34 13 60 -9q22 -18 22 -46q0 -5 -1 -11q-4 -20 -17 -33.5t-26 -27.5q-47 -47 -89 -90.5t-87 -84.5q-23 -20 -47 -41.5t-52 -40t-58.5 -30.5t-65.5 -12q-37 0 -70.5 15t-52.5 48q-10 16 -13 32.5t-5 33.5q-47 -41 -109 -80q-29 -16 -63.5 -32.5t-75.5 -16.5q-35 0 -67.5 15 t-51.5 46q-19 33 -19 68q1 9 2 17z" />
<glyph unicode="v" horiz-adv-x="718" d="M-112 124q8 56 30 103q47 98 124 179t146 157q16 18 33 34.5t35 33.5q20 17 41 17q15 0 31 -9q37 -23 41 -66q2 -16 -1 -26t-14 -23q-76 -86 -148.5 -159.5t-131.5 -159.5q-29 -37 -38 -70t-2 -51t33.5 -17t69.5 29q41 29 81 61.5t77 67.5q43 43 86 92q-5 21 -5 43 q0 36 13 76q31 94 109 162q14 12 36 26q20 15 44 22q18 5 37 5h11q24 -2 46 -22q24 -22 24 -56q0 -10 -2 -22q-10 -49 -36.5 -101.5t-60.5 -96.5t-50 -64q23 -10 47 -7t47 13q25 10 43 27.5t41 33.5t48.5 11t39.5 -27q9 -17 9 -32q0 -10 -4 -20q-11 -22 -32 -40 q-41 -37 -93 -61.5t-109 -24.5q-66 0 -119 35q-51 -53 -106.5 -101.5t-116.5 -89.5q-39 -25 -87.5 -43t-94.5 -22q-9 -1 -17 -1q-35 0 -69 14q-40 17 -66 64q-21 38 -21 81q-1 13 1 25z" />
<glyph unicode="w" horiz-adv-x="985" d="M-132 83q6 44 21 85q25 57 65 118.5t87 119t96 109.5t92 95q12 10 27.5 24.5t34.5 14.5q37 0 55.5 -27.5t22.5 -56.5q2 -16 -5.5 -27.5t-17.5 -21.5q-31 -33 -61.5 -62.5t-59.5 -64.5q-53 -63 -104 -123.5t-88 -130.5q-12 -20 -20.5 -38.5t-6.5 -28t15.5 -6t41.5 25.5 q90 61 160 145t137 162q12 14 40 50t60 74t61.5 66.5t43.5 30.5q33 4 57.5 -19.5t30.5 -51.5q6 -25 -10 -45q-57 -76 -119.5 -143.5t-117.5 -141.5q-16 -20 -38 -57t-31 -64.5t6 -33.5q2 -1 4 0q18 0 71 38q20 14 41.5 30.5t48.5 41.5t59.5 57.5t77.5 79.5q-8 25 -8 51 q0 8 1 16q3 34 15 64q16 47 46 88t67 74q28 23 60 37q30 13 58 13h4q30 -1 50 -22.5t20 -70.5q0 -25 -8 -48.5t-18 -45.5q-23 -47 -53.5 -90t-61.5 -82q18 -4 34 -4q31 1 59 15q42 22 77 50q20 16 46 15.5t42 -23.5q12 -18 12 -35q0 -9 -3 -17q-9 -24 -29 -40 q-41 -39 -94.5 -62.5t-112.5 -23.5t-113 29q-51 -53 -106.5 -102.5t-116.5 -88.5q-39 -25 -86 -43t-92 -20h-9q-40 1 -73 17q-37 18 -55 67q-37 -29 -81 -55.5t-91 -30.5q-10 -1 -20 -1q-38 0 -66 13q-35 16 -54 47q-19 33 -19 68q1 9 2 17z" />
<glyph unicode="x" horiz-adv-x="673" d="M-139 -70q-1 6 -1 12q0 16 13 30q18 18 35 34q49 47 82 79t56.5 54.5t39.5 38t31 29.5q0 49 6 98l-25 -24q-18 -18 -39.5 -29.5t-48.5 4.5q-25 14 -30 42.5t18 51.5q41 41 78 83t71 87q18 29 30.5 47.5t20 29.5t11.5 16l8 10q12 10 31.5 9t36.5 -5q33 -14 49 -45 q10 -16 6 -29.5t-10 -30.5q-16 -41 -28.5 -83t-22.5 -85q72 66 124 112t90.5 80t68.5 59.5t59 47.5q12 10 24 21.5t27 19.5q9 6 20 6q13 0 29 -8q23 -12 37 -35.5t14 -50.5q-2 -14 -11 -22.5t-20 -16.5l-9 -9t-21.5 -18.5t-46 -39t-81 -69.5t-129 -110.5t-188.5 -160.5 q8 -63 28 -89q8 -11 23 -10q21 0 54 21q59 37 117.5 92t146.5 139l21.5 21.5t23.5 21.5q18 14 38.5 11.5t35 -15t19.5 -32.5q2 -6 2 -13q0 -13 -7 -26q-4 -10 -12 -17.5t-17 -17.5q-55 -53 -93 -88t-62.5 -58.5t-42 -38t-31.5 -26.5q-41 -33 -90 -64.5t-105 -31.5h-14 q-57 1 -93 31q-40 34 -63 85q-37 -33 -75.5 -67.5t-104.5 -93.5q-10 -8 -17 -14.5t-20 -6.5q-25 0 -44 17.5t-23 39.5z" />
<glyph unicode="y" horiz-adv-x="696" d="M-223 -539q8 16 15 31.5t18 32.5q18 35 37.5 70.5t39.5 70.5q86 143 187 287q-16 -6 -31.5 -10t-32.5 -4q-39 0 -73.5 14t-53.5 47t-19 68q0 9 2 17q5 44 21 83q20 53 61.5 113.5t90.5 119t99 111.5t89 92q14 12 29.5 27.5t36.5 17.5q35 0 56.5 -25.5t21.5 -54.5 q2 -29 -17 -47q-63 -68 -105 -114t-70.5 -77.5t-48 -55t-36.5 -44.5q-10 -12 -29.5 -38.5t-35 -54t-23.5 -51.5t4 -28q6 -4 19.5 1.5t28 14.5t29.5 19t26 19q76 55 142.5 119.5t127.5 131t120.5 134t125.5 129.5q10 10 22.5 16t28.5 2q31 -8 50.5 -31.5t19.5 -56.5 q0 -8 -4.5 -15t-15.5 -17.5t-27.5 -28t-40.5 -43.5q-98 -104 -176 -202.5t-150 -195.5q-113 -154 -209 -291t-174 -280q-10 -16 -19.5 -33.5t-17.5 -34.5q-8 -14 -14 -26.5t-21 -18.5q-15 -5 -30 -5q-14 0 -27 4q-29 9 -45 34q-10 14 -10 29q0 14 8 28z" />
<glyph unicode="z" horiz-adv-x="690" d="M-81 20q-1 6 -1 12q0 14 5 28q7 20 24 34l84 74q98 82 201.5 163t232.5 183q-53 -12 -107 -20q-30 -5 -60 -5q-24 0 -48 3q-43 -76 -81 -127.5t-79 -92.5q-16 -18 -38.5 -24t-45.5 10t-26 44t18 48q78 78 135 182q4 8 9 18.5t10 20.5q2 23 14 37.5t29.5 18.5t36 0 t30.5 -19q25 -10 55.5 -9t55.5 3q72 6 144.5 17.5t129.5 44.5q18 9 33 9h2q16 -1 35 -11q23 -12 35 -35t14 -47q0 -20 -21.5 -36t-35.5 -28q-133 -102 -218 -167.5t-138.5 -107.5t-84 -68t-57.5 -46q16 -12 32.5 -25.5t35.5 -25.5q29 -20 56 -15t52 21q59 37 117.5 91 t146.5 140l21.5 21.5t23.5 21.5q18 14 39 11.5t35 -15t20 -32.5q2 -7 3 -14q0 -12 -7 -25q-10 -18 -30 -35q-166 -162 -230 -211q-41 -33 -90 -64.5t-104 -31.5q-63 0 -115 34q-23 14 -40 30.5t-40 29.5q-14 6 -26.5 3t-22.5 -10.5t-20.5 -17.5t-18.5 -18 q-16 -16 -32.5 -23.5t-41.5 -1.5t-39 21.5t-17 33.5z" />
<glyph unicode="{" horiz-adv-x="774" d="M45 -232.5q-2 62.5 11.5 122t42 114.5t67.5 102q25 35 52.5 63t45.5 62q4 10 -8 21.5t-28.5 21t-34 17.5t-21.5 12q-29 20 -25.5 55t35.5 48q39 16 78 21t76 24q78 39 117 111.5t67 148.5q31 80 73 152.5t107 129.5q61 51 144 86q16 10 30.5 11.5t32.5 -11.5 q27 -16 34 -46.5t-3 -55.5q-4 -10 -11 -16.5t-18 -10.5l-47 -24q-72 -43 -114.5 -103.5t-73.5 -130.5q-20 -47 -40 -96t-48 -94q-51 -84 -144 -135q-41 -23 -88 -39q35 -41 40 -82t-11 -80q-16 -37 -40 -68.5t-48 -62.5q-25 -33 -46.5 -68t-35.5 -76q-16 -41 -18 -82.5 t4 -84.5q4 -16 9 -33t-5 -33q-10 -25 -31 -37q-25 -16 -58.5 -11t-43.5 34q-23 61 -25 123.5z" />
<glyph unicode="|" horiz-adv-x="882" d="M7 -298.5q16 32.5 30 60.5q102 197 191 363t174 311.5t169 273.5t177 248q10 12 21 20.5t28 6.5q33 -4 55.5 -24.5t26.5 -51.5q4 -16 -6.5 -28.5t-20.5 -24.5q-195 -291 -358.5 -564.5t-305.5 -549.5q-10 -18 -18 -35.5t-16 -36.5q-8 -16 -15.5 -31.5t-23.5 -23.5 q-25 -12 -54.5 -4t-46.5 29q-23 29 -7 61.5z" />
<glyph unicode="}" horiz-adv-x="794" d="M-218 -362q-7 28 3 57q4 10 11 15t18 9q59 33 85.5 51.5t43.5 36.5q37 37 61.5 80t44.5 90q20 49 42 97.5t47.5 90.5t60 76.5t82.5 61.5q23 10 44 20.5t44 18.5q-63 82 -29 164q16 35 39.5 66.5t48.5 62.5q57 78 85 151.5t11 159.5q-6 35 -4 58.5t31 46.5q25 16 58.5 11 t43.5 -36q14 -37 19.5 -77t5.5 -79q0 -57 -15.5 -107t-40 -96t-55 -88t-63.5 -81q-12 -16 -22.5 -27.5t-15.5 -22t-1 -21.5t20 -24q16 -10 33 -18t33 -18q29 -20 25.5 -55.5t-35.5 -47.5q-39 -16 -78 -21t-76 -24q-78 -37 -117 -109.5t-67 -150.5q-31 -80 -73 -152.5 t-107 -130.5q-33 -27 -69 -48t-73 -38q-18 -10 -32.5 -11t-32.5 11q-27 20 -34 48z" />
<glyph unicode="~" horiz-adv-x="786" d="M170.5 283q-13.5 34 13.5 57q31 27 61.5 49.5t67.5 32.5q25 8 57.5 7t61.5 -12t46.5 -30.5t13.5 -48.5q18 10 35.5 24.5t33.5 30.5q23 18 38 20.5t38 -14.5q12 -8 23.5 -22.5t17.5 -29.5t4 -29.5t-16 -24.5l-39 -33q-20 -16 -42 -28.5t-46 -20.5q-41 -14 -86 -6t-76 41 q-20 20 -17 47q-20 -10 -36.5 -24.5t-32.5 -28.5q-39 -33 -78 -7q-29 16 -42.5 50z" />
<glyph unicode="&#xa1;" horiz-adv-x="561" d="M-68 47q-2 20 19.5 36.5t34.5 29.5q143 119 262 269t219 292q10 16 21.5 28.5t31.5 8.5t37.5 -17.5t28.5 -31.5q10 -18 -2.5 -36t-22.5 -34q-61 -90 -119.5 -175t-119 -162t-126 -146.5t-139.5 -126.5q-20 -16 -41.5 -16.5t-39 10t-30 29.5t-14.5 42zM604 963 q2 12 12.5 24t24.5 24.5t27.5 20.5t23.5 10q41 10 74 -19.5t33 -66.5q0 -16 -9.5 -28.5t-19.5 -22.5q-20 -20 -48 -37.5t-58 -7.5q-31 10 -47.5 40t-12.5 63z" />
<glyph unicode="&#xa2;" horiz-adv-x="962" d="M2 -255.5q-4 11.5 6 28.5l137 221q-47 49 -59 117.5t2 134.5q16 90 63.5 175t112 156.5t140 127t151.5 86.5q106 39 209 38q39 45 74.5 87t74.5 81q6 6 12.5 14.5t16.5 10.5q31 6 54.5 -19.5t27.5 -50.5q2 -14 -10.5 -25.5t-22.5 -21.5q-12 -12 -28.5 -30.5t-55.5 -65.5 q23 -6 44.5 -14.5t41.5 -18.5q16 -8 35 -17t19 -32q0 -31 -18.5 -59.5t-45.5 -44.5q-14 -10 -33 0q-59 25 -93 36t-64 11q-123 -158 -231.5 -301.5t-209.5 -290.5q121 68 191 166q10 10 19 25.5t24 17.5q29 4 59.5 -16.5t46.5 -43.5q10 -16 10 -24t-10 -25q-45 -55 -88 -101 t-98 -81t-122 -54.5t-130 -7.5q-39 -57 -73 -113.5t-68 -109.5q-8 -14 -21.5 -18t-28 -1t-26.5 11t-21 18q-10 12 -14 23.5zM199 195.5q-9 -52.5 18 -93.5q104 154 205.5 284t193.5 263q-127 -45 -229 -140t-156 -212q-23 -49 -32 -101.5z" />
<glyph unicode="&#xa3;" horiz-adv-x="1196" d="M-173 -114.5q-5 38.5 15 73.5q18 35 52 58.5t74 39t81 22.5t76 11q23 29 42 58.5t40 58.5q-20 -2 -40 -6t-36 0q-14 2 -23.5 14t-12.5 27.5t-2 31t7 27.5q8 14 21.5 16t25.5 7l154 28q35 57 71 113.5t77 109.5q51 70 117.5 130.5t143 104.5t161.5 66.5t176 16.5 q31 -2 65.5 -7t69.5 -14.5t64.5 -22.5t49.5 -34q14 -16 10.5 -40.5t-19 -46t-37 -35t-42.5 -5.5q-45 16 -85 30.5t-85 18.5q-92 6 -173 -23.5t-151.5 -79.5t-131 -116.5t-111.5 -136.5q14 2 53 9t83 13.5t81 8.5t49 -4q16 -8 23.5 -25.5t9.5 -34.5q2 -37 -16 -65 q-10 -14 -26.5 -15.5t-33.5 -3.5q-86 -8 -167 -20.5t-162 -16.5q-23 -33 -44.5 -64.5t-44.5 -62.5q129 4 255 -14t245 -63q121 -49 213 -115q16 -10 27.5 -21.5t15.5 -31.5q4 -29 -15.5 -53.5t-45.5 -30.5q-20 -4 -33.5 2t-30.5 16q-119 80 -204 122t-166 64q-86 23 -169 31 t-161 -2q-29 -39 -68 -85t-84 -79t-93 -42t-95 24q-35 25 -40 63.5zM-59 -84q23 0 47 16.5t43 36.5q-23 -4 -55.5 -20.5t-34.5 -32.5z" />
<glyph unicode="&#xa4;" horiz-adv-x="1042" d="M4 23q4 20 21.5 35.5t31.5 29.5q39 39 78 76t82 72q-10 80 28 154.5t95 129.5q-12 20 -21.5 39t-19.5 37q-4 10 -8 18.5t0 18.5q8 35 41.5 51t66.5 10q16 -4 25.5 -27.5t26.5 -66.5q51 27 110 31q41 2 84 -13.5t76 -44.5q72 47 121 79t96 59q10 6 20.5 10t22.5 0 q35 -10 49 -44t6 -65q-4 -20 -27.5 -29.5t-39.5 -19.5l-174 -92q14 -47 9 -95t-24.5 -92t-49.5 -83t-64 -66q4 -12 6 -24.5t4 -24.5q6 -29 11 -60.5t-23 -54.5q-25 -20 -56 -10q-18 6 -26.5 20.5t-16.5 30.5l-20 45q-70 -27 -137.5 -12.5t-118.5 61.5q-49 -39 -81 -63.5 t-52.5 -39.5t-31.5 -24.5t-22 -17.5q-35 -25 -67 -4q-37 25 -31 66zM367 301q-27 -68 0.5 -103.5t99.5 -13.5q29 10 55.5 28.5t48.5 41.5q39 39 67 87t28 103q0 27 -15.5 38.5t-37 12.5t-44.5 -5.5t-37 -12.5q-55 -25 -99 -75t-66 -101z" />
<glyph unicode="&#xa5;" horiz-adv-x="1196" d="M4 562q4 16 13.5 30t21.5 26.5t22 22.5q90 80 194.5 135t215.5 90q27 8 57.5 14.5t59 4.5t55.5 -13.5t45 -35.5q27 -35 26 -70t-16.5 -67.5t-40 -61.5t-49.5 -51q-35 -35 -70.5 -64.5t-70.5 -62.5q-18 -16 -39.5 -41t-31 -44.5t1 -31.5t53.5 -4q43 10 77 24 q123 51 230.5 125t212.5 146q76 55 117.5 88t78.5 61q25 20 49.5 40t49.5 38q10 10 20 16.5t27 2.5q29 -6 48 -33t23 -53q2 -16 -6 -24.5t-20 -18.5l-96 -80q-123 -100 -245 -204t-237 -214l-55 -53q25 2 49.5 8t44.5 -4q16 -8 23.5 -25.5t9.5 -34.5q2 -35 -16 -67 q-10 -12 -26.5 -13.5t-33.5 -3.5q-43 -4 -73.5 -8t-53 -7t-39 -5t-30.5 -4q-27 -35 -47.5 -65.5t-36.5 -65.5q-10 -25 -27.5 -35t-39 -9t-41.5 11.5t-32 26.5t-2 41q6 16 13.5 33.5t19.5 39.5q-53 -2 -106 -12q-14 -2 -33 -6t-35 0q-14 4 -23.5 16.5t-12.5 27.5t-2 30.5 t7 27.5q8 14 20.5 16.5t26.5 6.5l263 47q18 23 37.5 45t41.5 45q-72 -29 -141.5 -38t-118.5 38q-57 55 -45 131q8 55 45 104.5t84 94.5t94.5 87t77.5 81q16 25 4 29.5t-35.5 -0.5t-48 -15t-30.5 -12q-72 -33 -133.5 -82t-114.5 -99q-23 -23 -43.5 -49t-46.5 -45 q-14 -10 -30.5 -8t-33 12.5t-29 23.5t-18.5 23q-8 14 -4 30z" />
<glyph unicode="&#xa6;" horiz-adv-x="882" d="M7 -298.5q16 32.5 30 60.5q104 199 174 330t104 176q10 12 21.5 20.5t28.5 6.5q33 -4 55 -24.5t26 -51.5q4 -16 -6 -28.5t-20 -24.5q-23 -31 -56.5 -92.5t-68.5 -127t-64.5 -122.5t-42.5 -82q-10 -18 -18 -35.5t-16 -36.5q-8 -16 -15.5 -31.5t-23.5 -23.5 q-25 -12 -54.5 -4t-46.5 29q-23 29 -7 61.5zM416.5 448.5q15.5 32.5 29.5 61.5q37 68 82 138.5t88 133t79 109.5t53 67q10 12 21 20.5t28 6.5q33 -4 55.5 -24.5t26.5 -51.5q4 -16 -6.5 -28.5t-20.5 -24.5q-35 -49 -76 -104.5t-81 -112.5t-75.5 -113.5t-56.5 -107.5 q-8 -16 -15 -31.5t-24 -24.5q-25 -12 -54.5 -3.5t-45.5 28.5q-23 29 -7.5 61.5z" />
<glyph unicode="&#xa7;" horiz-adv-x="958" d="M4 20q-4 23 20.5 41.5t41.5 26.5l27.5 11t27.5 1q4 -4 8 -10t8 -10q45 -51 104.5 -70.5t114.5 -11.5q61 8 113.5 38t95.5 73q6 6 15.5 17t17.5 23.5t10 23.5t-4 20q-12 14 -49 11t-83 -8.5t-93 -1t-80 34.5q-53 45 -50 108.5t44 111.5q37 45 90 73q-31 55 -4 119 q20 45 54 79t75 58q92 53 193.5 71.5t193.5 -3.5q41 -10 54.5 -27.5t-3.5 -58.5q-10 -23 -27 -44.5t-42 -17.5q-88 20 -180.5 3t-164.5 -66q-33 -23 -25.5 -30t38.5 3q43 12 93 10t93 -20t71.5 -54t28.5 -87q2 -61 -36.5 -108.5t-92.5 -74.5q10 -16 17.5 -37.5t7.5 -46.5 q-2 -53 -28.5 -99t-61.5 -81q-45 -47 -99.5 -80.5t-115 -51t-125 -17.5t-125.5 24q-41 16 -75 41t-62 54q-8 8 -18.5 19t-12.5 21zM377 336q12 -23 61 -16.5t104.5 27t99.5 48t46 49.5q2 16 -17.5 21.5t-47 4.5t-54 -5t-39.5 -4q-12 -4 -41.5 -17.5t-57.5 -32t-46 -38 t-8 -37.5z" />
<glyph unicode="&#xa8;" horiz-adv-x="450" d="M4.5 857.5q7.5 29.5 30.5 51.5q10 12 23.5 24.5t28.5 23t31.5 15.5t33.5 1q35 -10 55 -43t12 -62t-43 -55.5t-59 -36.5q-25 -10 -52.5 -4t-44.5 27q-23 29 -15.5 58.5zM233.5 862.5q4.5 22.5 26.5 48.5q23 23 55.5 46.5t65.5 17.5q37 -8 55 -40t8 -67q-4 -16 -16 -26.5 t-22 -20.5q-20 -16 -39 -29.5t-37.5 -18.5t-37 2t-40.5 34q-23 31 -18.5 53.5z" />
<glyph unicode="&#xa9;" horiz-adv-x="1292" d="M-95 7q1 95 29 186q33 106 89.5 203.5t128.5 183.5q66 78 141.5 147.5t161.5 124.5q68 43 151.5 78t169.5 45t168 -11.5t150 -86.5q70 -68 87 -159t1.5 -185.5t-52 -184.5t-75.5 -158q-53 -90 -118 -170.5t-142 -150.5q-106 -96 -233.5 -160.5t-264.5 -64.5 q-104 0 -199.5 45t-146.5 139q-47 84 -46 179zM27 -16.5q4 -69.5 47 -124.5q49 -61 110.5 -83t129 -15.5t136 34t132 68.5t118 87t91.5 87q59 66 111 139.5t91 155.5q23 49 44.5 108.5t29.5 120t-1 117.5t-48 102q-37 43 -85 60.5t-101.5 16.5t-106.5 -15.5t-96 -32.5 q-80 -37 -153 -88t-136.5 -112.5t-116.5 -131t-94 -143.5q-29 -51 -52.5 -104.5t-37.5 -110.5q-16 -66 -12 -135.5zM176 136q4 63 27 118q45 115 136 206t202 146q33 18 73.5 33.5t82.5 22t82 0.5t73 -33q41 -37 46 -86t-11.5 -97.5t-48 -90.5t-66.5 -68q-10 -8 -21.5 -14.5 t-25.5 -2.5q-18 2 -31.5 13.5t-21.5 26t-11.5 30.5t-1.5 31q2 14 11.5 23t19.5 20q12 10 24.5 22.5t22.5 24.5q6 6 14.5 20.5t14.5 27.5t6 23.5t-14 10.5q-29 0 -79 -23.5t-104.5 -61.5t-105.5 -85t-84 -92q-12 -18 -30.5 -51t-30 -68t-5 -62.5t42.5 -36.5q31 -6 63 1.5 t63.5 22.5t61.5 36.5t56 42.5q14 12 29.5 27.5t34.5 19.5q27 6 49 -10.5t24 -42.5q4 -25 -10 -40.5t-31 -29.5q-78 -66 -156.5 -108.5t-164.5 -42.5q-53 0 -100.5 18t-75.5 63q-33 53 -29 116z" />
<glyph unicode="&#xaa;" horiz-adv-x="1005" d="M199 517q4 46 22.5 90t36.5 73q66 100 151 188t189 148q47 25 97 42t104 13q82 -6 121 -61q12 16 31.5 31.5t35.5 17.5q31 0 55 -25q23 -23 25 -52.5t-18 -51.5q-29 -31 -60 -60.5t-59 -64.5q-68 -80 -112 -136.5t-75 -115.5q-10 -16 -15 -34.5t-4 -31t11 -17.5t33 7 q27 14 49.5 33.5t44.5 42.5l170 170q12 12 25.5 27.5t29.5 23.5q33 12 61 -8.5t23 -54.5q-4 -20 -16 -32.5t-25 -27.5q-72 -74 -108.5 -110.5l-65.5 -65.5q-43 -41 -95 -81t-120 -46q-49 -4 -86 12.5t-57 51.5q-12 20 -16 53q-29 -25 -57.5 -45.5t-59.5 -38.5 q-49 -27 -101.5 -33t-99.5 19q-43 23 -56 63.5t-9 86.5zM336 481.5q2 -12.5 18 -12.5q47 4 89 38t73 60q88 80 162 167t147 173q4 41 -23.5 41t-64.5 -16.5t-71.5 -41t-44.5 -32.5q-74 -59 -148 -139t-113 -158q-4 -6 -11 -21.5t-11 -30.5t-2 -27.5z" />
<glyph unicode="&#xab;" horiz-adv-x="1124" d="M187.5 324.5q5.5 9.5 15.5 19.5q33 29 68.5 57.5t76.5 57t90 61.5t109 72q20 14 39.5 9t34 -20.5t22.5 -38t8 -40.5q0 -16 -20 -27q-14 -10 -27.5 -18t-28.5 -17q-6 -4 -27.5 -17t-51 -31.5t-61.5 -38t-55.5 -35t-36.5 -23.5t-5 -4l51 -103q10 -18 18.5 -37.5t16.5 -39.5 q14 -31 -21 -56q-29 -23 -65 -16q-16 4 -22.5 17.5t-12.5 27.5q-10 20 -24.5 48t-30 58.5t-31.5 60.5t-29 54q-6 10 -0.5 19.5zM495 324.5q5 9.5 15 19.5q33 29 68.5 57.5t76.5 57t90.5 61.5t108.5 72q20 14 39.5 9t34 -20.5t22.5 -38t8 -40.5q0 -16 -20 -27 q-14 -10 -27.5 -18t-27.5 -17q-6 -4 -27.5 -17t-51.5 -31.5t-61.5 -38t-55 -35t-37 -23.5t-5.5 -4l51 -103q10 -18 18.5 -37.5t16.5 -39.5q14 -31 -20 -56q-29 -23 -66 -16q-16 4 -22.5 17.5t-12.5 27.5q-10 20 -24.5 48t-29.5 58.5t-31.5 60.5t-28.5 54q-6 10 -1 19.5z" />
<glyph unicode="&#xac;" horiz-adv-x="901" d="M44 322.5q1 17.5 7 27.5q8 16 20.5 18.5t26.5 4.5q88 12 161 22.5t134.5 18.5t114.5 13t106 9q16 2 39 5t39 -7q35 -18 31 -48t-39 -89q-47 -80 -91 -146.5t-71 -105.5q-8 -12 -21.5 -12t-28.5 7t-27.5 18.5t-18.5 21.5q-8 16 -2 27.5t12 23.5l84 154 q-63 -4 -128.5 -10.5t-124 -10.5t-107.5 -8t-80 -4q-14 0 -22.5 11t-11.5 26.5t-2 33z" />
<glyph unicode="&#xad;" horiz-adv-x="704" d="M145.5 288.5q-2.5 24.5 10.5 43.5q10 20 35.5 23t46.5 7q63 12 125.5 21.5t125.5 13.5q16 2 33 5.5t33 -1.5q12 -4 19.5 -11t13.5 -17q29 -54 -8 -101q-10 -14 -37 -14q-6 0 -17.5 -1t-41 -4t-87 -7t-157.5 -10q-23 -2 -41.5 -3.5t-34.5 15.5q-16 16 -18.5 40.5z" />
<glyph unicode="&#xae;" horiz-adv-x="1290" d="M-95 7q1 95 29 186q33 106 89.5 203.5t128.5 183.5q66 78 141.5 147.5t161.5 124.5q68 43 151.5 78t169.5 45t168 -11.5t150 -86.5q70 -68 87 -159t1.5 -185.5t-52 -184.5t-75.5 -158q-53 -90 -118 -170.5t-142 -150.5q-106 -96 -233.5 -160.5t-264.5 -64.5 q-104 0 -199.5 45t-146.5 139q-47 84 -46 179zM27 -16.5q4 -69.5 47 -124.5q49 -61 110.5 -83t129 -15.5t136 34t132 68.5t118 87t91.5 87q59 66 111 139.5t91 155.5q23 49 44.5 108.5t29.5 120t-1 117.5t-48 102q-37 43 -85 60.5t-101.5 16.5t-106.5 -15.5t-96 -32.5 q-80 -37 -153 -88t-136.5 -112.5t-116.5 -131t-94 -143.5q-29 -51 -52.5 -104.5t-37.5 -110.5q-16 -66 -12 -135.5zM130 30.5q5 14.5 13 28.5q20 39 42 75t46 71q-18 31 -15 57.5t20.5 46t44 30.5t55.5 11q20 25 40.5 50.5t47.5 54.5q-16 -4 -25 -4q-35 2 -56 28.5t-17 59.5 q4 27 23.5 40t41.5 23q82 43 176.5 70.5t186.5 13.5q51 -8 93 -36.5t60 -78.5q23 -57 2.5 -112.5t-55.5 -100.5q-41 -53 -95 -92t-118 -67q51 -66 76 -144q4 -12 6 -24.5t-8 -22.5q-18 -23 -53 -32t-62 1q-16 4 -19 22.5t-8 33.5q-12 35 -23 67.5t-32 57.5q-41 -8 -83 -10.5 t-83 2.5q-37 -49 -58.5 -80t-33.5 -50.5t-19.5 -29.5t-13.5 -17q-23 -23 -54.5 -12.5t-41.5 39.5q-6 16 -1 30.5zM489 311q37 -14 74 -41q78 33 138.5 76t97.5 103q14 20 22 45.5t-6 50.5q-12 18 -31.5 26.5t-41 9.5t-43 -3.5t-35.5 -12.5q10 -17 12 -33q2 -23 -9.5 -36 t-27.5 -27q-35 -37 -58.5 -61.5t-41 -42t-28.5 -29.5t-22 -25z" />
<glyph unicode="&#xaf;" horiz-adv-x="481" d="M2 853q0 26 16 44q12 12 35 12q31 2 70 6.5t81 7.5t85 6t82 3q29 0 54.5 -1t41.5 -30q14 -25 10.5 -54.5t-26.5 -49.5q-6 -6 -32 -9.5t-61 -1.5q-16 0 -34.5 1t-47 1h-70.5h-106q-23 0 -45 -1t-39 22q-14 18 -14 44z" />
<glyph unicode="&#xb0;" horiz-adv-x="671" d="M135 589q0 54 47 118q43 57 102.5 86.5t119 35t112.5 -14t82 -59.5t27.5 -97.5t-50.5 -129.5q-39 -57 -96 -83.5t-116.5 -28.5t-112.5 19.5t-84 60.5t-31 93zM263 594q-13 -41 5.5 -62.5t61.5 -15.5t92 53q51 47 67.5 88t3 61.5t-52.5 14.5t-98 -51q-66 -47 -79 -88z" />
<glyph unicode="&#xb1;" horiz-adv-x="901" d="M-106 -120q-5 34 6 57q8 16 20 18t27 4q49 8 88 13t83 11.5t99 12.5t135 16l111 11q16 2 38.5 5t39.5 -8q16 -8 23 -24t7 -34.5t-5 -37t-13 -28.5q-10 -12 -27.5 -13.5t-31.5 -3.5q-129 -4 -253 -16.5t-247 -22.5q-16 -2 -33.5 -4t-32.5 2q-29 8 -34 42zM46 294 q-5 34 5 56q8 16 20.5 18.5t26.5 4.5q98 16 151.5 23t96.5 12q12 23 30.5 52t67.5 101q10 12 19.5 28.5t25.5 24.5q29 14 57 -9t32 -50q4 -14 -5.5 -26.5t-17.5 -22.5q-10 -14 -21.5 -31.5t-29.5 -48.5l110 10q16 2 39 5t39 -7q16 -8 23.5 -24.5t7.5 -35t-5 -37t-13 -28.5 q-10 -12 -28 -13t-32 -3q-10 0 -22.5 -1t-36 -2t-64.5 -5t-108 -11q-57 -88 -97 -176q-4 -10 -10 -18t-16 -12q-27 -10 -54.5 3t-37.5 40q-4 12 2 24t10 23l53 106q-12 0 -32.5 -2t-86.5 -8q-16 -2 -33.5 -4t-31.5 2q-29 8 -34 42z" />
<glyph unicode="&#xb2;" horiz-adv-x="780" d="M5 199.5q3 15.5 13.5 28t22.5 20.5q129 78 245.5 156.5t227.5 170.5q25 23 48.5 46.5t45.5 50.5q43 51 30 61t-60 -12q-78 -39 -130.5 -98.5t-91.5 -130.5q-10 -16 -18 -27.5t-29 -15.5q-29 -4 -56.5 11t-37.5 44q-4 12 5 35.5t24.5 47t31 44t23.5 31.5q33 39 90 86 t120.5 78.5t126 33.5t105.5 -49q31 -37 34 -76t-10 -76.5t-40 -73.5t-53 -63q-66 -68 -144.5 -123t-160.5 -102q29 -6 65.5 -15.5t50.5 -31.5q14 -18 8 -43t-20 -41q-16 -20 -38.5 -27.5t-43.5 2.5q-55 25 -115.5 24t-115.5 -13q-29 -4 -66 -15.5t-63 6.5q-18 12 -22.5 26.5 t-1.5 30z" />
<glyph unicode="&#xb3;" horiz-adv-x="686" d="M8 201q-16 33 3.5 62.5t47.5 39.5q27 8 47 -2q45 -23 94.5 -24t94.5 16q35 12 64.5 34.5t50.5 47.5q16 23 12 36t-27 13q-31 -4 -51 -12.5t-47 4.5q-33 18 -36 57t26 62q14 12 32.5 19t34.5 15q55 29 105.5 65t85.5 77q16 18 15 25t-11 5t-28.5 -13t-39.5 -26 q-25 -18 -45 -40.5t-39 -45.5q-6 -8 -12 -15t-18 -11q-35 -4 -64 17.5t-39 54.5q-4 16 5.5 27t19.5 22q35 45 81 77.5t95 51.5q29 10 63.5 14t65.5 -3t54.5 -26.5t31.5 -56.5q8 -33 -1 -65.5t-27.5 -63.5t-43 -56.5t-47.5 -45.5q-12 -10 -23.5 -20.5t-23.5 -20.5 q20 -20 31 -52q12 -39 3 -77.5t-31.5 -73.5t-53.5 -63.5t-62 -47.5q-78 -47 -168 -54t-174 34q-14 6 -29.5 14t-21.5 25z" />
<glyph unicode="&#xb4;" horiz-adv-x="399" d="M127 791q4 10 11 18t16 14q88 66 146 106t112 72q14 8 27.5 17.5t29.5 13.5q20 4 43 -10q23 -16 33 -41.5t4 -52.5q-6 -23 -34 -36t-44 -24l-221 -129q-18 -12 -36.5 -24.5t-41.5 -1.5q-23 10 -36 32.5t-9 45.5z" />
<glyph unicode="&#xb5;" horiz-adv-x="729" d="M-547.5 -461.5q-1.5 15.5 5.5 30.5t18.5 31.5t19.5 28.5q86 131 171 260t174 253t183.5 240t200.5 222q14 12 29.5 27.5t36.5 17.5q35 0 57.5 -27.5t22.5 -52.5q0 -29 -19 -47q-68 -74 -134 -143.5t-126 -147.5q-18 -20 -36.5 -46.5t-33 -51t-20.5 -44t2 -26t32.5 4 t74.5 45.5q90 66 167.5 144.5t151.5 164.5l162 182q12 14 27.5 28.5t35.5 16.5q35 0 55.5 -26.5t24.5 -55.5q0 -16 -4 -25.5t-16 -21.5q-29 -31 -58.5 -60.5t-58.5 -64.5q-59 -66 -107.5 -126t-78.5 -126q-6 -10 -12.5 -26.5t-8.5 -30.5t5 -21.5t30 5.5q27 14 49.5 32.5 t44.5 38.5l172 172q12 12 26.5 27.5t31.5 24.5q33 12 59.5 -9.5t21.5 -56.5q-4 -20 -17 -33.5t-26 -27.5q-47 -47 -89 -90.5t-87 -84.5q-23 -20 -47 -41.5t-52 -40t-58.5 -30.5t-65.5 -12q-37 0 -70.5 15t-52.5 48q-10 16 -13 32.5t-5 33.5q-47 -41 -109 -80 q-29 -16 -63.5 -32.5t-75.5 -16.5q-35 0 -66.5 15t-50.5 46q-63 -94 -128.5 -200.5t-147.5 -235.5q-10 -14 -19.5 -29.5t-27.5 -21.5q-29 -12 -52.5 -11.5t-37.5 11.5q-16 10 -17.5 25.5z" />
<glyph unicode="&#xb6;" horiz-adv-x="1079" d="M7 -298.5q16 32.5 30 60.5q119 229 220 417t200 349q-33 14 -60 45q-41 49 -26.5 116t55.5 127.5t94 103.5t90 47q88 12 161 22t134.5 18.5t114.5 13.5t106 9q16 2 39 5t39 -7q16 -8 23.5 -24.5t7.5 -35t-6.5 -37t-14.5 -28.5q-12 -14 -34.5 -16t-38.5 -2 q-195 -272 -365 -559t-321 -584q-10 -18 -18.5 -35.5t-16.5 -36.5q-8 -16 -15.5 -31.5t-23.5 -23.5q-25 -12 -54.5 -4t-45.5 29q-23 29 -7.5 61.5t29.5 60.5q92 178 175 332t161 290t154.5 257t156.5 231l-90 -6q-203 -299 -366.5 -572.5t-305.5 -551.5q-10 -18 -18 -35.5 t-16 -36.5q-8 -16 -15.5 -31.5t-23.5 -23.5q-25 -12 -54.5 -4t-46.5 29q-23 29 -7 61.5z" />
<glyph unicode="&#xb7;" horiz-adv-x="464" d="M208 519.5q3 23.5 16.5 44t35 37.5t37.5 30q16 10 29.5 14t29.5 0q35 -10 55.5 -39.5t12.5 -64.5q-2 -12 -14.5 -26.5t-28.5 -28t-32.5 -23.5t-26.5 -14q-25 -10 -52.5 -4t-44.5 26q-20 25 -17 48.5z" />
<glyph unicode="&#xb8;" horiz-adv-x="516" d="M3 -384.5q-3 15.5 3 32t17.5 31t23.5 20.5q27 16 40 13t40 -13q47 -10 91 -7t85 13q12 2 32.5 12.5t36 22.5t15.5 24.5t-27 18.5q-20 4 -40.5 -2t-38.5 -17q-29 -12 -55.5 -13t-43.5 30q-10 16 -11 34.5t15 28.5q14 8 39 26.5t50.5 39t49 40t33.5 30.5q12 12 27.5 29.5 t36.5 13.5q20 -2 28.5 -20.5t-1.5 -35.5l-52 -71q29 -6 54.5 -22.5t44.5 -47.5q18 -31 17 -61.5t-13.5 -59.5t-35 -53.5t-48.5 -40.5q-49 -33 -110.5 -47.5t-119.5 -14.5q-45 0 -91 7.5t-75 31.5q-14 12 -17 27.5z" />
<glyph unicode="&#xb9;" horiz-adv-x="569" d="M5 236.5q9 17.5 20 33.5q63 102 127.5 195.5t136.5 183.5q-10 14 -17.5 32t-3.5 34q2 12 20.5 27.5t44 32t51.5 31.5t44 28q20 12 44 11t43.5 -11.5t32.5 -29t17 -40.5q2 -20 -14 -35.5t-29 -30.5q-49 -59 -98 -118.5t-97 -121t-94.5 -129t-89.5 -143.5q-4 -10 -9 -18 t-13 -14q-31 -18 -67 0t-48 47q-10 18 -1 35.5z" />
<glyph unicode="&#xba;" horiz-adv-x="665" d="M4 336q2 55 22.5 107.5t49 99.5t63.5 90t70 78q41 41 90 77.5t107 57.5q47 18 100 15t94 -38q43 -39 54.5 -86t3 -97t-31 -99t-46.5 -90q-57 -90 -136 -172t-178 -121q-47 -16 -100 -16.5t-96 32.5q-37 29 -52.5 72t-13.5 90zM134 283.5q3 -17.5 21.5 -19.5t55.5 21 q96 63 174 151t121 189q6 16 12 34.5t10 38.5q2 20 -5 28.5t-19 8.5t-24.5 -4t-20.5 -8q-18 -10 -35.5 -22.5t-34.5 -24.5q-72 -59 -131 -135t-98 -158q-12 -29 -20.5 -55.5t-5.5 -44z" />
<glyph unicode="&#xbb;" horiz-adv-x="1124" d="M160 135q0 16 20 27q14 10 27.5 18t28.5 17q6 4 27.5 17t51 31.5t61.5 38t55.5 35t36.5 23.5t5 4l-51 103q-10 18 -18.5 37.5t-16.5 39.5q-14 31 21 56q29 23 65 16q16 -4 22.5 -17.5t12.5 -27.5q10 -20 24.5 -48t30 -58.5t31.5 -60.5t29 -54q6 -10 0.5 -19.5 t-15.5 -19.5q-33 -29 -68.5 -57.5t-76.5 -57t-90 -61.5t-109 -72q-23 -14 -41 -9t-32.5 20.5t-22.5 38t-8 40.5zM467 135q0 16 20 27q14 10 27.5 18t28.5 17q6 4 27.5 17t51 31.5t61.5 38t55.5 35t36.5 23.5t5 4l-51 103q-10 18 -18.5 37.5t-16.5 39.5q-14 31 21 56 q29 23 65 16q16 -4 22.5 -17.5t12.5 -27.5q10 -20 24.5 -48t30 -58.5t32 -60.5t28.5 -54q6 -10 1 -19.5t-16 -19.5q-33 -29 -68.5 -57.5t-76.5 -57t-90 -61.5t-109 -72q-23 -14 -41 -9t-32.5 20.5t-22.5 38t-8 40.5z" />
<glyph unicode="&#xbc;" horiz-adv-x="1325" d="M49 -117q-10 29 4 51q141 178 304 332t335 293q61 53 126 101.5t130 95.5q29 20 59.5 40.5t59.5 39.5q14 8 26.5 12t26.5 -2q16 -4 26.5 -15.5t18.5 -23.5q17 -28 13 -59q-4 -16 -16.5 -23.5t-24.5 -15.5q-16 -10 -29.5 -20.5t-30.5 -20.5q-238 -160 -451.5 -355.5 t-394.5 -396.5q-29 -29 -49 -55q-10 -10 -19 -20.5t-26 -12.5q-29 -4 -53.5 12.5t-34.5 42.5zM111 201q-8 18 1 35.5t19 33.5q55 104 123 196.5t139 182.5q-20 33 -18 66q2 12 19.5 27.5t39 29.5t41 24.5t23.5 14.5q23 14 38 24.5t29 14.5q18 2 37 -5t33 -19.5t23.5 -30 t11.5 -31.5q2 -20 -14.5 -35.5t-26.5 -30.5q-86 -109 -141.5 -177t-95.5 -120.5t-71.5 -100.5t-70.5 -114q-4 -10 -9 -18t-14 -14q-31 -18 -66.5 0t-49.5 47zM471 113q0 16 13.5 27.5t25.5 21.5q88 72 144.5 117t91 73.5t54 45t36.5 30.5q16 12 30.5 24.5t28.5 26.5 q10 10 21.5 23.5t27.5 17.5q27 4 50.5 -10t29.5 -41q4 -16 -1 -27.5t-15 -21.5l-56 -60q-51 -53 -104 -101t-109 -95q29 4 56.5 8t56.5 8q68 92 134.5 174t137.5 156q10 10 17.5 15t19.5 3q33 0 57.5 -26.5t28.5 -55.5q2 -18 -14 -34.5t-29 -28.5q-10 -14 -40.5 -51 t-63.5 -77t-57.5 -72.5t-24.5 -37.5q10 -41 -5.5 -68.5t-49.5 -31.5q-8 -2 -23 -2l-39 -57l-74 -113q-6 -10 -11 -19.5t-11 -17.5q-10 -12 -28.5 -12t-33.5 4q-39 10 -57 43q-12 18 -6 33.5t16 34.5l49 81l5 9l-62 -4t-61 -7q-27 -4 -54.5 -2t-50 13.5t-37 32t-14.5 51.5z " />
<glyph unicode="&#xbd;" horiz-adv-x="1384" d="M49 -117q-10 29 4 51q141 178 304 332t335 293q61 53 126 101.5t130 95.5q29 20 59.5 40.5t59.5 39.5q14 8 26.5 12t26.5 -2q16 -4 26.5 -15.5t18.5 -23.5q17 -28 13 -59q-4 -16 -16.5 -23.5t-24.5 -15.5q-16 -10 -29.5 -20.5t-30.5 -20.5q-238 -160 -451.5 -355.5 t-394.5 -396.5q-29 -29 -49 -55q-10 -10 -19 -20.5t-26 -12.5q-29 -4 -53.5 12.5t-34.5 42.5zM111 201q-8 18 1 35.5t19 33.5q55 104 123 196.5t139 182.5q-20 33 -18 66q2 12 19.5 27.5t39 29.5t41 24.5t23.5 14.5q23 14 38 24.5t29 14.5q18 2 37 -5t33 -19.5t23.5 -30 t11.5 -31.5q2 -20 -14.5 -35.5t-26.5 -30.5q-86 -109 -141.5 -177t-95.5 -120.5t-71.5 -100.5t-70.5 -114q-4 -10 -9 -18t-14 -14q-31 -18 -66.5 0t-49.5 47zM421 -135.5q-5 22.5 7 43.5q4 8 16.5 16t22.5 15q127 74 242.5 152.5t220.5 170.5q25 23 49.5 45.5t44.5 48.5 q8 10 18.5 24.5t14.5 26t-1 17.5t-28 -2q-35 -10 -57.5 -24.5t-42.5 -30.5q-49 -41 -88 -88.5t-68 -100.5q-8 -16 -17.5 -27.5t-29.5 -15.5q-29 -4 -56.5 10t-37.5 43q-8 23 4 43.5t22 36.5q43 63 90.5 112.5t106.5 90.5q31 20 71 40.5t82 30t81.5 1.5t68.5 -45 q31 -37 34 -76t-11.5 -77t-40 -73.5t-52.5 -62.5q-66 -68 -144.5 -122t-160.5 -101q29 -8 44.5 -13.5t29.5 -11.5l22.5 -9t20.5 -15q14 -18 11 -37t-14 -33t-27.5 -26.5t-30.5 -18.5q-10 -4 -16.5 -2t-16.5 6q-53 29 -115.5 25.5t-116.5 -13.5q-14 -2 -30.5 -7t-33.5 -9 t-34.5 -3t-30.5 11q-18 12 -23 34.5z" />
<glyph unicode="&#xbe;" horiz-adv-x="1437" d="M-12 201q-14 35 5 63.5t48 38.5q27 8 47 -2q45 -23 93 -24t95 16q76 27 115 82q14 18 11 33.5t-25 15.5q-10 -2 -18.5 -5t-18.5 -7q-33 -10 -61 4q-33 18 -36 57t25 62q14 12 32.5 19t35.5 15q43 23 83 49.5t75 59.5q33 29 40 42t-2.5 14t-29 -8t-39.5 -24 q-25 -18 -45.5 -40.5t-38.5 -45.5q-6 -8 -13.5 -15t-17.5 -11q-35 -4 -63.5 17.5t-38.5 54.5q-4 16 5 27t19 22q35 45 81 77.5t95 51.5q29 10 64 14t65.5 -3t54 -26.5t32.5 -56.5q10 -41 -4.5 -81t-41 -76t-60.5 -65.5t-60 -49.5q18 -23 28 -52q12 -39 3 -77.5t-30.5 -73.5 t-52 -63.5t-63.5 -47.5q-78 -47 -168 -54t-172 34q-14 6 -29.5 14t-23.5 25zM209 -117q-10 29 4 51q141 178 304 332t335 293q61 53 125.5 101.5t130.5 95.5q29 20 59.5 40.5t59.5 39.5q14 8 26.5 12t26.5 -2q16 -4 26.5 -15.5t18.5 -23.5q16 -28 12 -59q-4 -16 -16 -23.5 t-25 -15.5q-16 -10 -29.5 -20.5t-29.5 -20.5q-238 -160 -452 -355.5t-394 -396.5q-29 -29 -49 -55q-10 -10 -19.5 -20.5t-25.5 -12.5q-29 -4 -53.5 12.5t-34.5 42.5zM629 113q0 16 13 27.5t26 21.5q88 72 144 117t91 73.5t54.5 45t35.5 30.5q16 12 30.5 24.5t29.5 26.5 q10 10 21 23.5t28 17.5q27 4 50.5 -10t29.5 -41q4 -16 -1 -27.5t-16 -21.5l-55 -60q-51 -53 -104.5 -101t-108.5 -95q29 4 56.5 8t56.5 8q68 92 134 174t138 156q10 10 17.5 15t19.5 3q33 0 57.5 -26.5t28.5 -55.5q2 -18 -14.5 -34.5l-28.5 -28.5q-10 -14 -41 -51t-63.5 -77 t-57 -72.5t-24.5 -37.5q10 -41 -5.5 -68.5t-50.5 -31.5q-8 -2 -22 -2l-39 -57l-74 -113q-6 -10 -11 -19.5t-11 -17.5q-10 -12 -29 -12t-33 4q-39 10 -57 43q-12 18 -6 33.5t16 34.5l49 81l4 9q-31 -2 -61.5 -4t-61.5 -7q-27 -4 -54.5 -2t-50 13.5t-36.5 32t-14 51.5z" />
<glyph unicode="&#xbf;" horiz-adv-x="679" d="M-35 136q-8 69 15 130q18 49 49.5 89t70.5 75q47 43 99.5 78t107.5 65q59 35 125 67t115 81q10 14 21.5 22.5t27.5 4.5q27 -4 52.5 -20.5t19.5 -45.5q-8 -37 -47 -73t-88.5 -68.5t-98.5 -58t-78 -44.5q-53 -31 -101 -65.5t-89 -77.5q-16 -16 -32.5 -41t-28 -52.5 t-10.5 -56t20 -49.5q25 -27 64.5 -19.5t70.5 25.5q39 23 67.5 57t51.5 72q23 37 31 79t22 61q27 27 66.5 19t64.5 -28q12 -14 9 -41.5t-17.5 -61.5t-36 -69.5t-41.5 -64.5q-43 -55 -101.5 -99t-127.5 -63q-57 -16 -116 -3t-102 58q-47 49 -55 118zM666 965q4 14 14 23t20 20 q12 10 25.5 21t30.5 15q23 6 47 -5t41 -29q8 -10 13 -23.5t5 -28.5q0 -16 -9 -28t-19 -23q-20 -20 -49 -37.5t-58 -7.5q-33 10 -49 40t-12 63z" />
<glyph unicode="&#xc0;" horiz-adv-x="1073" d="M7 209.5q9 52.5 30 101.5q37 98 99.5 185.5t129.5 165.5q70 82 145.5 155.5t161.5 138.5q43 35 88.5 65t94.5 54q47 25 97 44.5t103 27.5t102.5 2t96.5 -33q41 -25 67.5 -66.5t30.5 -91.5q4 -49 -7 -97t-34 -93q-23 -47 -49 -84q-8 -10 -14 -18.5t-21 -12.5 q-12 -2 -18 -10q-49 -59 -88 -105t-78 -89q-18 -20 -35.5 -40t-34.5 -42q-18 -23 -34.5 -46.5t-32.5 -46.5q-14 -23 -27.5 -45t-23.5 -45q-12 -23 -22.5 -50.5t-6.5 -53.5q6 -29 26.5 -23t37.5 17q25 14 45 31.5t41 35.5q41 37 79.5 83t104.5 114l16 16t19 13q18 8 36.5 4 t32 -16.5t17.5 -32t-6 -37.5q-4 -10 -14.5 -21.5t-18.5 -21.5q-61 -68 -99 -109t-73 -76q-35 -33 -72 -61.5t-80 -44.5q-41 -16 -74.5 -15t-72.5 25q-39 25 -60.5 63.5t-23.5 84.5q-20 -16 -42 -32t-44 -30q-41 -27 -88 -52.5t-97.5 -40.5t-101.5 -16t-98 23 q-41 23 -70 59.5t-39 83.5q-10 53 -1 105.5zM141 117q4 -16 9.5 -30.5t21.5 -23.5q12 -4 25.5 -4t25.5 2q63 12 119.5 45t108.5 70l75 60q57 47 110.5 97t104.5 103t97.5 111.5t95.5 116.5q8 10 31.5 33.5t48 50t44 48t21.5 27.5q8 16 15.5 31.5t11.5 32.5q10 29 12 67.5 t-22 61.5q-23 23 -60 17.5t-65 -11.5q-68 -16 -129.5 -50t-116.5 -73q-59 -41 -113.5 -89t-105.5 -99q-53 -51 -101.5 -104.5t-93.5 -110.5q-41 -55 -78.5 -114.5t-64.5 -125.5q-12 -33 -23.5 -68.5t-3.5 -70.5zM1075 1473.5q-2 13.5 4 23.5q23 29 59.5 33t65.5 -12 q16 -10 17.5 -34t3.5 -40l24 -203q2 -10 4 -20.5t-2 -20.5q-10 -27 -41.5 -34t-54.5 3q-20 8 -24.5 31t-8.5 39q-16 53 -25.5 105.5t-17.5 105.5q-2 10 -4 23.5z" />
<glyph unicode="&#xc1;" horiz-adv-x="1073" d="M7 209.5q9 52.5 30 101.5q37 98 99.5 185.5t129.5 165.5q70 82 145.5 155.5t161.5 138.5q43 35 88.5 65t94.5 54q47 25 97 44.5t103 27.5t102.5 2t96.5 -33q41 -25 67.5 -66.5t30.5 -91.5q4 -49 -7 -97t-34 -93q-23 -47 -49 -84q-8 -10 -14 -18.5t-21 -12.5 q-12 -2 -18 -10q-49 -59 -88 -105t-78 -89q-18 -20 -35.5 -40t-34.5 -42q-18 -23 -34.5 -46.5t-32.5 -46.5q-14 -23 -27.5 -45t-23.5 -45q-12 -23 -22.5 -50.5t-6.5 -53.5q6 -29 26.5 -23t37.5 17q25 14 45 31.5t41 35.5q41 37 79.5 83t104.5 114l16 16t19 13q18 8 36.5 4 t32 -16.5t17.5 -32t-6 -37.5q-4 -10 -14.5 -21.5t-18.5 -21.5q-61 -68 -99 -109t-73 -76q-35 -33 -72 -61.5t-80 -44.5q-41 -16 -74.5 -15t-72.5 25q-39 25 -60.5 63.5t-23.5 84.5q-20 -16 -42 -32t-44 -30q-41 -27 -88 -52.5t-97.5 -40.5t-101.5 -16t-98 23 q-41 23 -70 59.5t-39 83.5q-10 53 -1 105.5zM141 117q4 -16 9.5 -30.5t21.5 -23.5q12 -4 25.5 -4t25.5 2q63 12 119.5 45t108.5 70l75 60q57 47 110.5 97t104.5 103t97.5 111.5t95.5 116.5q8 10 31.5 33.5t48 50t44 48t21.5 27.5q8 16 15.5 31.5t11.5 32.5q10 29 12 67.5 t-22 61.5q-23 23 -60 17.5t-65 -11.5q-68 -16 -129.5 -50t-116.5 -73q-59 -41 -113.5 -89t-105.5 -99q-53 -51 -101.5 -104.5t-93.5 -110.5q-41 -55 -78.5 -114.5t-64.5 -125.5q-12 -33 -23.5 -68.5t-3.5 -70.5zM932 1278q4 10 11 18.5t15 14.5q88 66 146.5 105.5 t112.5 72.5q14 8 27 17.5t30 13.5q20 4 43 -11q23 -16 33 -41.5t4 -52.5q-6 -23 -34 -36t-44 -23l-221 -129q-18 -12 -37 -24.5t-41 -2.5q-23 10 -36 32.5t-9 45.5z" />
<glyph unicode="&#xc2;" horiz-adv-x="1073" d="M7 209.5q9 52.5 30 101.5q37 98 99.5 185.5t129.5 165.5q70 82 145.5 155.5t161.5 138.5q43 35 88.5 65t94.5 54q47 25 97 44.5t103 27.5t102.5 2t96.5 -33q41 -25 67.5 -66.5t30.5 -91.5q4 -49 -7 -97t-34 -93q-23 -47 -49 -84q-8 -10 -14 -18.5t-21 -12.5 q-12 -2 -18 -10q-49 -59 -88 -105t-78 -89q-18 -20 -35.5 -40t-34.5 -42q-18 -23 -34.5 -46.5t-32.5 -46.5q-14 -23 -27.5 -45t-23.5 -45q-12 -23 -22.5 -50.5t-6.5 -53.5q6 -29 26.5 -23t37.5 17q25 14 45 31.5t41 35.5q41 37 79.5 83t104.5 114l16 16t19 13q18 8 36.5 4 t32 -16.5t17.5 -32t-6 -37.5q-4 -10 -14.5 -21.5t-18.5 -21.5q-61 -68 -99 -109t-73 -76q-35 -33 -72 -61.5t-80 -44.5q-41 -16 -74.5 -15t-72.5 25q-39 25 -60.5 63.5t-23.5 84.5q-20 -16 -42 -32t-44 -30q-41 -27 -88 -52.5t-97.5 -40.5t-101.5 -16t-98 23 q-41 23 -70 59.5t-39 83.5q-10 53 -1 105.5zM141 117q4 -16 9.5 -30.5t21.5 -23.5q12 -4 25.5 -4t25.5 2q63 12 119.5 45t108.5 70l75 60q57 47 110.5 97t104.5 103t97.5 111.5t95.5 116.5q8 10 31.5 33.5t48 50t44 48t21.5 27.5q8 16 15.5 31.5t11.5 32.5q10 29 12 67.5 t-22 61.5q-23 23 -60 17.5t-65 -11.5q-68 -16 -129.5 -50t-116.5 -73q-59 -41 -113.5 -89t-105.5 -99q-53 -51 -101.5 -104.5t-93.5 -110.5q-41 -55 -78.5 -114.5t-64.5 -125.5q-12 -33 -23.5 -68.5t-3.5 -70.5zM873 1277q14 23 38 46q129 100 265 139q16 4 35.5 7.5t36 1 t28.5 -12.5t16 -33q4 -25 -1 -73.5t-15 -83.5q-4 -16 -9 -31.5t-22 -24.5q-20 -10 -42 -5.5t-38 18.5q-16 16 -17 36.5t3 43.5q-51 -27 -90 -53.5t-76 -55.5q-25 -20 -57.5 -11t-48.5 34q-20 35 -6 58z" />
<glyph unicode="&#xc3;" horiz-adv-x="1073" d="M7 209.5q9 52.5 30 101.5q37 98 99.5 185.5t129.5 165.5q70 82 145.5 155.5t161.5 138.5q43 35 88.5 65t94.5 54q47 25 97 44.5t103 27.5t102.5 2t96.5 -33q41 -25 67.5 -66.5t30.5 -91.5q4 -49 -7 -97t-34 -93q-23 -47 -49 -84q-8 -10 -14 -18.5t-21 -12.5 q-12 -2 -18 -10q-49 -59 -88 -105t-78 -89q-18 -20 -35.5 -40t-34.5 -42q-18 -23 -34.5 -46.5t-32.5 -46.5q-14 -23 -27.5 -45t-23.5 -45q-12 -23 -22.5 -50.5t-6.5 -53.5q6 -29 26.5 -23t37.5 17q25 14 45 31.5t41 35.5q41 37 79.5 83t104.5 114l16 16t19 13q18 8 36.5 4 t32 -16.5t17.5 -32t-6 -37.5q-4 -10 -14.5 -21.5t-18.5 -21.5q-61 -68 -99 -109t-73 -76q-35 -33 -72 -61.5t-80 -44.5q-41 -16 -74.5 -15t-72.5 25q-39 25 -60.5 63.5t-23.5 84.5q-20 -16 -42 -32t-44 -30q-41 -27 -88 -52.5t-97.5 -40.5t-101.5 -16t-98 23 q-41 23 -70 59.5t-39 83.5q-10 53 -1 105.5zM141 117q4 -16 9.5 -30.5t21.5 -23.5q12 -4 25.5 -4t25.5 2q63 12 119.5 45t108.5 70l75 60q57 47 110.5 97t104.5 103t97.5 111.5t95.5 116.5q8 10 31.5 33.5t48 50t44 48t21.5 27.5q8 16 15.5 31.5t11.5 32.5q10 29 12 67.5 t-22 61.5q-23 23 -60 17.5t-65 -11.5q-68 -16 -129.5 -50t-116.5 -73q-59 -41 -113.5 -89t-105.5 -99q-53 -51 -101.5 -104.5t-93.5 -110.5q-41 -55 -78.5 -114.5t-64.5 -125.5q-12 -33 -23.5 -68.5t-3.5 -70.5zM869.5 1288.5q-0.5 20.5 15.5 34.5q29 29 60.5 50.5 t68.5 31.5q25 8 57.5 7t61 -12t46 -30.5t13.5 -48.5q18 10 35.5 24.5t34.5 30.5q23 18 38 20.5t37 -14.5q12 -8 23.5 -22t17.5 -29.5t4 -30t-16 -24.5q-49 -41 -75.5 -57.5t-51.5 -24.5q-23 -8 -54.5 -7t-61 11t-48 29.5t-14.5 48.5q-20 -10 -36.5 -24.5t-33.5 -28.5 q-10 -8 -18 -15.5t-21 -5.5q-23 0 -41 13.5t-29.5 33t-12 40z" />
<glyph unicode="&#xc4;" horiz-adv-x="1073" d="M7 209.5q9 52.5 30 101.5q37 98 99.5 185.5t129.5 165.5q70 82 145.5 155.5t161.5 138.5q43 35 88.5 65t94.5 54q47 25 97 44.5t103 27.5t102.5 2t96.5 -33q41 -25 67.5 -66.5t30.5 -91.5q4 -49 -7 -97t-34 -93q-23 -47 -49 -84q-8 -10 -14 -18.5t-21 -12.5 q-12 -2 -18 -10q-49 -59 -88 -105t-78 -89q-18 -20 -35.5 -40t-34.5 -42q-18 -23 -34.5 -46.5t-32.5 -46.5q-14 -23 -27.5 -45t-23.5 -45q-12 -23 -22.5 -50.5t-6.5 -53.5q6 -29 26.5 -23t37.5 17q25 14 45 31.5t41 35.5q41 37 79.5 83t104.5 114l16 16t19 13q18 8 36.5 4 t32 -16.5t17.5 -32t-6 -37.5q-4 -10 -14.5 -21.5t-18.5 -21.5q-61 -68 -99 -109t-73 -76q-35 -33 -72 -61.5t-80 -44.5q-41 -16 -74.5 -15t-72.5 25q-39 25 -60.5 63.5t-23.5 84.5q-20 -16 -42 -32t-44 -30q-41 -27 -88 -52.5t-97.5 -40.5t-101.5 -16t-98 23 q-41 23 -70 59.5t-39 83.5q-10 53 -1 105.5zM141 117q4 -16 9.5 -30.5t21.5 -23.5q12 -4 25.5 -4t25.5 2q63 12 119.5 45t108.5 70l75 60q57 47 110.5 97t104.5 103t97.5 111.5t95.5 116.5q8 10 31.5 33.5t48 50t44 48t21.5 27.5q8 16 15.5 31.5t11.5 32.5q10 29 12 67.5 t-22 61.5q-23 23 -60 17.5t-65 -11.5q-68 -16 -129.5 -50t-116.5 -73q-59 -41 -113.5 -89t-105.5 -99q-53 -51 -101.5 -104.5t-93.5 -110.5q-41 -55 -78.5 -114.5t-64.5 -125.5q-12 -33 -23.5 -68.5t-3.5 -70.5zM889.5 1287.5q7.5 29.5 30.5 51.5q10 12 23 24.5t28.5 23 t32 15.5t32.5 1q35 -10 55.5 -43t12.5 -62t-43 -55t-60 -37q-25 -10 -52 -4t-44 27q-23 29 -15.5 58.5zM1118 1292.5q4 22.5 27 48.5q23 23 55.5 46.5t65.5 17.5q37 -8 55 -40t8 -67q-4 -16 -16.5 -26t-22.5 -21q-20 -16 -38.5 -29.5t-37 -18.5t-37 2t-40.5 34 q-23 31 -19 53.5z" />
<glyph unicode="&#xc5;" horiz-adv-x="1073" d="M7 209.5q9 52.5 30 101.5q37 98 99.5 185.5t129.5 165.5q70 82 145.5 155.5t161.5 138.5q43 35 88.5 65t94.5 54q47 25 97 44.5t103 27.5t102.5 2t96.5 -33q41 -25 67.5 -66.5t30.5 -91.5q4 -49 -7 -97t-34 -93q-23 -47 -49 -84q-8 -10 -14 -18.5t-21 -12.5 q-12 -2 -18 -10q-49 -59 -88 -105t-78 -89q-18 -20 -35.5 -40t-34.5 -42q-18 -23 -34.5 -46.5t-32.5 -46.5q-14 -23 -27.5 -45t-23.5 -45q-12 -23 -22.5 -50.5t-6.5 -53.5q6 -29 26.5 -23t37.5 17q25 14 45 31.5t41 35.5q41 37 79.5 83t104.5 114l16 16t19 13q18 8 36.5 4 t32 -16.5t17.5 -32t-6 -37.5q-4 -10 -14.5 -21.5t-18.5 -21.5q-61 -68 -99 -109t-73 -76q-35 -33 -72 -61.5t-80 -44.5q-41 -16 -74.5 -15t-72.5 25q-39 25 -60.5 63.5t-23.5 84.5q-20 -16 -42 -32t-44 -30q-41 -27 -88 -52.5t-97.5 -40.5t-101.5 -16t-98 23 q-41 23 -70 59.5t-39 83.5q-10 53 -1 105.5zM141 117q4 -16 9.5 -30.5t21.5 -23.5q12 -4 25.5 -4t25.5 2q63 12 119.5 45t108.5 70l75 60q57 47 110.5 97t104.5 103t97.5 111.5t95.5 116.5q8 10 31.5 33.5t48 50t44 48t21.5 27.5q8 16 15.5 31.5t11.5 32.5q10 29 12 67.5 t-22 61.5q-23 23 -60 17.5t-65 -11.5q-68 -16 -129.5 -50t-116.5 -73q-59 -41 -113.5 -89t-105.5 -99q-53 -51 -101.5 -104.5t-93.5 -110.5q-41 -55 -78.5 -114.5t-64.5 -125.5q-12 -33 -23.5 -68.5t-3.5 -70.5zM969 1327.5q6 30.5 23.5 55t43 45t51.5 36.5q37 20 90.5 38 t107.5 19t97.5 -19t59.5 -75q10 -39 2 -70.5t-28.5 -57t-49.5 -45t-59 -33.5q-39 -18 -88.5 -31.5t-97.5 -12.5t-88 20.5t-58 66.5q-12 33 -6 63.5zM1069 1292q2 -4 18.5 -3t39 5t48 10.5t44.5 14.5q10 4 31.5 13t43 21.5t38 25t16.5 22.5q0 6 -14.5 6t-37 -4t-49 -11.5 t-51.5 -15.5q-25 -10 -50.5 -20t-44 -21.5t-27.5 -23t-5 -19.5z" />
<glyph unicode="&#xc6;" horiz-adv-x="1564" d="M7 209.5q9 52.5 30 101.5q37 98 99.5 185.5t129.5 165.5q70 82 145.5 155.5t161.5 138.5q43 35 88.5 65t94.5 54q47 25 97 44.5t103 27.5t102.5 2t96.5 -33q37 -23 62.5 -58.5t33.5 -78.5l9 8q41 41 88 75t100 58q51 23 107.5 36t113.5 1q55 -12 94 -52t39 -99 t-29.5 -112.5t-64.5 -98.5q-37 -47 -79 -89t-87 -81q-41 -35 -90 -9q-23 10 -34 33t-1 47q4 10 16.5 19.5t22.5 19.5q53 49 78 76t43 49q18 23 35.5 46.5t29.5 47.5q4 8 11.5 22.5t10.5 29t-1 25.5t-21 11q-35 0 -66.5 -10t-59.5 -26q-31 -16 -60 -36t-55 -42 q-49 -43 -92 -94.5t-66 -114.5q-4 -10 -7 -24.5t-4 -30t3 -29.5t14 -23q10 -8 22.5 -8t22.5 -2q25 -4 43 -18q18 -16 25.5 -43t-14.5 -43q-10 -10 -23.5 -14.5t-26.5 -8.5q-94 -43 -152.5 -80t-98.5 -82q-41 -45 -66 -96q-10 -27 -15 -57.5t7 -57.5q12 -29 39.5 -38t59.5 -8 t62.5 9.5t51.5 16.5q57 20 109.5 52t99.5 69q27 18 57.5 44.5t91.5 82.5q10 10 19.5 19t19.5 16q23 10 37.5 3.5t30.5 -22.5q16 -14 21 -37.5t-13 -42.5q-66 -66 -138.5 -126t-152.5 -107q-70 -41 -146.5 -70t-142.5 -24q-74 4 -141.5 38.5t-95.5 106.5q-16 37 -16.5 74 t10 73.5t29 70.5t40.5 63q47 59 109.5 104t130.5 80q-45 47 -51 110q-63 -74 -142.5 -162.5t-167.5 -177t-180 -168t-179 -133t-167 -72t-141 14.5q-41 23 -70 59.5t-39 83.5q-10 53 -1 105.5zM141 117q4 -16 9.5 -30.5t21.5 -23.5q12 -4 25.5 -4t25.5 2q55 10 138 67.5 t177.5 139.5t190.5 177.5t178 181.5t140.5 152t74.5 89q2 14 5 33t2 39.5t-8 39.5t-25 36q-23 23 -60 17.5t-65 -11.5q-68 -16 -129.5 -50t-116.5 -73q-59 -41 -113.5 -89t-105.5 -99q-53 -51 -101.5 -104.5t-93.5 -110.5q-41 -55 -78.5 -114.5t-64.5 -125.5 q-12 -33 -23.5 -68.5t-3.5 -70.5z" />
<glyph unicode="&#xc7;" horiz-adv-x="727" d="M-189.5 -384.5q-3.5 15.5 3 32t17.5 31t24 20.5q27 16 40 13t39 -13q47 -10 91.5 -7t85.5 13q12 2 32.5 12.5t36 22.5t15.5 24.5t-27 18.5q-20 4 -41 -2t-39 -17q-29 -12 -55.5 -13t-42.5 30q-10 16 -11.5 34.5t15.5 28.5q23 14 70 50t79 65q-57 27 -96 82 q-47 68 -44 148.5t26 154.5q23 78 62.5 147.5t86.5 133.5q45 66 95.5 124t105.5 113t115.5 105.5t126.5 93.5q66 41 138 71.5t150 34.5q59 2 115.5 -24.5t75.5 -87.5q10 -37 4 -74t-21.5 -70.5t-39 -65.5t-46.5 -59q-25 -29 -51 -56.5t-55 -51.5l-57 -47 q-14 -10 -28.5 -19.5t-35.5 -7.5q-31 4 -56.5 29.5t-13.5 60.5q6 14 22.5 25.5t27.5 21.5q16 10 29.5 23.5t27.5 26.5q29 27 54.5 54t47.5 58q43 55 52.5 86t-7 43t-50.5 7t-77 -19q-74 -33 -139 -78t-125 -98q-59 -53 -113.5 -110.5t-103.5 -119.5q-47 -61 -90 -126.5 t-74 -137.5q-16 -37 -26.5 -74.5t-14.5 -78.5q-4 -59 13.5 -91t49.5 -42.5t71.5 -4t80.5 22.5q68 27 136 72t129 98q16 12 29.5 25.5t29.5 27.5q14 12 27.5 27.5t29.5 25.5q25 16 46.5 8t37.5 -30q12 -18 12.5 -32.5t-7 -28t-20.5 -25.5t-26 -23q-55 -53 -114.5 -101 t-124.5 -89q-59 -37 -128 -65.5t-141 -32.5q-10 0 -19 -1t-20 1l-28 -43q29 -6 54.5 -22.5t43.5 -47.5t17 -61.5t-13 -59.5t-34.5 -53.5t-49.5 -40.5q-49 -33 -110.5 -47.5t-118.5 -14.5q-45 0 -91 7.5t-75 31.5q-14 12 -17.5 27.5z" />
<glyph unicode="&#xc8;" horiz-adv-x="739" d="M2 158q0 37 10.5 73.5t28.5 70.5t41 63q47 59 109.5 104t130.5 80q-47 51 -50.5 112.5t19 121t63.5 112.5t82 92q41 41 88 75t101 58q51 23 107 36t114 1q55 -12 94 -52t39 -99t-29.5 -112.5t-64.5 -98.5q-37 -47 -79 -89t-87 -81q-41 -35 -90 -9q-23 10 -34 33t-1 47 q4 10 16.5 19.5t22.5 19.5q53 49 77.5 76t43.5 49q18 23 35.5 46.5t29.5 47.5q4 8 11.5 22.5t10.5 29t-1 25.5t-21 11q-35 0 -66.5 -10t-60.5 -26q-31 -16 -59.5 -36t-54.5 -42q-49 -43 -92.5 -94.5t-65.5 -114.5q-4 -10 -7 -24.5t-4 -30t3 -29.5t14 -23q10 -8 22.5 -8 t22.5 -2q25 -4 43 -18q18 -16 25.5 -43t-15.5 -43q-10 -10 -23.5 -14.5l-25.5 -8.5q-94 -43 -152.5 -80t-99.5 -82t-65 -96q-10 -27 -15.5 -57.5t7.5 -57.5q12 -29 39.5 -38t59.5 -8t62.5 9.5t50.5 16.5q57 20 109.5 52t99.5 69q27 18 57.5 44.5t92.5 82.5q10 10 19.5 19 t19.5 16q23 10 37 3.5t30 -22.5q16 -14 21.5 -37.5t-12.5 -42.5q-66 -66 -138.5 -126t-152.5 -107q-70 -41 -146.5 -70t-142.5 -24q-74 4 -141.5 38.5t-96.5 106.5q-16 37 -16 74zM815 1487.5q-2 13.5 4 23.5q23 29 59.5 33t65.5 -12q16 -10 17.5 -33.5t3.5 -40.5l24 -203 l4 -20t-2 -21q-10 -27 -41.5 -33.5t-54.5 3.5q-20 8 -24.5 30.5t-8.5 38.5q-16 53 -25.5 105.5t-17.5 105.5q-2 10 -4 23.5z" />
<glyph unicode="&#xc9;" horiz-adv-x="739" d="M2 158q0 37 10.5 73.5t28.5 70.5t41 63q47 59 109.5 104t130.5 80q-47 51 -50.5 112.5t19 121t63.5 112.5t82 92q41 41 88 75t101 58q51 23 107 36t114 1q55 -12 94 -52t39 -99t-29.5 -112.5t-64.5 -98.5q-37 -47 -79 -89t-87 -81q-41 -35 -90 -9q-23 10 -34 33t-1 47 q4 10 16.5 19.5t22.5 19.5q53 49 77.5 76t43.5 49q18 23 35.5 46.5t29.5 47.5q4 8 11.5 22.5t10.5 29t-1 25.5t-21 11q-35 0 -66.5 -10t-60.5 -26q-31 -16 -59.5 -36t-54.5 -42q-49 -43 -92.5 -94.5t-65.5 -114.5q-4 -10 -7 -24.5t-4 -30t3 -29.5t14 -23q10 -8 22.5 -8 t22.5 -2q25 -4 43 -18q18 -16 25.5 -43t-15.5 -43q-10 -10 -23.5 -14.5l-25.5 -8.5q-94 -43 -152.5 -80t-99.5 -82t-65 -96q-10 -27 -15.5 -57.5t7.5 -57.5q12 -29 39.5 -38t59.5 -8t62.5 9.5t50.5 16.5q57 20 109.5 52t99.5 69q27 18 57.5 44.5t92.5 82.5q10 10 19.5 19 t19.5 16q23 10 37 3.5t30 -22.5q16 -14 21.5 -37.5t-12.5 -42.5q-66 -66 -138.5 -126t-152.5 -107q-70 -41 -146.5 -70t-142.5 -24q-74 4 -141.5 38.5t-96.5 106.5q-16 37 -16 74zM721 1262q4 10 11 18t16 14q88 66 146 106t112 73q14 8 27.5 17t29.5 13q20 4 43 -10 q23 -16 33 -41.5t4 -52.5q-6 -23 -34 -36t-44 -24l-221 -129q-18 -12 -37 -24t-41 -2q-23 10 -36 32.5t-9 45.5z" />
<glyph unicode="&#xca;" horiz-adv-x="739" d="M2 158q0 37 10.5 73.5t28.5 70.5t41 63q47 59 109.5 104t130.5 80q-47 51 -50.5 112.5t19 121t63.5 112.5t82 92q41 41 88 75t101 58q51 23 107 36t114 1q55 -12 94 -52t39 -99t-29.5 -112.5t-64.5 -98.5q-37 -47 -79 -89t-87 -81q-41 -35 -90 -9q-23 10 -34 33t-1 47 q4 10 16.5 19.5t22.5 19.5q53 49 77.5 76t43.5 49q18 23 35.5 46.5t29.5 47.5q4 8 11.5 22.5t10.5 29t-1 25.5t-21 11q-35 0 -66.5 -10t-60.5 -26q-31 -16 -59.5 -36t-54.5 -42q-49 -43 -92.5 -94.5t-65.5 -114.5q-4 -10 -7 -24.5t-4 -30t3 -29.5t14 -23q10 -8 22.5 -8 t22.5 -2q25 -4 43 -18q18 -16 25.5 -43t-15.5 -43q-10 -10 -23.5 -14.5l-25.5 -8.5q-94 -43 -152.5 -80t-99.5 -82t-65 -96q-10 -27 -15.5 -57.5t7.5 -57.5q12 -29 39.5 -38t59.5 -8t62.5 9.5t50.5 16.5q57 20 109.5 52t99.5 69q27 18 57.5 44.5t92.5 82.5q10 10 19.5 19 t19.5 16q23 10 37 3.5t30 -22.5q16 -14 21.5 -37.5t-12.5 -42.5q-66 -66 -138.5 -126t-152.5 -107q-70 -41 -146.5 -70t-142.5 -24q-74 4 -141.5 38.5t-96.5 106.5q-16 37 -16 74zM635 1299.5q14 23.5 39 46.5q129 100 264 139q16 4 35.5 7t36 1t29 -12.5t16.5 -32.5 q4 -25 -1 -74t-16 -84q-4 -16 -9 -31.5t-21 -23.5q-20 -10 -42 -6t-38 18q-16 16 -17.5 37t2.5 43q-51 -27 -90 -53.5t-75 -54.5q-25 -20 -58 -11t-49 33q-20 35 -6 58.5z" />
<glyph unicode="&#xcb;" horiz-adv-x="739" d="M2 158q0 37 10.5 73.5t28.5 70.5t41 63q47 59 109.5 104t130.5 80q-47 51 -50.5 112.5t19 121t63.5 112.5t82 92q41 41 88 75t101 58q51 23 107 36t114 1q55 -12 94 -52t39 -99t-29.5 -112.5t-64.5 -98.5q-37 -47 -79 -89t-87 -81q-41 -35 -90 -9q-23 10 -34 33t-1 47 q4 10 16.5 19.5t22.5 19.5q53 49 77.5 76t43.5 49q18 23 35.5 46.5t29.5 47.5q4 8 11.5 22.5t10.5 29t-1 25.5t-21 11q-35 0 -66.5 -10t-60.5 -26q-31 -16 -59.5 -36t-54.5 -42q-49 -43 -92.5 -94.5t-65.5 -114.5q-4 -10 -7 -24.5t-4 -30t3 -29.5t14 -23q10 -8 22.5 -8 t22.5 -2q25 -4 43 -18q18 -16 25.5 -43t-15.5 -43q-10 -10 -23.5 -14.5l-25.5 -8.5q-94 -43 -152.5 -80t-99.5 -82t-65 -96q-10 -27 -15.5 -57.5t7.5 -57.5q12 -29 39.5 -38t59.5 -8t62.5 9.5t50.5 16.5q57 20 109.5 52t99.5 69q27 18 57.5 44.5t92.5 82.5q10 10 19.5 19 t19.5 16q23 10 37 3.5t30 -22.5q16 -14 21.5 -37.5t-12.5 -42.5q-66 -66 -138.5 -126t-152.5 -107q-70 -41 -146.5 -70t-142.5 -24q-74 4 -141.5 38.5t-96.5 106.5q-16 37 -16 74zM654.5 1307.5q7.5 29.5 29.5 52.5q10 12 23.5 24.5t29 22.5t31.5 15t33 1q35 -10 55 -42.5 t12 -61.5t-42.5 -55.5t-59.5 -36.5t-52.5 -4t-43.5 26q-23 29 -15.5 58.5zM882.5 1313q4.5 22 26.5 49q23 23 55.5 46.5t65.5 16.5q37 -8 55.5 -39.5t8.5 -66.5q-4 -16 -16.5 -26.5t-22.5 -20.5q-20 -16 -39 -29.5t-37 -18.5t-36.5 2t-41.5 34q-23 31 -18.5 53z" />
<glyph unicode="&#xcc;" horiz-adv-x="722" d="M96 616q0 61 22.5 116.5t58.5 104t81 89.5t92 75q51 37 108.5 68t117 52.5t118 30.5t113.5 3q27 -4 53.5 -14.5t48 -26.5t35.5 -39.5t17 -52.5q2 -43 -12.5 -86t-39 -84t-54 -77.5t-56.5 -69.5q-131 -170 -256 -321t-242 -306l-39 -55q-8 -10 -15 -22.5t-22 -18.5 q-23 -10 -49 -4t-43 24q-10 10 -15 23.5t-3 25.5q4 14 11 24.5t15 20.5q18 29 38 54.5t40 54.5q127 172 254 319.5t242 302.5q12 18 40.5 57.5t47 76t13.5 61.5t-60 14q-106 -20 -202.5 -70.5t-174.5 -117.5q-45 -41 -82 -88t-53 -105q-18 -61 0 -120q6 -14 9 -28.5 t-7 -31.5q-6 -10 -16.5 -14t-20.5 -8q-25 -4 -51.5 9t-36.5 36q-25 55 -25 118zM823 1455q-2 13 4 24q23 29 59.5 32.5t65.5 -12.5q16 -10 17.5 -33.5t3.5 -40.5l24 -202q2 -10 4.5 -20.5t-2.5 -20.5q-10 -27 -41.5 -34t-54.5 3q-20 8 -24.5 30.5t-8.5 39.5q-16 53 -25 105 t-18 106q-2 10 -4 23z" />
<glyph unicode="&#xcd;" horiz-adv-x="722" d="M96 616q0 61 22.5 116.5t58.5 104t81 89.5t92 75q51 37 108.5 68t117 52.5t118 30.5t113.5 3q27 -4 53.5 -14.5t48 -26.5t35.5 -39.5t17 -52.5q2 -43 -12.5 -86t-39 -84t-54 -77.5t-56.5 -69.5q-131 -170 -256 -321t-242 -306l-39 -55q-8 -10 -15 -22.5t-22 -18.5 q-23 -10 -49 -4t-43 24q-10 10 -15 23.5t-3 25.5q4 14 11 24.5t15 20.5q18 29 38 54.5t40 54.5q127 172 254 319.5t242 302.5q12 18 40.5 57.5t47 76t13.5 61.5t-60 14q-106 -20 -202.5 -70.5t-174.5 -117.5q-45 -41 -82 -88t-53 -105q-18 -61 0 -120q6 -14 9 -28.5 t-7 -31.5q-6 -10 -16.5 -14t-20.5 -8q-25 -4 -51.5 9t-36.5 36q-25 55 -25 118zM750 1262q4 10 11 18t15 14q88 66 146.5 106t111.5 73q14 8 27.5 17t30.5 13q20 4 43 -10q23 -16 32.5 -41.5t3.5 -52.5q-6 -23 -33.5 -36t-43.5 -24l-222 -129q-18 -12 -36.5 -24t-40.5 -2 q-23 10 -36.5 32.5t-8.5 45.5z" />
<glyph unicode="&#xce;" horiz-adv-x="722" d="M96 616q0 61 22.5 116.5t58.5 104t81 89.5t92 75q51 37 108.5 68t117 52.5t118 30.5t113.5 3q27 -4 53.5 -14.5t48 -26.5t35.5 -39.5t17 -52.5q2 -43 -12.5 -86t-39 -84t-54 -77.5t-56.5 -69.5q-131 -170 -256 -321t-242 -306l-39 -55q-8 -10 -15 -22.5t-22 -18.5 q-23 -10 -49 -4t-43 24q-10 10 -15 23.5t-3 25.5q4 14 11 24.5t15 20.5q18 29 38 54.5t40 54.5q127 172 254 319.5t242 302.5q12 18 40.5 57.5t47 76t13.5 61.5t-60 14q-106 -20 -202.5 -70.5t-174.5 -117.5q-45 -41 -82 -88t-53 -105q-18 -61 0 -120q6 -14 9 -28.5 t-7 -31.5q-6 -10 -16.5 -14t-20.5 -8q-25 -4 -51.5 9t-36.5 36q-25 55 -25 118zM664 1299.5q14 23.5 38 46.5q129 100 265 139q16 4 35.5 7t36 1t28.5 -12.5t16 -32.5q4 -25 -1 -74t-15 -84q-4 -16 -9 -31.5t-22 -23.5q-20 -10 -42 -6t-38 18q-16 16 -17 37t3 43 q-51 -27 -90 -53.5t-76 -54.5q-25 -20 -57.5 -11t-48.5 33q-20 35 -6 58.5z" />
<glyph unicode="&#xcf;" horiz-adv-x="722" d="M96 616q0 61 22.5 116.5t58.5 104t81 89.5t92 75q51 37 108.5 68t117 52.5t118 30.5t113.5 3q27 -4 53.5 -14.5t48 -26.5t35.5 -39.5t17 -52.5q2 -43 -12.5 -86t-39 -84t-54 -77.5t-56.5 -69.5q-131 -170 -256 -321t-242 -306l-39 -55q-8 -10 -15 -22.5t-22 -18.5 q-23 -10 -49 -4t-43 24q-10 10 -15 23.5t-3 25.5q4 14 11 24.5t15 20.5q18 29 38 54.5t40 54.5q127 172 254 319.5t242 302.5q12 18 40.5 57.5t47 76t13.5 61.5t-60 14q-106 -20 -202.5 -70.5t-174.5 -117.5q-45 -41 -82 -88t-53 -105q-18 -61 0 -120q6 -14 9 -28.5 t-7 -31.5q-6 -10 -16.5 -14t-20.5 -8q-25 -4 -51.5 9t-36.5 36q-25 55 -25 118zM650 1307.5q7 29.5 30 52.5q10 12 23.5 24.5t29 22.5t31.5 15t33 1q35 -10 55 -42.5t12 -61.5t-43 -55.5t-59 -36.5q-25 -10 -52.5 -4t-43.5 26q-23 29 -16 58.5zM878.5 1313q4.5 22 26.5 49 q23 23 55.5 46.5t65.5 16.5q37 -8 55.5 -39.5t8.5 -66.5q-4 -16 -16.5 -26.5t-22.5 -20.5q-20 -16 -39 -29.5t-37.5 -18.5t-36.5 2t-41 34q-23 31 -18.5 53z" />
<glyph unicode="&#xd0;" horiz-adv-x="1087" d="M4 418q-2 59 21.5 115.5t52.5 105.5q119 199 297 338q88 70 189.5 116t211.5 60q90 10 184.5 -7.5t159.5 -82.5q41 -43 58.5 -94t16.5 -104.5t-16 -108t-38 -103.5q-47 -100 -101.5 -175t-111.5 -140q-111 -127 -244 -225q-66 -51 -139.5 -91t-155.5 -63 q-35 -10 -72.5 -15t-75.5 -3t-73 13t-64 38q-31 29 -38 64.5t0.5 72.5t25 73t35.5 66q-55 12 -88 52t-35 98zM147 403.5q12 -20.5 41 -28.5q6 -2 9 0q0 4 9 16t20.5 26.5t22.5 29t19 24.5q-10 4 -16 12q-16 16 -18.5 41t10.5 43q10 20 35.5 23.5t46.5 7.5l53 8 q29 37 59.5 73t61.5 73l114 131q29 35 56.5 67.5t56.5 63.5q-45 -12 -87 -31.5t-83 -44.5q-70 -41 -129 -95.5t-113 -115.5q-47 -57 -88 -121.5t-69 -132.5q-23 -49 -11 -69.5zM203 77.5q0 -14.5 16 -16.5q66 -4 128.5 17.5t117.5 52.5t110.5 70t116.5 96q41 35 77 75t71 81 t65.5 84t59.5 90q27 45 50 93t34 99q6 25 8 52.5t-3 53t-17.5 48t-37.5 37.5q-47 29 -105 28.5t-108 -10.5q25 -4 46.5 -23.5t17.5 -50.5q0 -14 -9.5 -25t-19.5 -24q-70 -78 -127 -145.5t-108 -126.5q14 2 28.5 4t28.5 0q12 -4 19.5 -11.5t13.5 -17.5q29 -53 -8 -100 q-10 -14 -37 -14q-6 0 -13.5 -1t-26 -3.5t-50 -4.5t-84.5 -6l-17 -20q-41 -49 -78.5 -98.5t-72.5 -102.5q-16 -25 -31.5 -49.5t-30.5 -52.5q-6 -14 -12 -27.5t-10 -30.5q-2 -6 -2 -20.5z" />
</font>
</defs>
</svg>
